<?xml version="1.0" encoding="UTF-8" standalone="no"?>
<svg width="1513px" height="1506px" viewBox="0 0 1513 1506" version="1.1" xmlns="http://www.w3.org/2000/svg" xmlns:xlink="http://www.w3.org/1999/xlink">
    <!-- Generator: Sketch 43.2 (39069) - http://www.bohemiancoding.com/sketch -->
    <title>back-svg</title>
    <desc>Created with Sketch.</desc>
    <defs>
        <radialGradient cx="-50.8440748%" cy="46.7126435%" fx="-50.8440748%" fy="46.7126435%" r="100%" gradientTransform="translate(-0.508441,0.467126),scale(0.882186,1.000000),rotate(90.000000),translate(0.508441,-0.467126)" id="radialGradient-1">
            <stop stop-color="#FFFFFF" stop-opacity="0.136973505" offset="0%"></stop>
            <stop stop-color="#000000" stop-opacity="0" offset="100%"></stop>
        </radialGradient>
        <rect id="path-2" x="0" y="0" width="2818" height="2486"></rect>
    </defs>
    <g id="Page-1" stroke="none" stroke-width="1" fill="none" fill-rule="evenodd">
        <g id="Rubrique-example---gallerie---menu-deplie">
            <g id="back-svg" transform="translate(-238.000000, -11.000000)">
                <mask id="mask-3" fill="white">
                    <use xlink:href="#path-2"></use>
                </mask>
                <use id="Mask" fill="url(#radialGradient-1)" xlink:href="#path-2"></use>
                <g id="Looper_Group" opacity="0.205865205" style="mix-blend-mode: soft-light;" mask="url(#mask-3)">
                    <g transform="translate(-870.024803, -948.219404)">
                        <g id="duplicate_50_Group" opacity="0.100853552" transform="translate(1396.886217, 2003.224713) rotate(352.800000) translate(-1396.886217, -2003.224713) translate(564.386217, 1264.224713)">
                            <polygon id="Triangle" stroke="#979797" points="379.817279 0.524150635 1355.05435 1477.141 264.832995 1477.141"></polygon>
                            <polygon id="Triangle-Copy-2" stroke="#979797" points="275.417668 219.212347 528.250784 1248.62523 0.216160748 879.942547"></polygon>
                            <polygon id="Triangle-Copy" stroke="#979797" transform="translate(1048.902581, 744.905964) rotate(70.000000) translate(-1048.902581, -744.905964) " points="748.369663 199.099459 1349.4355 1290.71247 776.462144 1290.71247"></polygon>
                        </g>
                        <g id="duplicate_49_Group" opacity="0.364587999" transform="translate(1514.590234, 1506.534171) rotate(345.600000) translate(-1514.590234, -1506.534171) translate(693.590234, 778.534171)">
                            <polygon id="Triangle" stroke="#979797" points="374.678081 0.237017795 1336.6595 1455.40922 261.256691 1455.40922"></polygon>
                            <polygon id="Triangle-Copy-2" stroke="#979797" points="271.697495 215.749244 521.094044 1230.21215 0.236590013 866.883778"></polygon>
                            <polygon id="Triangle-Copy" stroke="#979797" transform="translate(1034.669020, 733.808307) rotate(70.000000) translate(-1034.669020, -733.808307) " points="738.221015 195.928453 1331.11702 1271.68816 765.931657 1271.68816"></polygon>
                        </g>
                        <g id="duplicate_48_Group" opacity="0.524658334" transform="translate(2164.290387, 1598.925829) rotate(338.400000) translate(-2164.290387, -1598.925829) translate(1364.790387, 890.925829)">
                            <path d="M365.410461,0.334764267 L364.608218,-0.876559197 L364.495112,0.571924198 L253.976237,1415.91836 L253.934155,1416.45729 L254.47472,1416.45729 L1302.35738,1416.45729 L1303.28824,1416.45729 L1302.77425,1415.6812 L365.410461,0.334764267 Z" id="Triangle" stroke-opacity="0.877774004" stroke="#606060"></path>
                            <polygon id="Triangle-Copy-2" stroke="#979797" points="264.648338 210.224846 507.662692 1196.92351 0.134267482 843.538855"></polygon>
                            <polygon id="Triangle-Copy" stroke="#979797" transform="translate(1008.095001, 714.105450) rotate(70.000000) translate(-1008.095001, -714.105450) " points="719.233264 190.946518 1296.95674 1237.26438 746.234775 1237.26438"></polygon>
                        </g>
                        <g id="duplicate_47_Group" opacity="0.97274911" transform="translate(2312.275040, 1559.527918) rotate(331.200000) translate(-2312.275040, -1559.527918) translate(1520.775040, 859.027918)">
                            <polygon id="Triangle" stroke="#979797" points="361.323401 0.378930492 1289.21887 1400.40777 251.920878 1400.40777"></polygon>
                            <polygon id="Triangle-Copy-2" stroke="#979797" points="261.991733 207.724378 502.551396 1183.74448 0.149521664 834.18434"></polygon>
                            <polygon id="Triangle-Copy" stroke="#979797" transform="translate(997.928834, 706.151729) rotate(70.000000) translate(-997.928834, -706.151729) " points="711.984892 188.65469 1283.87278 1223.64877 738.713661 1223.64877"></polygon>
                        </g>
                        <g id="duplicate_46_Group" opacity="0.453518071" transform="translate(1211.812096, 2058.233790) rotate(324.000000) translate(-1211.812096, -2058.233790) translate(427.312096, 1363.733790)">
                            <polygon id="Triangle" stroke="#979797" points="358.436891 0.997415646 1278.7577 1388.77217 249.92745 1388.77217"></polygon>
                            <polygon id="Triangle-Copy-2" stroke="#979797" points="259.916093 206.528023 498.512004 1174.00528 0.211369569 827.504747"></polygon>
                            <polygon id="Triangle-Copy" stroke="#979797" transform="translate(989.845544, 700.592771) rotate(70.000000) translate(-989.845544, -700.592771) " points="706.235839 187.625247 1273.45525 1213.5603 732.746414 1213.5603"></polygon>
                        </g>
                        <g id="duplicate_45_Group" style="mix-blend-mode: color-dodge;" transform="translate(1921.788436, 1043.080320) rotate(316.800000) translate(-1921.788436, -1043.080320) translate(1137.288436, 349.080320)">
                            <polygon id="Triangle" stroke="#979797" points="358.44931 0.166779727 1278.77012 1387.94153 249.93987 1387.94153"></polygon>
                            <polygon id="Triangle-Copy-2" stroke="#979797" points="259.928513 205.697387 498.524424 1173.17464 0.22378916 826.674111"></polygon>
                            <polygon id="Triangle-Copy" stroke="#979797" transform="translate(989.857964, 699.762135) rotate(70.000000) translate(-989.857964, -699.762135) " points="706.248259 186.794611 1273.46767 1212.72966 732.758833 1212.72966"></polygon>
                        </g>
                        <g id="duplicate_44_Group" opacity="0" transform="translate(2151.212847, 2331.190340) rotate(309.600000) translate(-2151.212847, -2331.190340) translate(1384.712847, 1653.690340)">
                            <polygon id="Triangle" stroke="#979797" points="350.23254 0.299045948 1249.72304 1354.37508 244.179074 1354.37508"></polygon>
                            <path d="M254.427045,200.718932 L254.064531,199.251462 L253.48047,200.645649 L-0.346163487,806.543467 L-0.502504072,806.916661 L-0.170123639,807.147396 L486.852102,1145.23401 L487.940346,1145.98946 L487.622638,1144.70336 L254.427045,200.718932 Z" id="Triangle-Copy-2" stroke-opacity="0.877774004" stroke="#606060"></path>
                            <path d="M690.596898,182.152836 L689.606783,180.365027 L689.659664,182.408013 L715.570204,1183.43073 L715.582811,1183.91779 L716.070037,1183.91779 L1244.54061,1183.91779 L1245.38907,1183.91779 L1244.97801,1183.17555 L690.596898,182.152836 Z" id="Triangle-Copy" stroke-opacity="0.877774004" stroke="#606060" transform="translate(967.350052, 682.906435) rotate(70.000000) translate(-967.350052, -682.906435) "></path>
                        </g>
                        <g id="duplicate_43_Group" opacity="0" transform="translate(2219.964976, 1118.182690) rotate(302.400000) translate(-2219.964976, -1118.182690) translate(1461.964976, 448.682690)">
                            <polygon id="Triangle" stroke="#979797" points="346.565906 0.0701241691 1236.58809 1338.82855 241.628792 1338.82855"></polygon>
                            <path d="M251.773977,198.22137 L251.411476,196.755119 L250.827478,198.148046 L-0.32729545,797.191817 L-0.483846607,797.565217 L-0.151157463,797.795983 L481.744518,1132.05809 L482.832735,1132.81292 L482.514879,1131.52725 L251.773977,198.22137 Z" id="Triangle-Copy-2" stroke-opacity="0.877774004" stroke="#606060"></path>
                            <polygon id="Triangle-Copy" stroke="#979797" transform="translate(957.187443, 674.955710) rotate(70.000000) translate(-957.187443, -674.955710) " points="682.914683 180.106244 1231.4602 1169.80518 708.552481 1169.80518"></polygon>
                        </g>
                        <g id="duplicate_42_Group" opacity="0" transform="translate(1155.671565, 1770.640915) rotate(295.200000) translate(-1155.671565, -1770.640915) translate(417.171565, 1119.140915)">
                            <polygon id="Triangle" stroke="#979797" points="337.862612 0.206956613 1205.16082 1302.20314 235.604745 1302.20314"></polygon>
                            <polygon id="Triangle-Copy-2" stroke="#979797" points="245.01791 193.033685 469.867555 1100.71102 0.275598845 775.627742"></polygon>
                            <polygon id="Triangle-Copy" stroke="#979797" transform="translate(932.893813, 656.560215) rotate(70.000000) translate(-932.893813, -656.560215) " points="665.623762 175.299293 1200.16386 1137.82114 690.606978 1137.82114"></polygon>
                        </g>
                        <g id="duplicate_41_Group" opacity="0" transform="translate(1188.575287, 1321.918871) rotate(288.000000) translate(-1188.575287, -1321.918871) translate(460.075287, 679.418871)">
                            <polygon id="Triangle" stroke="#979797" points="333.375725 0.685190854 1189.31195 1284.30025 232.45748 1284.30025"></polygon>
                            <polygon id="Triangle-Copy-2" stroke="#979797" points="241.747329 190.78966 463.651345 1085.65273 0.211248838 765.158859"></polygon>
                            <polygon id="Triangle-Copy" stroke="#979797" transform="translate(920.611757, 647.772286) rotate(70.000000) translate(-920.611757, -647.772286) " points="656.84306 173.305635 1184.38045 1122.23894 681.498985 1122.23894"></polygon>
                        </g>
                        <g id="duplicate_40_Group" opacity="0" transform="translate(1082.977426, 2126.501530) rotate(280.800000) translate(-1082.977426, -2126.501530) translate(370.977426, 1499.501530)">
                            <polygon id="Triangle" stroke="#979797" points="326.021252 0.351953591 1163.02084 1253.33181 227.335712 1253.33181"></polygon>
                            <polygon id="Triangle-Copy-2" stroke="#979797" points="236.420034 185.919323 453.414669 1059.42528 0.227671702 746.580427"></polygon>
                            <polygon id="Triangle-Copy" stroke="#979797" transform="translate(900.265337, 631.995442) rotate(70.000000) translate(-900.265337, -631.995442) " points="642.332231 168.852578 1158.19844 1095.13831 666.442671 1095.13831"></polygon>
                        </g>
                        <g id="duplicate_39_Group" opacity="0" transform="translate(1846.728141, 1352.736860) rotate(273.600000) translate(-1846.728141, -1352.736860) translate(1157.728141, 747.236860)">
                            <polygon id="Triangle" stroke="#979797" points="315.719627 0.23158585 1126.20791 1210.32216 220.159872 1210.32216"></polygon>
                            <polygon id="Triangle-Copy-2" stroke="#979797" points="228.956455 179.447016 439.077957 1023.05301 0.245299566 720.916786"></polygon>
                            <polygon id="Triangle-Copy" stroke="#979797" transform="translate(871.774984, 610.254026) rotate(70.000000) translate(-871.774984, -610.254026) " points="622.011705 162.964463 1121.53826 1057.54359 645.358466 1057.54359"></polygon>
                        </g>
                        <g id="duplicate_38_Group" opacity="0" transform="translate(2123.172756, 2185.278616) rotate(266.400000) translate(-2123.172756, -2185.278616) translate(1437.672756, 1582.778616)">
                            <path d="M314.55461,0.470545852 L313.75405,-0.724251516 L313.640785,0.70948725 L218.527572,1204.67302 L218.484961,1205.21239 L219.026019,1205.21239 L1120.84019,1205.21239 L1121.77707,1205.21239 L1121.25557,1204.43407 L314.55461,0.470545852 Z" id="Triangle" stroke-opacity="0.877774004" stroke="#606060"></path>
                            <polygon id="Triangle-Copy-2" stroke="#979797" points="227.781496 179.056875 436.921122 1018.39145 0.139083903 717.785026"></polygon>
                            <polygon id="Triangle-Copy" stroke="#979797" transform="translate(867.596200, 607.682584) rotate(70.000000) translate(-867.596200, -607.682584) " points="619.000039 162.657778 1116.19236 1052.70739 642.237703 1052.70739"></polygon>
                        </g>
                        <g id="duplicate_37_Group" opacity="0" transform="translate(1282.421954, 1884.585582) rotate(259.200000) translate(-1282.421954, -1884.585582) translate(601.421954, 1286.585582)">
                            <polygon id="Triangle" stroke="#979797" points="312.067885 0.92418835 1113.08785 1195.69716 217.624483 1195.69716"></polygon>
                            <polygon id="Triangle-Copy-2" stroke="#979797" points="226.318302 177.871069 433.985114 1010.79851 0.2790057 712.486791"></polygon>
                            <polygon id="Triangle-Copy" stroke="#979797" transform="translate(861.627269, 603.224826) rotate(70.000000) translate(-861.627269, -603.224826) " points="614.781785 161.597156 1108.47275 1044.8525 637.855803 1044.8525"></polygon>
                        </g>
                        <g id="duplicate_36_Group" opacity="0" transform="translate(1864.879500, 2175.513341) rotate(252.000000) translate(-1864.879500, -2175.513341) translate(1190.879500, 1583.513341)">
                            <polygon id="Triangle" stroke="#979797" points="308.935556 0.891801227 1102.38086 1183.41069 215.385236 1183.41069"></polygon>
                            <polygon id="Triangle-Copy-2" stroke="#979797" points="223.996844 176.023842 429.699903 1000.40844 0.0950348081 705.156326"></polygon>
                            <path d="M609.223278,159.67274 L608.23413,157.904498 L608.287084,159.929909 L631.142908,1034.12622 L631.155639,1034.61315 L631.642737,1034.61315 L1097.80941,1034.61315 L1098.66202,1034.61315 L1098.24577,1033.86905 L609.223278,159.67274 Z" id="Triangle-Copy" stroke-opacity="0.877774004" stroke="#606060" transform="translate(853.298161, 597.014996) rotate(70.000000) translate(-853.298161, -597.014996) "></path>
                        </g>
                        <g id="duplicate_35_Group" opacity="0" transform="translate(1164.875197, 1427.234231) rotate(244.800000) translate(-1164.875197, -1427.234231) translate(500.375197, 844.234231)">
                            <polygon id="Triangle" stroke="#979797" points="304.653335 1.00156156 1086.73666 1165.13932 212.442637 1165.13932"></polygon>
                            <polygon id="Triangle-Copy-2" stroke="#979797" points="220.930929 173.411343 423.68836 984.981669 0.23535106 694.31897"></polygon>
                            <polygon id="Triangle-Copy" stroke="#979797" transform="translate(841.220771, 587.858593) rotate(70.000000) translate(-841.220771, -587.858593) " points="600.210878 157.554709 1082.23066 1018.16248 622.739411 1018.16248"></polygon>
                        </g>
                        <g id="duplicate_34_Group" opacity="0" transform="translate(1498.113304, 1777.540978) rotate(237.600000) translate(-1498.113304, -1777.540978) translate(840.613304, 1201.040978)">
                            <polygon id="Triangle" stroke="#979797" points="301.593062 0.47670135 1076.10173 1152.36038 210.275446 1152.36038"></polygon>
                            <path d="M219.166593,170.950354 L218.804281,169.501374 L218.221202,170.876448 L-0.336888931,686.300837 L-0.496469319,686.677175 L-0.159359761,686.908374 L419.192409,974.511466 L420.280257,975.257542 L419.960271,973.977835 L219.166593,170.950354 Z" id="Triangle-Copy-2" stroke-opacity="0.877774004" stroke="#606060"></path>
                            <polygon id="Triangle-Copy" stroke="#979797" transform="translate(832.963719, 581.156290) rotate(70.000000) translate(-832.963719, -581.156290) " points="594.288062 155.381921 1071.63938 1006.93066 616.598401 1006.93066"></polygon>
                        </g>
                        <g id="duplicate_33_Group" opacity="0" transform="translate(1708.867889, 2236.583925) rotate(230.400000) translate(-1708.867889, -2236.583925) translate(1074.367889, 1681.583925)">
                            <path d="M291.701758,-0.198002374 L290.902165,-1.38349348 L290.788808,0.0419497443 L202.596979,1109.03635 L202.554065,1109.57598 L203.095405,1109.57598 L1039.2846,1109.57598 L1040.22494,1109.57598 L1039.69913,1108.79639 L291.701758,-0.198002374 Z" id="Triangle" stroke-opacity="0.877774004" stroke="#606060"></path>
                            <polygon id="Triangle-Copy-2" stroke="#979797" points="211.213747 164.324589 405.134292 937.45211 0.136862558 660.557644"></polygon>
                            <polygon id="Triangle-Copy" stroke="#979797" transform="translate(804.469165, 559.140127) rotate(70.000000) translate(-804.469165, -559.140127) " points="573.963335 149.219059 1034.975 969.061195 595.509995 969.061195"></polygon>
                        </g>
                        <g id="duplicate_32_Group" opacity="0" transform="translate(1076.033616, 2237.775185) rotate(223.200000) translate(-1076.033616, -2237.775185) translate(453.033616, 1693.775185)">
                            <polygon id="Triangle" stroke="#979797" points="286.269811 0.182022368 1021.01153 1087.73177 199.640875 1087.73177"></polygon>
                            <polygon id="Triangle-Copy-2" stroke="#979797" points="207.615348 161.249055 398.099326 919.426596 0.279066349 647.886443"></polygon>
                            <polygon id="Triangle-Copy" stroke="#979797" transform="translate(790.357379, 548.430038) rotate(70.000000) translate(-790.357379, -548.430038) " points="563.936462 146.435621 1016.7783 950.424456 585.101283 950.424456"></polygon>
                        </g>
                        <g id="duplicate_31_Group" opacity="0" transform="translate(1697.632043, 917.517478) rotate(216.000000) translate(-1697.632043, -917.517478) translate(1094.632043, 391.517478)">
                            <polygon id="Triangle" stroke="#979797" points="277.368803 0.416185308 989.38655 1051.20369 193.419112 1051.20369"></polygon>
                            <polygon id="Triangle-Copy-2" stroke="#979797" points="201.146952 156.038698 385.739673 888.587703 0.223132598 626.226372"></polygon>
                            <polygon id="Triangle-Copy" stroke="#979797" transform="translate(765.866033, 530.131874) rotate(70.000000) translate(-765.866033, -530.131874) " points="546.447825 141.726 985.284241 918.537748 566.958064 918.537748"></polygon>
                        </g>
                        <g id="duplicate_30_Group" opacity="0" transform="translate(1930.164805, 886.179928) rotate(208.800000) translate(-1930.164805, -886.179928) translate(1333.664805, 366.679928)">
                            <polygon id="Triangle" stroke="#979797" points="274.438298 0.247390309 978.881388 1038.78082 191.381689 1038.78082"></polygon>
                            <polygon id="Triangle-Copy-2" stroke="#979797" points="199.027317 154.055063 381.656287 878.061223 0.240985825 618.759499"></polygon>
                            <polygon id="Triangle-Copy" stroke="#979797" transform="translate(757.738749, 523.785637) rotate(70.000000) translate(-757.738749, -523.785637) " points="540.654777 139.909277 974.822721 907.661996 560.946822 907.661996"></polygon>
                        </g>
                        <g id="duplicate_29_Group" opacity="0" transform="translate(1115.068354, 826.792643) rotate(201.600000) translate(-1115.068354, -826.792643) translate(525.068354, 313.292643)">
                            <polygon id="Triangle" stroke="#979797" points="271.500558 0.0810270867 968.368991 1026.36037 189.337031 1026.36037"></polygon>
                            <polygon id="Triangle-Copy-2" stroke="#979797" points="196.900448 152.07386 377.565665 867.537174 0.251603828 611.295058"></polygon>
                            <polygon id="Triangle-Copy" stroke="#979797" transform="translate(749.604230, 517.441831) rotate(70.000000) translate(-749.604230, -517.441831) " points="534.854495 138.094986 964.353966 896.788676 554.928345 896.788676"></polygon>
                        </g>
                        <g id="duplicate_28_Group" opacity="0" transform="translate(1211.458561, 1778.341980) rotate(194.400000) translate(-1211.458561, -1778.341980) translate(632.958561, 1275.841980)">
                            <polygon id="Triangle" stroke="#979797" points="266.357661 0.143931568 949.970445 1004.97863 185.757027 1004.97863"></polygon>
                            <polygon id="Triangle-Copy-2" stroke="#979797" points="193.176575 148.960795 370.405225 849.474129 0.268334007 598.586326"></polygon>
                            <polygon id="Triangle-Copy" stroke="#979797" transform="translate(735.366970, 506.694211) rotate(70.000000) translate(-735.366970, -506.694211) " points="524.702148 135.274017 946.031792 878.114405 544.394159 878.114405"></polygon>
                        </g>
                        <g id="duplicate_27_Group" opacity="0" transform="translate(1518.845720, 735.288431) rotate(187.200000) translate(-1518.845720, -735.288431) translate(940.345720, 232.788431)">
                            <polygon id="Triangle" stroke="#979797" points="266.369491 0.0679989417 949.982275 1004.9027 185.768857 1004.9027"></polygon>
                            <polygon id="Triangle-Copy-2" stroke="#979797" points="193.188405 148.884863 370.417055 849.398197 0.280164014 598.510393"></polygon>
                            <polygon id="Triangle-Copy" stroke="#979797" transform="translate(735.378800, 506.618279) rotate(70.000000) translate(-735.378800, -506.618279) " points="524.713978 135.198084 946.043622 878.038473 544.405989 878.038473"></polygon>
                        </g>
                        <g id="duplicate_26_Group" opacity="0" transform="translate(715.052406, 1140.461652) rotate(180.000000) translate(-715.052406, -1140.461652) translate(138.052406, 639.461652)">
                            <polygon id="Triangle-Copy-2" stroke="#979797" points="192.602477 148.423154 369.340189 846.800777 0.228608094 596.677875"></polygon>
                        </g>
                        <g id="duplicate_25_Group" opacity="0" transform="translate(1280.997714, 1635.281867) rotate(172.800000) translate(-1280.997714, -1635.281867) translate(705.997714, 1135.781867)">
                            <polygon id="Triangle" stroke="#979797" points="264.859401 0.248501413 944.684856 998.956161 184.705308 998.956161"></polygon>
                            <polygon id="Triangle-Copy-2" stroke="#979797" points="192.08375 148.157945 368.330524 844.399857 0.244252793 595.041857"></polygon>
                            <polygon id="Triangle-Copy" stroke="#979797" transform="translate(731.270320, 503.710060) rotate(70.000000) translate(-731.270320, -503.710060) " points="521.772616 134.554623 940.768024 872.865497 541.35553 872.865497"></polygon>
                        </g>
                        <g id="duplicate_24_Group" opacity="0" transform="translate(1742.620043, 1873.824641) rotate(165.600000) translate(-1742.620043, -1873.824641) translate(1182.120043, 1387.324641)">
                            <polygon id="Triangle" stroke="#979797" points="258.238434 0.980162572 921.02091 972.116139 180.093775 972.116139"></polygon>
                            <polygon id="Triangle-Copy-2" stroke="#979797" points="187.287242 144.806217 359.115573 821.826726 0.257091305 579.352842"></polygon>
                            <polygon id="Triangle-Copy" stroke="#979797" transform="translate(712.956600, 490.542475) rotate(70.000000) translate(-712.956600, -490.542475) " points="508.710928 131.578446 917.202272 849.506505 527.802905 849.506505"></polygon>
                        </g>
                        <g id="duplicate_23_Group" opacity="0" transform="translate(2123.254765, 1339.348956) rotate(158.400000) translate(-2123.254765, -1339.348956) translate(1579.254765, 868.348956)">
                            <polygon id="Triangle" stroke="#979797" points="250.879529 0.692244991 894.725364 941.193017 174.967575 941.193017"></polygon>
                            <polygon id="Triangle-Copy-2" stroke="#979797" points="181.955515 139.9812 348.874465 795.644595 0.269082377 560.81973"></polygon>
                            <polygon id="Triangle-Copy" stroke="#979797" transform="translate(692.605748, 474.810952) rotate(70.000000) translate(-692.605748, -474.810952) " points="494.195666 127.170709 891.01583 822.451195 512.742158 822.451195"></polygon>
                        </g>
                        <g id="duplicate_22_Group" opacity="0" transform="translate(701.527768, 1947.497708) rotate(151.200000) translate(-701.527768, -1947.497708) translate(159.527768, 1477.997708)">
                            <polygon id="Triangle" stroke="#979797" points="250.153758 0.601344239 892.105929 938.038596 174.465074 938.038596"></polygon>
                            <polygon id="Triangle-Copy-2" stroke="#979797" points="181.432461 139.436589 347.860473 792.964273 0.280400979 558.90431"></polygon>
                        </g>
                        <g id="duplicate_21_Group" opacity="0.241230315" transform="translate(1075.133554, 1068.799429) rotate(144.000000) translate(-1075.133554, -1068.799429) translate(554.633554, 619.799429)">
                            <polygon id="Triangle" stroke="#979797" points="240.291193 0.264071441 857.625729 897.875557 167.505025 897.875557"></polygon>
                            <polygon id="Triangle-Copy-2" stroke="#979797" points="174.205226 133.201087 334.251043 758.964523 0 534.848283"></polygon>
                            <polygon id="Triangle-Copy" stroke="#979797" transform="translate(663.828685, 452.761730) rotate(70.000000) translate(-663.828685, -452.761730) " points="473.58843 120.974788 854.06894 784.548671 491.371244 784.548671"></polygon>
                        </g>
                        <g id="duplicate_20_Group" opacity="0.495132701" transform="translate(1397.507740, 1187.282608) rotate(136.800000) translate(-1397.507740, -1187.282608) translate(890.007740, 750.282608)">
                            <polygon id="Triangle" stroke="#979797" points="234.642097 0.335611226 836.827319 873.438934 163.642093 873.438934"></polygon>
                            <polygon id="Triangle-Copy-2" stroke="#979797" points="170.177872 129.642947 326.296184 738.320692 0.247620648 520.323667"></polygon>
                            <polygon id="Triangle-Copy" stroke="#979797" transform="translate(647.786031, 440.478385) rotate(70.000000) translate(-647.786031, -440.478385) " points="462.214249 117.750472 833.357814 763.206297 479.560674 763.206297"></polygon>
                        </g>
                        <g id="duplicate_19_Group" opacity="0.461289727" transform="translate(686.003822, 1023.278305) rotate(129.600000) translate(-686.003822, -1023.278305) translate(193.503822, 600.278305)">
                            <polygon id="Triangle" stroke="#979797" points="228.022078 0.242759724 813.164321 845.774398 159.031507 845.774398"></polygon>
                            <polygon id="Triangle-Copy-2" stroke="#979797" points="165.382311 125.466706 317.082181 714.923048 0.261406832 503.81014"></polygon>
                        </g>
                        <g id="duplicate_18_Group" opacity="0.630286627" transform="translate(1322.368200, 1268.020579) rotate(122.400000) translate(-1322.368200, -1268.020579) translate(839.368200, 854.020579)">
                            <polygon id="Triangle" stroke="#979797" points="223.607858 0.0606409775 797.388116 827.211157 155.95691 827.211157"></polygon>
                            <polygon id="Triangle-Copy-2" stroke="#979797" points="162.184398 122.562327 310.938639 699.204401 0.269724278 492.680905"></polygon>
                            <polygon id="Triangle-Copy" stroke="#979797" transform="translate(617.263870, 417.038005) rotate(70.000000) translate(-617.263870, -417.038005) " points="440.445474 111.295772 794.082267 722.780238 456.973671 722.780238"></polygon>
                        </g>
                        <g id="duplicate_17_Group" opacity="0.844254467" transform="translate(1600.726842, 843.929463) rotate(115.200000) translate(-1600.726842, -843.929463) translate(1136.226842, 446.929463)">
                            <polygon id="Triangle" stroke="#979797" points="215.512182 0.0637234995 768.462134 793.515515 150.317209 793.515515"></polygon>
                            <polygon id="Triangle-Copy" stroke="#979797" transform="translate(594.877052, 400.053121) rotate(70.000000) translate(-594.877052, -400.053121) " points="424.477805 106.767053 765.276299 693.339189 440.405969 693.339189"></polygon>
                        </g>
                        <g id="duplicate_16_Group" opacity="0.379303902" transform="translate(1695.422133, 893.299734) rotate(108.000000) translate(-1695.422133, -893.299734) translate(1253.922133, 517.299734)">
                            <polygon id="Triangle" stroke="#979797" points="204.910895 0.723279999 731.349548 751.285785 142.841709 751.285785"></polygon>
                            <polygon id="Triangle-Copy" stroke="#979797" transform="translate(566.087038, 379.091629) rotate(70.000000) translate(-566.087038, -379.091629) " points="403.857619 101.658862 728.316458 656.524396 419.022103 656.524396"></polygon>
                        </g>
                        <g id="duplicate_15_Group" opacity="0.607546382" transform="translate(1067.001696, 2023.109498) rotate(100.800000) translate(-1067.001696, -2023.109498) translate(640.501696, 1661.109498)">
                            <polygon id="Triangle" stroke="#979797" points="198.536631 0.697601117 707.932306 723.688422 138.476879 723.688422"></polygon>
                            <polygon id="Triangle-Copy-2" stroke="#979797" points="144.005573 107.773149 276.067919 611.801036 0.259542513 431.284202"></polygon>
                            <polygon id="Triangle-Copy" stroke="#979797" transform="translate(548.020022, 365.166705) rotate(70.000000) translate(-548.020022, -365.166705) " points="391.042634 97.9253455 704.99741 632.408064 405.716182 632.408064"></polygon>
                        </g>
                        <g id="duplicate_13_Group" opacity="0.322327527" transform="translate(1869.878934, 793.023071) rotate(86.400000) translate(-1869.878934, -793.023071) translate(1474.378934, 460.523071)">
                            <polygon id="Triangle" stroke="#979797" points="184.549354 0.209603835 657.965409 664.993537 128.73174 664.993537"></polygon>
                            <polygon id="Triangle-Copy" stroke="#979797" transform="translate(509.348044, 335.335856) rotate(70.000000) translate(-509.348044, -335.335856) " points="363.458278 89.6096909 655.23781 581.062021 377.095405 581.062021"></polygon>
                        </g>
                        <g id="duplicate_12_Group" opacity="0.621438282" transform="translate(1918.762192, 1697.941847) rotate(79.200000) translate(-1918.762192, -1697.941847) translate(1525.262192, 1366.941847)">
                            <polygon id="Triangle" stroke="#979797" points="183.8197 0.152812847 655.342091 661.873226 128.225357 661.873226"></polygon>
                            <polygon id="Triangle-Copy-2" stroke="#979797" points="133.342996 98.154162 255.58658 559.467821 0.284402627 394.249024"></polygon>
                            <polygon id="Triangle-Copy" stroke="#979797" transform="translate(507.319196, 333.734704) rotate(70.000000) translate(-507.319196, -333.734704) " points="362.012989 89.1409179 652.625403 578.328491 375.595567 578.328491"></polygon>
                        </g>
                        <g id="duplicate_11_Group" opacity="0.0413972698" transform="translate(1142.824536, 518.511851) rotate(72.000000) translate(-1142.824536, -518.511851) translate(769.324536, 206.011851)"></g>
                        <g id="duplicate_10_Group" opacity="0.725747048" transform="translate(1844.925611, 1944.932579) rotate(64.800000) translate(-1844.925611, -1944.932579) translate(1472.925611, 1633.432579)">
                            <polygon id="Triangle" stroke="#979797" points="174.085372 0.250970653 620.990128 622.145618 121.393545 622.145618"></polygon>
                            <polygon id="Triangle-Copy-2" stroke="#979797" points="126.243997 92.3540905 242.105386 525.903502 0.132238263 370.628428"></polygon>
                            <path d="M343.404311,83.6263419 L342.422099,81.9868998 L342.475592,83.8973053 L355.34904,543.643033 L355.362649,544.129038 L355.848844,544.129038 L618.415275,544.129038 L619.297699,544.129038 L618.844189,543.37207 L343.404311,83.6263419 Z" id="Triangle-Copy" stroke-opacity="0.877774004" stroke="#606060" transform="translate(480.695336, 313.756174) rotate(70.000000) translate(-480.695336, -313.756174) "></path>
                        </g>
                        <g id="duplicate_9_Group" opacity="0.724786137" transform="translate(1929.313164, 981.861181) rotate(57.600000) translate(-1929.313164, -981.861181) translate(1566.813164, 679.861181)">
                            <polygon id="Triangle" stroke="#979797" points="169.801178 0.262925656 605.343948 603.77645 118.448974 603.77645"></polygon>
                            <polygon id="Triangle-Copy-2" stroke="#979797" points="123.176109 89.6437858 236.09187 510.378929 0.270581572 359.693266"></polygon>
                            <polygon id="Triangle-Copy" stroke="#979797" transform="translate(468.615973, 304.501966) rotate(70.000000) translate(-468.615973, -304.501966) " points="334.397388 81.4233733 602.834558 527.580558 346.943545 527.580558"></polygon>
                        </g>
                        <g id="duplicate_8_Group" opacity="0.528926278" transform="translate(1903.676451, 1929.733711) rotate(50.400000) translate(-1903.676451, -1929.733711) translate(1546.176451, 1632.233711)">
                            <polygon id="Triangle" stroke="#979797" points="167.59615 0.171066862 597.457928 594.49403 116.913757 594.49403"></polygon>
                            <polygon id="Triangle-Copy-2" stroke="#979797" points="121.579234 88.1907972 233.022181 502.518806 0.276822425 354.127849"></polygon>
                            <polygon id="Triangle-Copy" stroke="#979797" transform="translate(462.513361, 299.777025) rotate(70.000000) translate(-462.513361, -299.777025) " points="330.045453 80.0955686 594.981268 519.458481 342.427964 519.458481"></polygon>
                        </g>
                        <g id="duplicate_7_Group" opacity="0.807697048" transform="translate(792.359654, 785.250870) rotate(43.200000) translate(-792.359654, -785.250870) translate(456.359654, 507.250870)">
                            <polygon id="Triangle" stroke="#979797" points="158.023228 0.87004763 563.267371 555.367245 110.243351 555.367245"></polygon>
                        </g>
                        <g id="duplicate_6_Group" opacity="0.953289059" transform="translate(997.003459, 1072.458914) rotate(36.000000) translate(-997.003459, -1072.458914) translate(679.503459, 811.458914)">
                            <polygon id="Triangle" stroke="#979797" points="149.629179 0.620860308 534.043015 521.419333 104.305276 521.419333"></polygon>
                            <polygon id="Triangle-Copy" stroke="#979797" transform="translate(413.365715, 263.162164) rotate(70.000000) translate(-413.365715, -263.162164) " points="294.903225 70.6577948 531.828205 455.666533 305.976572 455.666533"></polygon>
                        </g>
                        <g id="duplicate_5_Group" opacity="0.966249533" transform="translate(1944.930000, 660.200703) rotate(28.800000) translate(-1944.930000, -660.200703) translate(1635.430000, 406.700703)">
                            <polygon id="Triangle" stroke="#979797" points="146.209023 0.572866882 521.154538 506.053738 102.001473 506.053738"></polygon>
                        </g>
                        <g id="duplicate_3_Group" opacity="0.937441722" transform="translate(1389.978633, 1122.948281) rotate(14.400000) translate(-1389.978633, -1122.948281) translate(1121.478633, 907.948281)">
                            <polygon id="Triangle" stroke="#979797" points="127.79589 0.173308596 455.3998 429.066169 89.170101 429.066169"></polygon>
                            <polygon id="Triangle-Copy-2" stroke="#979797" points="92.7257292 63.6927016 177.658019 362.692295 0.279397505 255.606038"></polygon>
                            <polygon id="Triangle-Copy" stroke="#979797" transform="translate(352.556583, 216.383794) rotate(70.000000) translate(-352.556583, -216.383794) " points="251.600865 57.8507841 453.512301 374.916804 261.037757 374.916804"></polygon>
                        </g>
                        <g id="duplicate_2_Group" opacity="0.201180424" transform="translate(1110.162664, 1527.846615) rotate(7.200000) translate(-1110.162664, -1527.846615) translate(856.662664, 1326.846615)">
                            <polygon id="Triangle" stroke="#979797" points="121.169939 0.268713744 431.730871 401.58989 84.5535844 401.58989"></polygon>
                            <polygon id="Triangle-Copy" stroke="#979797" transform="translate(334.237880, 202.579953) rotate(70.000000) translate(-334.237880, -202.579953) " points="238.534193 54.2383515 429.941566 350.921555 247.480148 350.921555"></polygon>
                        </g>
                    </g>
                </g>
            </g>
        </g>
    </g>
</svg>