<svg xmlns="http://www.w3.org/2000/svg" xmlns:xlink="http://www.w3.org/1999/xlink" version="1.1" x="0px" y="0px" viewBox="0 0 96 120" enable-background="new 0 0 96 96" xml:space="preserve"><g><path fill="#000000" d="M65.387,89H21c-6.065,0-11-4.935-11-11V22c0-6.065,4.935-11,11-11h8c0.553,0,1,0.447,1,1s-0.447,1-1,1h-8   c-4.963,0-9,4.037-9,9v56c0,4.963,4.037,9,9,9h43.613L86,67.558V22c0-4.963-4.037-9-9-9h-8c-0.553,0-1-0.447-1-1s0.447-1,1-1h8   c6.065,0,11,4.935,11,11v46.442L65.387,89z"/></g><g><path fill="#000000" d="M61,13H37c-0.553,0-1-0.447-1-1s0.447-1,1-1h24c0.553,0,1,0.447,1,1S61.553,13,61,13z"/></g><g><path fill="#000000" d="M35,20h-4c-1.654,0-3-1.346-3-3V7c0-1.654,1.346-3,3-3h4c1.654,0,3,1.346,3,3v10C38,18.654,36.654,20,35,20   z M31,6c-0.552,0-1,0.448-1,1v10c0,0.552,0.448,1,1,1h4c0.552,0,1-0.448,1-1V7c0-0.552-0.448-1-1-1H31z"/></g><g><path fill="#000000" d="M67,20h-4c-1.654,0-3-1.346-3-3V7c0-1.654,1.346-3,3-3h4c1.654,0,3,1.346,3,3v10C70,18.654,68.654,20,67,20   z M63,6c-0.552,0-1,0.448-1,1v10c0,0.552,0.448,1,1,1h4c0.552,0,1-0.448,1-1V7c0-0.552-0.448-1-1-1H63z"/></g><g><path fill="#000000" d="M86,27H11c-0.553,0-1-0.447-1-1s0.447-1,1-1h75c0.553,0,1,0.447,1,1S86.553,27,86,27z"/></g><g><path fill="#000000" d="M65,89c-0.553,0-1-0.447-1-1V78c0-6.065,4.935-11,11-11h12c0.553,0,1,0.447,1,1s-0.447,1-1,1H75   c-4.963,0-9,4.037-9,9v10C66,88.553,65.553,89,65,89z"/></g><text x="0" y="111" fill="#000000" font-size="5px" font-weight="bold" font-family="'Helvetica Neue', Helvetica, Arial-Unicode, Arial, Sans-serif">Created by lionlionleo</text><text x="0" y="116" fill="#000000" font-size="5px" font-weight="bold" font-family="'Helvetica Neue', Helvetica, Arial-Unicode, Arial, Sans-serif">from the Noun Project</text></svg>