<svg xmlns="http://www.w3.org/2000/svg" xmlns:xlink="http://www.w3.org/1999/xlink" version="1.1" x="0px" y="0px" viewBox="0 0 100 125" style="enable-background:new 0 0 100 100;" xml:space="preserve"><g><g><circle cx="50" cy="20.5" r="6.1"/><path d="M28.1,72.9c-5.1,0-9.7,6.9-9.9,12.7H38C37.7,79.9,33.2,72.9,28.1,72.9z"/><path d="M50,29.8c-5.8,0-11.1,7.9-11.4,14.5h22.7C61,37.8,55.8,29.8,50,29.8z"/><circle cx="28.1" cy="64.8" r="5.3"/><path d="M71.9,72.9c-5.1,0-9.7,6.9-9.9,12.7h19.9C81.6,79.9,77,72.9,71.9,72.9z"/><circle cx="71.9" cy="64.8" r="5.3"/><path d="M59.9,67.8l-8.9-8V48.4c0-0.6-0.4-1-1-1s-1,0.4-1,1v11.4l-8.9,8c-0.4,0.4-0.4,1-0.1,1.4c0.4,0.4,1,0.4,1.4,0.1l8.6-7.7    l8.6,7.7c0.2,0.2,0.4,0.3,0.7,0.3c0.3,0,0.5-0.1,0.7-0.3C60.4,68.8,60.3,68.1,59.9,67.8z"/></g></g><text x="0" y="115" fill="#000000" font-size="5px" font-weight="bold" font-family="'Helvetica Neue', Helvetica, Arial-Unicode, Arial, Sans-serif">Created by Yusuf</text><text x="0" y="120" fill="#000000" font-size="5px" font-weight="bold" font-family="'Helvetica Neue', Helvetica, Arial-Unicode, Arial, Sans-serif">from the Noun Project</text></svg>