<svg xmlns="http://www.w3.org/2000/svg" xmlns:xlink="http://www.w3.org/1999/xlink" version="1.1" x="0px" y="0px" viewBox="0 0 100 125" style="enable-background:new 0 0 100 100;" xml:space="preserve"><g><path d="M83.583,6.417v87.165H16.417V25.587l19.17-19.17H83.583 M85,5H35L15,25v70h70V5L85,5z"/></g><g><line style="" x1="25" y1="30" x2="50" y2="30" fill="none" stroke="#000000" stroke-width="1.4173" stroke-miterlimit="10"/></g><line style="" x1="25" y1="40" x2="50" y2="40" fill="none" stroke="#000000" stroke-width="1.4173" stroke-miterlimit="10"/><line style="" x1="25" y1="50" x2="75" y2="50" fill="none" stroke="#000000" stroke-width="1.4173" stroke-miterlimit="10"/><g><path d="M26.595,79.302h3.823v3.586h-3.823V79.302z"/><path d="M32.87,70.003h5.915c1.166,0,2.108,0.158,2.826,0.475s1.311,0.771,1.78,1.362s0.809,1.28,1.02,2.065   s0.316,1.617,0.316,2.496c0,1.377-0.157,2.445-0.47,3.203c-0.313,0.76-0.749,1.396-1.305,1.908s-1.154,0.854-1.793,1.023   c-0.873,0.234-1.664,0.352-2.373,0.352H32.87V70.003z M36.852,72.921v7.04h0.976c0.832,0,1.424-0.093,1.775-0.276   c0.352-0.186,0.627-0.507,0.826-0.967s0.299-1.206,0.299-2.237c0-1.365-0.223-2.3-0.668-2.804s-1.184-0.756-2.215-0.756H36.852z"/><path d="M46.317,76.454c0-2.104,0.586-3.741,1.758-4.913s2.804-1.758,4.896-1.758c2.145,0,3.797,0.575,4.957,1.728   c1.16,1.15,1.74,2.764,1.74,4.838c0,1.506-0.254,2.741-0.76,3.705c-0.508,0.964-1.24,1.713-2.197,2.25   c-0.959,0.535-2.152,0.804-3.582,0.804c-1.453,0-2.656-0.231-3.608-0.694s-1.724-1.195-2.316-2.197S46.317,77.96,46.317,76.454z    M50.299,76.472c0,1.301,0.242,2.235,0.725,2.804c0.484,0.568,1.142,0.853,1.974,0.853c0.855,0,1.518-0.278,1.986-0.835   s0.703-1.556,0.703-2.997c0-1.213-0.245-2.099-0.733-2.658c-0.49-0.56-1.153-0.84-1.991-0.84c-0.803,0-1.447,0.284-1.934,0.853   S50.299,75.159,50.299,76.472z"/><path d="M70.391,77.614l3.489,1.055c-0.234,0.979-0.604,1.796-1.107,2.452s-1.13,1.151-1.876,1.485   c-0.748,0.334-1.698,0.501-2.853,0.501c-1.4,0-2.544-0.203-3.433-0.61c-0.887-0.407-1.653-1.123-2.298-2.147   s-0.967-2.336-0.967-3.935c0-2.132,0.567-3.77,1.7-4.915c1.135-1.145,2.738-1.717,4.813-1.717c1.623,0,2.898,0.328,3.828,0.984   c0.928,0.656,1.618,1.664,2.069,3.023l-3.516,0.782c-0.123-0.393-0.252-0.68-0.387-0.861c-0.223-0.305-0.495-0.539-0.817-0.703   s-0.683-0.246-1.081-0.246c-0.902,0-1.594,0.363-2.074,1.089c-0.363,0.538-0.545,1.384-0.545,2.536c0,1.429,0.217,2.407,0.65,2.937   c0.434,0.53,1.043,0.795,1.828,0.795c0.762,0,1.337-0.214,1.728-0.642C69.932,79.05,70.215,78.429,70.391,77.614z"/></g><line style="" x1="25" y1="60" x2="75" y2="60" fill="none" stroke="#000000" stroke-width="1.4173" stroke-miterlimit="10"/><polygon points="62.803,30.987 54.75,44.934 70.855,44.934 "/><polygon points="68.782,34.164 62.565,44.934 75,44.934 "/><circle cx="73.028" cy="31.283" r="1.972"/><text x="0" y="115" fill="#000000" font-size="5px" font-weight="bold" font-family="'Helvetica Neue', Helvetica, Arial-Unicode, Arial, Sans-serif">Created by Matthew Weatherall</text><text x="0" y="120" fill="#000000" font-size="5px" font-weight="bold" font-family="'Helvetica Neue', Helvetica, Arial-Unicode, Arial, Sans-serif">from the Noun Project</text></svg>