<svg xmlns="http://www.w3.org/2000/svg" xmlns:xlink="http://www.w3.org/1999/xlink" version="1.1" x="0px" y="0px" viewBox="0 0 100 125" style="enable-background:new 0 0 100 100;" xml:space="preserve"><g><path d="M50,22c-15.4,0-28,12.6-28,28s12.6,28,28,28s28-12.6,28-28S65.4,22,50,22z M50,76.9c-14.8,0-26.9-12.1-26.9-26.9   S35.2,23.1,50,23.1S76.9,35.2,76.9,50S64.8,76.9,50,76.9z"/><path d="M50,31.6c-10.1,0-18.4,8.2-18.4,18.4S39.9,68.4,50,68.4S68.4,60.1,68.4,50S60.1,31.6,50,31.6z M50,67.8   c-9.8,0-17.8-8-17.8-17.8s8-17.8,17.8-17.8s17.8,8,17.8,17.8S59.8,67.8,50,67.8z"/><path d="M50,5C25.2,5,5,25.2,5,50s20.2,45,45,45s45-20.2,45-45S74.8,5,50,5z M50,93.9C25.8,93.9,6.1,74.2,6.1,50S25.8,6.1,50,6.1   S93.9,25.8,93.9,50S74.2,93.9,50,93.9z"/><path d="M89.8,44.1H79.6c-2.8-13.8-15-24.2-29.6-24.2c-16.6,0-30.2,13.5-30.2,30.2S33.4,80.2,50,80.2c14.6,0,26.8-10.4,29.6-24.2   h10.2c2.1,0,3-3,3-5.9C92.8,47,91.9,44.1,89.8,44.1z M50,79.1c-16,0-29.1-13-29.1-29.1c0-16,13-29.1,29.1-29.1   c16,0,29.1,13,29.1,29.1C79.1,66,66,79.1,50,79.1z M91.1,53.5c-0.2,0.6-0.7,1.3-1.3,1.3h-10c0.3-1.6,0.4-3.2,0.4-4.8   c0-1.6-0.1-3.3-0.4-4.8h10c1.1,0,1.9,2.1,1.9,4.8C91.7,51.3,91.5,52.6,91.1,53.5z"/></g><text x="0" y="115" fill="#000000" font-size="5px" font-weight="bold" font-family="'Helvetica Neue', Helvetica, Arial-Unicode, Arial, Sans-serif">Created by Iulia Ardeleanu</text><text x="0" y="120" fill="#000000" font-size="5px" font-weight="bold" font-family="'Helvetica Neue', Helvetica, Arial-Unicode, Arial, Sans-serif">from the Noun Project</text></svg>