<svg xmlns="http://www.w3.org/2000/svg" width="77" height="63" viewBox="0 0 77 63">
  <path fill="#606060" fill-rule="evenodd" d="M51.8994,40.4473 C51.8994,40.9333 51.5054,41.3273 51.0194,41.3273 L43.4264,41.3273 L43.4264,48.9213 C43.4264,49.4063 43.0324,49.8013 42.5454,49.8013 L33.7434,49.8013 C33.2564,49.8013 32.8624,49.4063 32.8624,48.9213 L32.8624,41.3273 L25.2694,41.3273 C24.7844,41.3273 24.3894,40.9333 24.3894,40.4473 L24.3894,31.6443 C24.3894,31.1573 24.7844,30.7633 25.2694,30.7633 L32.8624,30.7633 L32.8624,23.1713 C32.8624,22.6843 33.2564,22.2903 33.7434,22.2903 L42.5454,22.2903 C43.0324,22.2903 43.4264,22.6843 43.4264,23.1713 L43.4264,30.7633 L51.0194,30.7633 C51.5054,30.7633 51.8994,31.1573 51.8994,31.6443 L51.8994,40.4473 Z M24.7424,7.1093 C24.7424,6.5903 25.1354,6.1693 25.6224,6.1693 L50.6674,6.1693 C51.1534,6.1693 51.5464,6.5903 51.5464,7.1093 L51.5464,13.2993 C51.5464,13.8183 51.1534,14.2393 50.6674,14.2393 L25.6224,14.2393 C25.1354,14.2393 24.7424,13.8183 24.7424,13.2993 L24.7424,7.1093 Z M71.1854,3.7613 C66.4174,3.3353 58.8974,2.3993 58.8974,2.3993 C58.8974,2.3993 57.6924,0.9533 55.7654,0.9533 L51.5484,0.9533 L51.5484,1.7223 L24.7404,1.7223 L24.7404,0.9533 L20.5244,0.9533 C18.5964,0.9533 17.3914,2.3993 17.3914,2.3993 C17.3914,2.3993 9.8294,3.3903 5.1044,3.7613 C0.0454,4.1583 0.0454,8.0423 0.0454,8.0423 L0.0454,59.5463 C0.0454,61.0053 1.2274,62.1873 2.6854,62.1873 L37.5094,62.1873 L38.7794,62.1873 L73.6034,62.1873 C75.0624,62.1873 76.2444,61.0053 76.2444,59.5463 L76.2444,8.0423 C76.2444,8.0423 76.2444,4.2133 71.1854,3.7613 L71.1854,3.7613 Z"/>
</svg>
