<svg xmlns="http://www.w3.org/2000/svg" width="95" height="92" viewBox="0 0 95 92">
  <g fill="#606060" fill-rule="evenodd">
    <path d="M66.2441 76.2344C66.9771 78.4224 65.0561 81.0354 61.9531 82.0754 58.8511 83.1154 55.7431 82.1864 55.0101 80.0014 54.2771 77.8154 56.1981 75.2004 59.3001 74.1604 62.4021 73.1204 65.5111 74.0484 66.2441 76.2344M54.5981 48.2734C53.6961 51.2114 52.2191 54.9244 48.7821 57.5924 46.8861 59.0644 44.7061 59.8784 42.3021 60.0114L41.9191 60.0324C40.6401 60.0984 39.4321 60.1624 38.3731 60.6284 36.5931 61.4114 35.5211 62.8174 35.0011 65.0524 34.8631 65.6474 34.7881 66.2824 34.7101 66.9544 34.6711 67.2834 34.6331 67.6124 34.5871 67.9394L34.4681 68.7854 32.0431 69.8834 31.4201 68.4274C31.3791 68.3324 31.3351 68.2384 31.2901 68.1434 31.1611 67.8664 31.0131 67.5524 30.9081 67.1804 30.2811 64.9594 29.8051 62.6144 29.4531 60.0074 29.1621 57.8544 29.2221 55.5584 29.6361 52.9914 30.5641 47.2224 33.3591 42.6234 37.9421 39.3214 38.8931 38.6364 39.9001 38.0714 40.8731 37.5254 41.5121 37.1674 42.1161 36.8274 42.7011 36.4594 43.1111 36.2014 43.5341 36.0704 43.9591 36.0704 44.8421 36.0704 45.3901 36.6144 45.6241 36.8454 47.2711 38.4804 48.9161 40.1194 50.5581 41.7604 50.9031 42.1054 51.2421 42.4574 51.5811 42.8074 52.2831 43.5324 52.9451 44.2164 53.6531 44.8494 54.3681 45.4884 55.1121 46.6004 54.5981 48.2734M94.5701 44.9914C91.6961 36.1474 82.5691 30.3774 70.5781 28.4944 69.1301 30.3054 67.6861 32.1074 66.2611 33.8844 65.0791 35.3574 63.8981 36.8304 62.7191 38.3034 61.4551 39.8804 60.1521 41.4634 58.8901 42.9904 58.4001 43.5864 57.9091 44.1804 57.4181 44.7774 57.2781 44.9484 57.1261 45.1114 56.9601 45.2904L55.6641 46.7064 52.2521 43.3054C50.0141 41.0744 47.8991 38.9644 45.7261 36.8244 45.2491 36.3544 45.0061 35.8274 45.0041 35.2564 45.0021 34.3964 45.5621 33.8394 45.8021 33.6014 47.4371 31.9754 49.0691 30.3464 50.7011 28.7174 46.8361 29.3384 42.8851 30.2814 38.9151 31.5714 13.2931 39.8994-3.3309 59.4084 1.7851 75.1474 6.9001 90.8864 31.1851 94.6134 57.4391 88.5674 70.9151 85.4634 80.5061 78.4764 80.5061 78.4764 83.6031 74.3474 75.6021 74.0884 75.6021 74.0884 66.3101 73.3154 66.0521 67.8944 66.0521 67.8944 64.7621 63.2494 84.8931 58.8614 84.8931 58.8614 96.7661 55.7634 94.5701 44.9914 94.5701 44.9914M66.9644 28.0557C69.9814 24.2877 73.0334 20.4567 76.0094 16.6457 78.5294 13.4187 81.0084 10.0617 83.4064 6.8157 84.3304 5.5647 85.2544 4.3147 86.1824 3.0677 86.4014 2.7727 86.4504 2.6597 86.4614 2.6227 86.5674 2.0017 86.1554 1.2597 85.4994.9157 84.8634.5827 83.9254.6647 83.4484 1.0867L83.0094 1.4747C82.2684 2.1277 81.5694 2.7447 80.8954 3.4017L77.9474 6.2677C73.0064 11.0747 67.8964 16.0447 62.9004 20.9607 60.5034 23.3207 58.0884 25.7227 55.7124 28.0927 59.6164 27.7437 63.3934 27.7387 66.9644 28.0557"/>
    <path d="M48.5386 35.248C50.4976 37.183 52.4176 39.097 54.4386 41.112L55.5286 42.199C55.8526 41.806 56.1776 41.412 56.5016 41.019 57.7556 39.499 59.0516 37.928 60.3006 36.368 61.4806 34.894 62.6636 33.42 63.8456 31.946 64.8776 30.659 65.9186 29.361 66.9646 28.056 63.3926 27.738 59.6166 27.744 55.7116 28.093 54.8666 28.936 54.0256 29.775 53.1926 30.607 51.6426 32.155 50.0916 33.703 48.5386 35.248M49.3555 44.9609C49.0285 44.6219 48.7005 44.2829 48.3675 43.9499 46.8515 42.4349 45.3335 40.9219 43.8115 39.4109 43.3345 39.6949 42.8555 39.9639 42.3885 40.2269 41.4495 40.7539 40.5625 41.2519 39.7525 41.8339 35.8615 44.6379 33.4865 48.5569 32.6935 53.4819 32.3285 55.7469 32.2725 57.7449 32.5225 59.5929 32.6265 60.3669 32.7435 61.1159 32.8715 61.8449 33.8005 59.9869 35.2255 58.6299 37.1255 57.7929 38.7035 57.0989 40.2555 57.0179 41.7575 56.9389L42.1305 56.9189C43.9195 56.8189 45.4745 56.2399 46.8825 55.1469 49.0585 53.4569 50.4805 51.1299 51.6375 47.3639 51.6555 47.3059 51.6645 47.2659 51.6685 47.2379 51.6525 47.2199 51.6275 47.1929 51.5895 47.1589 50.7975 46.4509 50.0645 45.6929 49.3555 44.9609"/>
  </g>
</svg>
