<svg xmlns="http://www.w3.org/2000/svg" width="53" height="96" viewBox="0 0 53 96">
  <g fill="#606060" fill-rule="evenodd">
    <path d="M39.9224 9.1831C40.3504 3.8401 34.5604-.9259 29.4404 1.0241 23.9154 2.7001 21.7074 10.3361 25.8564 14.4951 30.2334 19.6991 40.1574 16.0301 39.9224 9.1831M47.7939 34.3999C45.3479 34.3999 43.3149 36.2819 42.9179 38.7449 40.2039 37.2689 37.3429 36.0539 34.7229 34.4239 32.0989 29.6799 30.8809 24.2929 28.3339 19.5069 25.8369 14.8139 18.2879 14.6859 15.1519 18.7379 11.1249 23.6019 7.1329 28.5169 3.1029 33.3789.4789 36.3769-.7781 40.9189.9479 44.6619 3.9449 52.4129 7.8789 59.8709 10.3849 67.7909 8.3909 74.9679 5.5529 81.9209 3.8929 89.1939 3.1029 95.0619 11.8229 98.0539 14.9599 93.1169 17.7339 87.0519 19.1269 80.4049 21.4859 74.1449 23.0209 70.4259 23.5029 66.0539 21.7959 62.2989 19.4589 56.6699 17.0299 51.0799 14.7349 45.4399 18.2019 41.0889 21.4749 36.6009 24.9739 32.2819 26.1059 34.8199 27.0329 37.4539 28.2369 39.9589 31.3829 42.3169 35.2419 43.5439 38.6549 45.4739 39.9429 46.0249 41.4059 47.0269 42.8419 47.1549L42.8419 50.5839 42.8159 50.5839C42.7849 74.0369 42.7699 72.2199 42.8159 95.6699L44.6719 95.7369C44.6279 72.2379 44.6109 74.0149 44.6719 50.5239L44.6469 50.5249 44.6469 46.7399C44.7579 46.6699 44.8689 46.5959 44.9799 46.5059 47.0259 45.2689 47.1719 42.3709 45.8849 40.5469 45.4799 40.2659 45.0649 39.9999 44.6469 39.7419L44.6469 39.6239C44.6469 37.7379 46.0579 36.2049 47.7939 36.2049 49.5289 36.2049 50.9399 37.7379 50.9399 39.6239 50.9399 40.1219 51.3439 40.5259 51.8429 40.5259 52.3419 40.5259 52.7449 40.1219 52.7449 39.6239 52.7449 36.7429 50.5229 34.3999 47.7939 34.3999"/>
  </g>
</svg>
