<svg xmlns="http://www.w3.org/2000/svg" width="82" height="101" viewBox="0 0 82 101">
  <path fill="#606060" fill-rule="evenodd" d="M33.5083,93.9834 C19.0773,93.9834 7.3753,82.2854 7.3753,67.8514 C7.3753,59.5524 11.2483,52.1604 17.2743,47.3694 L16.8413,39.3094 C7.0463,45.0444 0.4613,55.6804 0.4613,67.8514 C0.4613,86.1034 15.2593,100.8964 33.5083,100.8964 C47.5013,100.8964 59.4573,92.2054 64.2813,79.9294 L59.3693,71.6564 C57.5253,84.2894 46.6503,93.9834 33.5083,93.9834 M80.4423,79.6984 L64.4623,52.7764 C63.5293,51.2124 61.8963,50.3174 60.1953,50.2674 L38.2183,50.2674 L37.9793,45.2724 L53.9643,45.2754 C56.1703,45.1444 57.9583,43.4824 57.9583,41.2754 C57.9583,39.0734 56.2113,37.3734 53.9643,37.2804 L37.5293,37.2834 L36.9673,28.0904 C36.6563,23.4494 32.6843,19.8194 27.9983,20.0854 C23.3133,20.3554 19.7743,24.3724 19.9973,29.0574 L21.5223,55.7514 C21.9263,60.4334 25.8523,63.7704 30.4903,63.7484 L58.9843,63.7484 L71.6053,84.9414 C73.0153,87.2494 76.2083,88.1884 78.6503,86.7394 C81.0903,85.2924 81.8053,82.2264 80.4423,79.6984 M27.8623,18.4484 C32.7153,18.4484 36.6563,14.5124 36.6563,9.6574 C36.6563,4.8004 32.7153,0.8654 27.8623,0.8654 C23.0063,0.8654 19.0703,4.8004 19.0703,9.6574 C19.0703,14.5124 23.0063,18.4484 27.8623,18.4484"/>
</svg>
