<svg xmlns="http://www.w3.org/2000/svg" width="92" height="60" viewBox="0 0 92 60">
  <g fill="#737373" fill-rule="evenodd">
    <path d="M61.9941,28.9893 L24.2241,28.9893 C13.7951,28.9893 22.1901,20.1173 22.1901,20.1173 C34.4011,8.6693 49.0841,8.3833 49.0841,8.3833 C61.9861,8.3833 66.6361,17.5413 66.6361,17.5413 C70.3781,28.1313 61.9941,28.9893 61.9941,28.9893 M58.5391,0.5583 C58.5391,0.5583 29.6331,-3.5707 5.7241,28.3783 C5.7241,28.3783 -9.2709,49.4603 10.0721,50.7633 L10.2411,50.7633 C9.9811,49.6923 9.8291,48.5803 9.8291,47.4283 C9.8291,39.6153 16.1641,33.2803 23.9761,33.2803 C31.7921,33.2803 38.1271,39.6153 38.1271,47.4283 C38.1271,48.5803 37.9731,49.6923 37.7151,50.7633 L56.0491,50.7633 C55.7901,49.6923 55.6381,48.5803 55.6381,47.4283 C55.6381,39.6153 61.9721,33.2803 69.7861,33.2803 C77.5991,33.2803 83.9331,39.6153 83.9331,47.4283 C83.9331,48.2123 83.8541,48.9733 83.7321,49.7213 C87.2221,48.2913 92.2201,45.1643 91.7911,39.0273 C91.7911,39.0273 95.2671,0.1243 58.5391,0.5583"/>
    <path d="M28.7861 51.0654C27.8611 52.7804 26.0701 53.9604 23.9861 53.9604 21.9011 53.9604 20.1101 52.7804 19.1851 51.0654 18.7691 50.2944 18.5121 49.4234 18.5121 48.4854 18.5121 45.4614 20.9631 43.0114 23.9861 43.0114 27.0091 43.0114 29.4601 45.4614 29.4601 48.4854 29.4601 49.4234 29.2021 50.2944 28.7861 51.0654M23.9861 37.5374C17.9391 37.5374 13.0381 42.4394 13.0381 48.4854 13.0381 49.3764 13.1561 50.2374 13.3561 51.0654 14.5171 55.8644 18.8301 59.4334 23.9861 59.4334 29.4271 59.4334 33.9281 55.4604 34.7771 50.2594 34.8721 49.6804 34.9321 49.0904 34.9321 48.4854 34.9321 42.4394 30.0321 37.5374 23.9861 37.5374M69.8887 43.0117C72.9117 43.0117 75.3637 45.4617 75.3637 48.4857 75.3637 49.4237 75.1057 50.2937 74.6897 51.0657 73.7647 52.7807 71.9737 53.9597 69.8887 53.9597 67.8047 53.9597 66.0137 52.7807 65.0887 51.0657 64.6727 50.2937 64.4147 49.4237 64.4147 48.4857 64.4147 45.4617 66.8667 43.0117 69.8887 43.0117M69.8887 37.5367C63.8427 37.5367 58.9417 42.4397 58.9417 48.4857 58.9417 49.3757 59.0597 50.2377 59.2597 51.0657 60.3227 55.4567 64.0337 58.7827 68.6057 59.3237 69.0137 59.3707 69.4207 59.4277 69.8427 59.4297 69.9797 59.4287 70.1107 59.4097 70.2437 59.4017 70.4547 59.3947 70.6587 59.3637 70.8657 59.3447 75.8547 58.8977 79.8827 55.1417 80.6807 50.2597 80.7757 49.6807 80.8367 49.0907 80.8367 48.4857 80.8367 42.4397 75.9357 37.5367 69.8887 37.5367"/>
  </g>
</svg>
