<svg xmlns="http://www.w3.org/2000/svg" width="99" height="102" viewBox="0 0 99 102">
  <g fill="#606060" fill-rule="evenodd">
    <path d="M21.6133 34.7412C21.5923 41.5042 27.1073 47.1112 33.8583 47.1882 40.7203 47.2672 46.4143 41.5872 46.3693 34.7052 46.3243 27.9432 40.7243 22.3922 33.9683 22.4112 27.2033 22.4292 21.6343 27.9872 21.6133 34.7412L21.6133 34.7412zM.2343 30.1422C.7873 29.9862 1.3513 29.8632 1.8893 29.6672 10.4203 26.5732 11.3423 24.3212 7.8123 15.8652 7.4773 15.0642 7.9103 13.8382 8.2463 12.9022 8.4533 12.3282 9.1543 11.9312 9.6323 11.4542 13.1503 7.9392 13.1493 7.9392 17.7133 9.8162 22.3113 11.7072 26.1433 10.0142 27.9583 5.3852 28.5333 3.9192 29.1123 1.5672 30.1023 1.3272 32.5623.7312 35.2643 1.0532 37.8613 1.1782 38.2793 1.1992 38.7683 2.0552 39.0253 2.6162 39.5063 3.6642 39.8153 4.7882 40.2403 5.8642 41.8263 9.8842 45.8823 12.0572 49.5873 9.8942 53.9833 7.3282 56.5843 8.8292 59.1293 12.2382 59.6413 12.9242 60.3013 13.5002 60.9893 14.2312 60.3573 15.5622 59.7233 16.8482 59.1333 18.1532 56.9313 23.0162 58.5893 26.9552 63.5153 28.8062 64.9113 29.3302 67.1943 29.9082 67.3733 30.8002 67.8913 33.3922 67.8863 36.2252 67.3593 38.8162 67.1773 39.7062 64.8863 40.2642 63.4903 40.7912 58.6833 42.6062 56.9683 46.5252 59.0223 51.2042 59.2943 51.8222 59.5213 52.4832 59.9113 53.0212 61.1903 54.7892 60.4263 55.9002 59.1603 57.4222 56.4263 60.7072 53.9653 62.2272 49.5793 59.6802 45.7823 57.4762 41.8303 59.7592 40.1293 64.0012 39.5083 65.5502 38.8843 67.9942 37.8023 68.2802 35.3713 68.9202 32.5543 68.8602 30.0953 68.2612 29.1043 68.0192 28.5303 65.6632 27.9553 64.1952 26.1463 59.5772 22.2743 57.8672 17.7113 59.7702 17.2663 59.9552 16.7773 60.0992 16.4073 60.3882 14.1523 62.1552 12.5883 61.3162 10.8163 59.4022 7.2403 55.5382 7.1343 55.6372 9.1153 50.8192 10.8743 46.5422 9.2133 42.6402 4.8843 40.9882 3.3573 40.4062 1.7863 39.9382.2343 39.4172L.2343 30.1422zM86.7324 63.6948C86.7594 59.9228 83.9844 57.1098 80.2324 57.1068 76.6134 57.1038 73.8444 59.8178 73.7754 63.4358 73.7044 67.1908 76.4664 70.1368 80.1214 70.2028 83.8014 70.2698 86.7064 67.4108 86.7324 63.6948L86.7324 63.6948zM98.2034 66.0838C93.7364 67.5538 92.4454 69.0308 93.3214 71.7658 93.6134 72.6748 94.0874 73.5258 94.5074 74.4688 92.8954 76.5778 91.5654 78.5618 88.2464 76.7728 86.2164 75.6788 84.2114 76.9298 83.5444 79.2418 82.9914 81.1668 81.9934 81.7268 80.0224 81.7088 78.1924 81.6918 77.5724 80.9708 77.0144 79.3878 76.0234 76.5698 74.0904 75.7538 71.2924 77.1178 69.4674 78.0078 68.5464 77.3458 67.3414 76.1638 66.2064 75.0488 65.9814 74.1818 66.7224 72.6818 68.1584 69.7808 67.4094 67.8978 64.3374 66.8108 62.6284 66.2068 62.2024 65.3078 62.2424 63.6498 62.2814 62.0818 62.4214 61.0628 64.2594 60.4598 67.4624 59.4088 68.1874 57.4978 66.6144 54.3958 65.7714 52.7358 66.4804 51.9758 67.5124 50.9868 68.4994 50.0408 69.2054 49.1438 70.9054 49.9438 74.3964 51.5858 75.5424 50.9078 77.3684 47.2708 77.7434 46.5228 79.0744 45.8168 79.9284 45.8568 81.0394 45.9088 82.6544 46.4328 83.1084 47.2668 85.1364 50.9958 85.7954 51.2778 89.8874 49.9688 90.7154 49.7048 92.1974 50.3588 92.8774 51.0688 93.5534 51.7758 94.1244 53.2628 93.8374 54.1008 92.3744 58.4048 93.4244 60.1848 98.2034 60.8658L98.2034 66.0838zM53.3623 85.5977C53.3843 82.3217 50.9753 79.8787 47.7163 79.8757 44.5743 79.8737 42.1693 82.2307 42.1093 85.3727 42.0483 88.6327 44.4473 91.1917 47.6203 91.2497 50.8163 91.3067 53.3393 88.8247 53.3623 85.5977L53.3623 85.5977zM63.3223 87.6717C59.4443 88.9487 58.3223 90.2307 59.0843 92.6067 59.3373 93.3957 59.7493 94.1347 60.1133 94.9537 58.7143 96.7847 57.5583 98.5077 54.6753 96.9537 52.9143 96.0047 51.1723 97.0917 50.5933 99.0987 50.1133 100.7707 49.2463 101.2567 47.5353 101.2407 45.9453 101.2257 45.4063 100.5997 44.9233 99.2247 44.0623 96.7787 42.3833 96.0687 39.9533 97.2537 38.3693 98.0267 37.5693 97.4517 36.5223 96.4257 35.5363 95.4577 35.3413 94.7037 35.9853 93.4017 37.2313 90.8827 36.5813 89.2467 33.9143 88.3037 32.4303 87.7787 32.0593 86.9977 32.0943 85.5577 32.1283 84.1967 32.2503 83.3117 33.8453 82.7877 36.6293 81.8757 37.2583 80.2157 35.8903 77.5217 35.1593 76.0807 35.7753 75.4207 36.6713 74.5617 37.5283 73.7407 38.1403 72.9617 39.6173 73.6557 42.6483 75.0817 43.6433 74.4937 45.2293 71.3347 45.5553 70.6847 46.7113 70.0717 47.4533 70.1067 48.4173 70.1517 49.8203 70.6067 50.2143 71.3307 51.9753 74.5697 52.5483 74.8137 56.1013 73.6787 56.8203 73.4487 58.1073 74.0157 58.6973 74.6327 59.2853 75.2457 59.7803 76.5377 59.5323 77.2657 58.2593 81.0037 59.1733 82.5497 63.3223 83.1407L63.3223 87.6717z"/>
  </g>
</svg>
