<svg xmlns="http://www.w3.org/2000/svg" width="119" height="106" viewBox="0 0 119 106">
  <g fill="#606060" fill-rule="evenodd">
    <path d="M14.541 101.1416C14.541 102.9946 16.031 104.4956 17.87 104.4956 19.717 104.4956 21.214 102.9946 21.214 101.1416L21.214 80.8786 14.541 80.8786 14.541 101.1416zM23.433 101.2976C23.433 103.1256 24.936 104.6286 26.782 104.6286 28.635 104.6286 30.138 103.1256 30.138 101.2976L30.138 80.8786 23.433 80.8786 23.433 101.2976zM22.319 18.6726C27.246 18.6726 31.245 14.6746 31.245 9.7636 31.245 4.8196 27.246.8546 22.319.8546 17.406.8546 13.43 4.8196 13.43 9.7636 13.43 14.6746 17.406 18.6726 22.319 18.6726L22.319 18.6726zM61.334 51.1226C65.636 51.1226 69.13 47.6606 69.13 43.3366 69.13 39.0376 65.636 35.5546 61.334 35.5546 57.021 35.5546 53.528 39.0376 53.528 43.3366 53.528 47.6606 57.021 51.1226 61.334 51.1226L61.334 51.1226zM15.65 47.2636C15.65 47.8536 15.411 48.4256 14.978 48.8456L13.43 50.3816 13.43 35.3826C13.43 34.7636 13.915 34.2726 14.541 34.2726 15.141 34.2726 15.65 34.7636 15.65 35.3826L15.65 47.2636zM83.603 73.4276C83.603 72.1376 83.161 70.8926 82.339 69.8886L71.008 56.1206C70.167 55.0826 68.887 54.4886 67.575 54.4886 67.154 54.4886 66.741 54.5466 66.347 54.6506L64.698 55.1256C63.6 55.4536 59.96 55.0956 58.814 55.0956 55.923 55.0956 54.821 57.9246 51.66 57.4246L44.251 57.1076C45.486 55.8436 46.176 54.1686 46.176 52.4206 46.176 51.3476 45.931 50.2896 45.42 49.3136L36.157 31.5196C33.471 26.3656 28.145 23.1326 22.319 23.1326 13.704 23.1326 6.746 30.1166 6.746 38.7156L6.746 42.8126C6.746 46.6496 8.144 50.3606 10.728 53.2266 5.037 59.7186 1.333 67.6896.042 76.2396L44.624 76.2396C43.154 66.5786 38.623 57.6436 31.656 50.7996L29.674 48.8456C29.249 48.4256 29.024 47.8536 29.024 47.2636L29.024 34.9836C29.024 34.6256 29.301 34.3326 29.674 34.3326 29.92 34.3326 30.161 34.4676 30.274 34.6906L40.149 53.6656C39.309 54.6786 38.851 55.9306 38.851 57.2566 38.851 58.4136 39.204 59.5506 39.888 60.4836L55.766 63.4066 53.535 101.6756C53.528 101.7376 53.528 101.7936 53.528 101.8356 53.528 103.3856 54.773 104.6286 56.312 104.6286 57.75 104.6286 58.947 103.5256 59.082 102.0936L60.727 84.4196 64.346 83.8706 67.497 100.1376C67.767 101.4556 68.903 102.4086 70.235 102.4086 71.778 102.4086 73.021 101.1416 73.021 99.6156 73.021 99.4716 73.012 99.3256 72.992 99.1926L70.42 82.9696 74.696 82.3506 71.365 65.6266 81.675 77.6496C82.903 76.5976 83.603 75.0506 83.603 73.4276L83.603 73.4276zM97.3838 50.3301C101.3898 54.4311 109.3298 51.3591 109.1908 45.5061 109.8538 40.8661 104.9288 37.2081 100.6098 38.2011 95.1868 39.1561 93.1008 46.8481 97.3838 50.3301"/>
    <path d="M118.041,63.8779 C115.347,58.8159 117.835,63.2139 114.978,58.3159 C113.556,56.0629 112.264,53.0349 109.819,52.7489 C104.84,52.5979 99.853,52.7299 94.872,52.6909 C92.335,52.4809 90.757,55.4129 89.377,57.7809 C86.44,62.8909 87.584,60.3569 84.818,65.6259 C83.331,68.7589 86.947,72.2629 88.826,69.6669 C92.57,64.4519 91.186,65.6589 95.065,60.5959 C95.439,81.4259 95.14,80.9529 95.172,87.9379 C95.265,91.1289 94.866,94.4209 95.544,97.5159 C96.979,101.0489 101.167,99.5209 101.246,95.5869 C101.437,88.0329 101.195,87.3789 101.374,79.8269 C101.703,79.8159 102.347,79.8159 102.674,79.8159 C102.824,90.5979 102.682,90.2829 102.747,101.0649 C102.725,103.5449 104.317,106.2219 106.305,105.7909 C107.806,105.8109 108.891,103.6219 108.841,101.7529 C108.937,88.7709 108.574,87.4049 108.998,60.5789 C112.82,65.7059 110.317,62.6849 114.026,67.9439 C115.948,70.4759 119.441,67.1339 118.041,63.8779"/>
  </g>
</svg>
