<svg xmlns="http://www.w3.org/2000/svg" width="89" height="49" viewBox="0 0 89 49">
  <g fill="#606060" fill-rule="evenodd">
    <path d="M51.1396,11.7793 C51.0356,11.7683 50.9306,11.7593 50.8276,11.7503 L39.8886,11.7503 C39.8616,11.5503 39.8486,11.3603 39.8476,11.1753 C39.4766,11.1733 39.1106,11.1653 38.7386,11.1653 C36.8186,11.1653 34.9376,11.2123 33.0946,11.2943 C33.0946,11.3043 33.0936,11.3113 33.0936,11.3213 C33.0936,11.4723 33.1006,11.6153 33.1156,11.7503 L30.9466,11.7503 L30.2516,13.0253 C32.7296,12.8323 35.3206,12.7223 38.0006,12.7223 C40.8106,12.7223 43.5226,12.8413 46.1076,13.0513 L50.4466,13.0513 L51.1396,11.7793 Z"/>
    <path d="M51.1553 11.75L50.8283 11.75C50.9303 11.76 51.0373 11.769 51.1393 11.779L51.1553 11.75zM39.8477 11.1758C39.8467 11.1628 39.8447 11.1498 39.8447 11.1368 39.8447 10.9348 39.8517 10.7698 39.8677 10.6408L51.7747 10.6408 52.4837 9.3388 40.3097 9.3388C40.6627 8.7838 41.2607 8.3218 42.1017 7.9518 43.5927 7.2968 45.5397 6.9688 47.9457 6.9688 50.3507 6.9688 52.1807 7.2068 53.4347 7.6838L54.7427 5.3558C52.9107 5.0138 50.7567 4.8438 48.2777 4.8438 43.7327 4.8438 40.0657 5.4088 37.2767 6.5408 35.4327 7.2908 34.2017 8.2238 33.5797 9.3388L30.9467 9.3388 30.2387 10.6408 33.1377 10.6408C33.1097 10.8288 33.0957 11.0488 33.0947 11.2938 34.9377 11.2118 36.8187 11.1648 38.7387 11.1648 39.1107 11.1648 39.4767 11.1728 39.8477 11.1758M30.252 13.0254L30.238 13.0514 33.514 13.0514C34.119 14.1894 35.366 15.1384 37.255 15.9004 40.028 17.0204 43.57 17.5814 47.879 17.5814 50.432 17.5814 52.668 17.3984 54.586 17.0354L54.586 14.4634C52.903 15.1254 50.647 15.4554 47.813 15.4554 45.452 15.4554 43.533 15.1254 42.058 14.4634 41.29 14.1224 40.723 13.6514 40.354 13.0514L46.107 13.0514C43.523 12.8414 40.811 12.7224 38.001 12.7224 35.32 12.7224 32.731 12.8324 30.252 13.0254"/>
    <path d="M15.5967 11.6465C15.5967 6.5445 29.4097 2.4095 46.4507 2.4095 63.4927 2.4095 77.3077 6.5445 77.3077 11.6465 77.3077 13.5785 75.3207 15.3705 71.9327 16.8525 75.3257 18.5715 77.3077 20.5695 77.3077 22.7105L77.3077 23.9595C77.6837 24.0725 78.0597 24.1865 78.4197 24.3055 83.0117 22.4065 85.7577 20.0815 85.7577 17.5565L85.7577 12.3975C85.7577 6.0205 68.4907.8515 47.1887.8515 25.8877.8515 8.6187 6.0205 8.6187 12.3975L8.6187 15.5085C10.7917 14.6955 13.3307 13.9775 16.1507 13.3655 15.7997 12.8075 15.5967 12.2345 15.5967 11.6465M70.4687 24.666C70.7477 24.747 71.0377 24.824 71.3077 24.908 71.0347 24.825 70.7497 24.746 70.4687 24.666"/>
    <path d="M68.8564 21.96C68.8564 21.977 68.8484 21.993 68.8474 22.011 71.9674 22.54 74.8054 23.199 77.3074 23.958L77.3074 22.711C77.3074 20.569 75.3254 18.571 71.9324 16.853 70.4524 17.501 68.6894 18.085 66.7194 18.6 68.0824 19.643 68.8564 20.773 68.8564 21.96M73.9805 25.8467C73.4075 25.6127 72.7825 25.3927 72.1345 25.1777 72.7765 25.3937 73.4085 25.6137 73.9805 25.8467M8.9053 18.9082C10.6883 17.3852 13.7553 16.0462 17.7333 15.0062 17.0463 14.4802 16.5083 13.9332 16.1503 13.3652 13.3313 13.9772 10.7923 14.6952 8.6193 15.5092L8.6193 17.5562C8.6193 18.0142 8.7323 18.4642 8.9053 18.9082"/>
    <path d="M66.9014,25.1689 C66.8474,25.2129 66.7974,25.2569 66.7424,25.2999 C66.5374,25.4579 66.3174,25.6119 66.0844,25.7659 C65.9544,25.8529 65.8154,25.9369 65.6754,26.0219 C65.4584,26.1539 65.2464,26.2879 65.0074,26.4169 C64.6414,26.6159 64.2494,26.8109 63.8364,26.9999 C63.6594,27.0809 63.4694,27.1589 63.2854,27.2379 C62.9474,27.3829 62.5964,27.5249 62.2314,27.6649 C62.0554,27.7319 61.8814,27.7979 61.7014,27.8629 C61.1504,28.0619 60.5814,28.2559 59.9764,28.4399 C61.1664,28.3149 62.3174,28.1659 63.4494,28.0089 C63.6924,27.9749 63.9344,27.9399 64.1734,27.9049 C65.3034,27.7389 66.4114,27.5609 67.4744,27.3629 C67.4864,27.3609 67.4974,27.3589 67.5094,27.3569 C68.5974,27.1539 69.6434,26.9329 70.6564,26.6999 C70.7744,26.6729 70.8934,26.6469 71.0104,26.6189 C72.0424,26.3759 73.0374,26.1189 73.9794,25.8469 L73.9804,25.8469 C73.4084,25.6129 72.7764,25.3939 72.1344,25.1779 C71.8624,25.0869 71.5914,24.9949 71.3074,24.9079 C71.0384,24.8239 70.7484,24.7469 70.4684,24.6659 C69.6914,24.4449 68.8894,24.2319 68.0444,24.0339 C67.7454,24.4229 67.3584,24.8009 66.9014,25.1689"/>
    <path d="M73.9795,25.8467 C73.0375,26.1187 72.0425,26.3757 71.0105,26.6187 C70.8935,26.6467 70.7745,26.6727 70.6565,26.7007 C69.6425,26.9327 68.5995,27.1547 67.5095,27.3567 C67.4975,27.3597 67.4865,27.3617 67.4745,27.3637 C66.4105,27.5607 65.3045,27.7397 64.1735,27.9057 C63.9335,27.9407 63.6925,27.9747 63.4495,28.0087 C62.3175,28.1657 61.1665,28.3147 59.9765,28.4397 C54.3805,30.1407 46.6055,31.1967 38.0005,31.1967 C37.0165,31.1967 36.0465,31.1797 35.0865,31.1527 C34.7355,31.1427 34.3915,31.1257 34.0425,31.1127 C33.4545,31.0897 32.8685,31.0657 32.2905,31.0327 C31.8515,31.0077 31.4205,30.9787 30.9905,30.9487 C30.5325,30.9157 30.0795,30.8817 29.6295,30.8437 C29.1385,30.8017 28.6515,30.7577 28.1705,30.7097 C27.8335,30.6757 27.5015,30.6377 27.1695,30.5997 C26.6135,30.5367 26.0585,30.4747 25.5165,30.4027 C25.4205,30.3897 25.3305,30.3747 25.2355,30.3627 C23.0255,30.0607 20.9585,29.6847 19.0665,29.2427 L19.0655,29.2427 C18.5595,29.9057 18.2675,30.5927 18.2675,31.3027 C18.2675,34.7317 24.5225,37.7167 33.7885,39.3107 C35.4125,39.3727 37.0565,39.4157 38.7385,39.4157 C60.0395,39.4157 77.3075,34.2467 77.3075,27.8697 L77.3075,27.5537 C76.4045,26.9467 75.2815,26.3757 73.9815,25.8467 L73.9795,25.8467 Z"/>
    <path d="M35.0869 31.1523C34.7339 31.1423 34.3919 31.1263 34.0429 31.1123 34.3919 31.1263 34.7339 31.1423 35.0869 31.1523M32.29 31.0322C31.853 31.0082 31.421 30.9782 30.99 30.9482 31.421 30.9782 31.852 31.0082 32.29 31.0322M25.2354 30.3623C23.0294 30.0593 20.9584 29.6833 19.0664 29.2423 20.9594 29.6843 23.0254 30.0603 25.2354 30.3623M27.1699 30.5996C26.6139 30.5376 26.0579 30.4746 25.5169 30.4026 26.0589 30.4746 26.6129 30.5376 27.1699 30.5996M29.6299 30.8437C29.1389 30.8017 28.6509 30.7587 28.1709 30.7097 28.6509 30.7577 29.1389 30.8017 29.6299 30.8437M70.6562 26.7002C69.6432 26.9322 68.5972 27.1542 67.5102 27.3562 68.5992 27.1542 69.6422 26.9322 70.6562 26.7002M73.9795 25.8467C73.0375 26.1187 72.0425 26.3757 71.0105 26.6187 72.0425 26.3757 73.0375 26.1187 73.9795 25.8467M67.4746 27.3633C66.4116 27.5603 65.3036 27.7393 64.1736 27.9053 65.3046 27.7393 66.4106 27.5603 67.4746 27.3633M63.4492 28.0088C62.3172 28.1658 61.1662 28.3148 59.9762 28.4398 61.1662 28.3148 62.3172 28.1658 63.4492 28.0088M14.0527 27.7793C13.2007 27.4673 12.4417 27.1333 11.7317 26.7873 11.5077 26.6783 11.2757 26.5713 11.0667 26.4603 10.8357 26.3363 10.6297 26.2093 10.4177 26.0823 10.2077 25.9563 9.9987 25.8313 9.8077 25.7023 9.6237 25.5793 9.4557 25.4533 9.2907 25.3263 9.1077 25.1863 8.9337 25.0463 8.7727 24.9023 8.6347 24.7803 8.5037 24.6573 8.3827 24.5323 8.2307 24.3753 8.0977 24.2163 7.9727 24.0543 7.8827 23.9383 7.7877 23.8223 7.7127 23.7043 7.5937 23.5183 7.5067 23.3313 7.4257 23.1413 7.3837 23.0433 7.3247 22.9453 7.2947 22.8443 7.2007 22.5533 7.1457 22.2583 7.1457 21.9603 7.1457 20.8883 7.7847 19.8643 8.9057 18.9083 8.7327 18.4643 8.6187 18.0143 8.6187 17.5563L8.6187 15.5083C3.3427 17.4843.1687 19.9853.1687 22.7113L.1687 27.8703C.1687 31.0303 4.4187 33.8913 11.2907 35.9763L11.2907 32.0533C11.2907 30.5423 12.2877 29.1023 14.0527 27.7793"/>
    <path d="M8.7725 24.9023C8.6345 24.7803 8.5035 24.6563 8.3825 24.5323 8.5035 24.6573 8.6345 24.7803 8.7725 24.9023M7.4258 23.1416C7.3838 23.0426 7.3268 22.9456 7.2948 22.8446 7.3258 22.9456 7.3838 23.0426 7.4258 23.1416M7.9727 24.0547C7.8827 23.9387 7.7877 23.8227 7.7127 23.7037 7.7877 23.8227 7.8827 23.9387 7.9727 24.0547M11.7314 26.7871C12.4414 27.1331 13.2024 27.4671 14.0524 27.7791 13.2034 27.4671 12.4414 27.1321 11.7314 26.7871M9.8076 25.7021C9.6236 25.5791 9.4566 25.4531 9.2906 25.3261 9.4546 25.4531 9.6236 25.5791 9.8076 25.7021M11.0664 26.46C10.8364 26.336 10.6294 26.209 10.4184 26.082 10.6294 26.209 10.8364 26.336 11.0664 26.46M9.7236 20.2383C9.8846 20.4423 10.0536 20.6443 10.2506 20.8433 10.3906 20.9843 10.5476 21.1223 10.7036 21.2603 10.8916 21.4253 11.0856 21.5883 11.2956 21.7493 11.4946 21.9023 11.7036 22.0533 11.9256 22.2033 12.1226 22.3393 12.3366 22.4703 12.5516 22.6023 12.8196 22.7663 13.0866 22.9303 13.3786 23.0903 13.5566 23.1873 13.7506 23.2813 13.9386 23.3773 15.2876 24.0653 16.8516 24.7133 18.6306 25.3013 24.1046 23.0333 32.2446 21.3843 41.6926 20.7733L41.6906 20.7733C41.5066 20.7643 41.3276 20.7523 41.1456 20.7423 40.5966 20.7143 40.0506 20.6833 39.5126 20.6463 39.2196 20.6263 38.9326 20.6013 38.6426 20.5793 38.2186 20.5463 37.7946 20.5113 37.3776 20.4733 37.0746 20.4453 36.7776 20.4143 36.4776 20.3843 36.0866 20.3433 35.6976 20.3013 35.3136 20.2583 35.0126 20.2223 34.7156 20.1853 34.4186 20.1483 34.0406 20.0993 33.6676 20.0513 33.2976 19.9973 33.0136 19.9573 32.7296 19.9163 32.4506 19.8733 32.0776 19.8163 31.7136 19.7563 31.3506 19.6943 31.0866 19.6493 30.8206 19.6063 30.5616 19.5593 30.1716 19.4893 29.7926 19.4143 29.4136 19.3393 29.1986 19.2953 28.9766 19.2543 28.7636 19.2103 28.1936 19.0903 27.6356 18.9653 27.0946 18.8333 27.0076 18.8123 26.9256 18.7893 26.8386 18.7673 26.3676 18.6513 25.9066 18.5313 25.4586 18.4063 25.2736 18.3543 25.0986 18.3013 24.9176 18.2473 24.5866 18.1493 24.2576 18.0523 23.9416 17.9513 23.7476 17.8883 23.5626 17.8243 23.3746 17.7603 23.0876 17.6633 22.8046 17.5653 22.5316 17.4653 22.3456 17.3963 22.1636 17.3263 21.9866 17.2563 21.7256 17.1543 21.4726 17.0503 21.2256 16.9453 21.0576 16.8743 20.8916 16.8013 20.7296 16.7293 20.4876 16.6193 20.2566 16.5073 20.0296 16.3933 19.8846 16.3213 19.7376 16.2503 19.5996 16.1763 19.3626 16.0513 19.1406 15.9233 18.9226 15.7933 18.8166 15.7293 18.7026 15.6673 18.5996 15.6023 18.2886 15.4073 17.9976 15.2093 17.7336 15.0063 13.7546 16.0463 10.6886 17.3843 8.9056 18.9083 9.0366 19.2413 9.2236 19.5693 9.4466 19.8933 9.5266 20.0103 9.6316 20.1243 9.7236 20.2383"/>
    <path d="M10.251 20.8437C10.054 20.6447 9.885 20.4427 9.724 20.2387 9.886 20.4427 10.054 20.6447 10.251 20.8437M13.9385 23.377C13.7515 23.281 13.5565 23.189 13.3785 23.09 13.5565 23.189 13.7515 23.281 13.9385 23.377M11.2959 21.749C11.0859 21.588 10.8919 21.425 10.7049 21.261 10.8919 21.425 11.0859 21.588 11.2959 21.749M12.5518 22.6025C12.3368 22.4705 12.1238 22.3385 11.9258 22.2035 12.1248 22.3375 12.3358 22.4705 12.5518 22.6025M8.9053 18.9082C9.0363 19.2412 9.2223 19.5692 9.4463 19.8932 9.2233 19.5692 9.0363 19.2412 8.9053 18.9082M41.6904 20.7734C41.5064 20.7644 41.3284 20.7524 41.1454 20.7424 41.3284 20.7524 41.5064 20.7644 41.6904 20.7734M18.9229 15.793C18.8169 15.731 18.7019 15.667 18.5999 15.603 18.7019 15.667 18.8169 15.731 18.9229 15.793M22.5312 17.4648C22.3442 17.3968 22.1652 17.3258 21.9862 17.2558 22.1652 17.3258 22.3442 17.3968 22.5312 17.4648M21.2256 16.9453C21.0576 16.8743 20.8916 16.8013 20.7296 16.7293 20.8916 16.8013 21.0576 16.8743 21.2256 16.9453M20.0293 16.3936C19.8843 16.3226 19.7373 16.2496 19.5993 16.1766 19.7373 16.2496 19.8843 16.3216 20.0293 16.3936M35.3135 20.2578C35.0125 20.2228 34.7145 20.1858 34.4175 20.1488 34.7155 20.1858 35.0125 20.2228 35.3135 20.2578M29.415 19.3389C29.198 19.2949 28.977 19.2539 28.764 19.2099 28.977 19.2539 29.198 19.2949 29.415 19.3389M31.3506 19.6943C31.0866 19.6493 30.8206 19.6063 30.5616 19.5593 30.8206 19.6063 31.0866 19.6493 31.3506 19.6943M33.2979 19.9971C33.0139 19.9571 32.7299 19.9161 32.4499 19.8731 32.7299 19.9161 33.0139 19.9571 33.2979 19.9971M27.0947 18.833C27.0077 18.812 26.9257 18.789 26.8387 18.768 26.9257 18.789 27.0077 18.812 27.0947 18.833M39.5127 20.6465C39.2197 20.6255 38.9327 20.6015 38.6427 20.5795 38.9327 20.6015 39.2197 20.6255 39.5127 20.6465M37.3779 20.4736C37.0749 20.4456 36.7749 20.4136 36.4779 20.3836 36.7769 20.4136 37.0739 20.4456 37.3779 20.4736M25.459 18.4062C25.273 18.3542 25.099 18.3002 24.918 18.2472 25.099 18.3002 25.273 18.3542 25.459 18.4062M23.9414 17.9512C23.7484 17.8892 23.5624 17.8242 23.3754 17.7612 23.5624 17.8242 23.7484 17.8892 23.9414 17.9512M68.8477 22.0107C68.8487 21.9927 68.8567 21.9767 68.8567 21.9597 68.8567 20.7727 68.0817 19.6427 66.7197 18.5997 65.9047 18.8127 65.0407 19.0087 64.1547 19.1967 63.9377 19.2417 63.7137 19.2837 63.4927 19.3277 62.7437 19.4777 61.9727 19.6167 61.1797 19.7477 61.0097 19.7757 60.8427 19.8047 60.6697 19.8307 58.6227 20.1527 56.4467 20.4057 54.1607 20.5827L54.1597 20.5827C59.4567 20.7597 64.4197 21.2587 68.8477 22.0107"/>
    <path d="M54.1611 20.583C56.4461 20.405 58.6231 20.152 60.6701 19.831 58.6221 20.15 56.4451 20.406 54.1611 20.583M64.1543 19.1963C65.0413 19.0093 65.9043 18.8123 66.7183 18.5993 65.9043 18.8123 65.0423 19.0093 64.1543 19.1963M61.1797 19.748C61.9727 19.617 62.7417 19.477 63.4927 19.328 62.7417 19.477 61.9737 19.618 61.1797 19.748M30.4111 23.9697C30.5531 23.9377 30.6971 23.9067 30.8411 23.8737 30.6971 23.9067 30.5531 23.9377 30.4111 23.9697M24.9658 25.5752C25.0418 25.5462 25.1218 25.5182 25.1988 25.4902 25.1218 25.5182 25.0428 25.5462 24.9658 25.5752M44.6006 22.1719C44.8856 22.1589 45.1716 22.1489 45.4586 22.1379 45.1716 22.1489 44.8856 22.1589 44.6006 22.1719M49.123 22.0654C50.247 22.0654 51.351 22.0904 52.442 22.1264 51.351 22.0894 50.248 22.0654 49.123 22.0654M33.7842 23.291C33.8032 23.288 33.8202 23.284 33.8392 23.281 33.8202 23.284 33.8032 23.288 33.7842 23.291M40.9922 22.3926C41.0272 22.3896 41.0602 22.3856 41.0952 22.3826 41.0602 22.3856 41.0272 22.3896 40.9922 22.3926M37.0303 22.8105C37.2543 22.7825 37.4793 22.7545 37.7063 22.7275 37.4793 22.7545 37.2543 22.7825 37.0303 22.8105M61.1387 22.8115C61.4507 22.8505 61.7577 22.8925 62.0637 22.9355 61.7577 22.8925 61.4497 22.8515 61.1387 22.8115M53.4756 22.166C54.2446 22.198 54.9996 22.242 55.7476 22.291 55.0006 22.241 54.2446 22.199 53.4756 22.166M56.8145 22.3613C57.7095 22.4303 58.5795 22.5143 59.4395 22.6063 58.5815 22.5133 57.7075 22.4303 56.8145 22.3613"/>
    <path d="M62.2314 27.665C62.5964 27.526 62.9464 27.383 63.2854 27.238 63.4684 27.159 63.6604 27.081 63.8354 27 64.2504 26.811 64.6394 26.616 65.0074 26.417 65.2454 26.288 65.4604 26.154 65.6754 26.021 65.8154 25.936 65.9534 25.852 66.0844 25.766 66.3154 25.612 66.5384 25.458 66.7424 25.3 66.7984 25.257 66.8464 25.212 66.9014 25.169 67.3564 24.801 67.7454 24.423 68.0434 24.034 66.2064 23.603 64.1974 23.235 62.0634 22.936 61.7574 22.893 61.4504 22.851 61.1384 22.811 60.5794 22.739 60.0154 22.669 59.4394 22.606 58.5794 22.515 57.7084 22.431 56.8144 22.361 56.4644 22.334 56.1034 22.315 55.7494 22.291 55.0004 22.242 54.2444 22.198 53.4754 22.166 53.1324 22.151 52.7894 22.137 52.4424 22.126 51.3504 22.091 50.2474 22.065 49.1234 22.065 47.8804 22.065 46.6634 22.095 45.4594 22.138 45.1704 22.148 44.8854 22.159 44.6004 22.172 43.4114 22.225 42.2364 22.29 41.0944 22.383 41.0604 22.386 41.0274 22.39 40.9924 22.393 39.8674 22.484 38.7754 22.6 37.7064 22.728 37.4794 22.755 37.2524 22.782 37.0304 22.811 35.9354 22.951 34.8644 23.105 33.8374 23.281 33.8204 23.284 33.8024 23.288 33.7844 23.291 32.7614 23.468 31.7854 23.665 30.8394 23.874 30.6974 23.906 30.5524 23.936 30.4114 23.97 28.4804 24.414 26.7314 24.924 25.1994 25.49 25.1224 25.519 25.0424 25.546 24.9644 25.575 24.1954 25.866 23.4754 26.171 22.8244 26.489 23.6454 26.69 24.4964 26.882 25.3714 27.061 25.3934 27.067 25.4164 27.072 25.4374 27.076 26.2854 27.251 27.1584 27.415 28.0524 27.569 28.1274 27.583 28.2064 27.595 28.2824 27.608 29.1274 27.752 29.9934 27.887 30.8774 28.011 31.0384 28.033 31.2024 28.054 31.3644 28.075 32.1804 28.186 33.0074 28.291 33.8534 28.385 34.1234 28.415 34.4004 28.44 34.6734 28.469 35.4334 28.547 36.1974 28.623 36.9774 28.686 37.3914 28.722 37.8164 28.747 38.2364 28.777 38.9024 28.825 39.5664 28.875 40.2454 28.912 40.8664 28.946 41.5014 28.968 42.1304 28.992 42.6394 29.013 43.1394 29.039 43.6534 29.054 44.8184 29.085 45.9964 29.102 47.1884 29.102 51.6784 29.102 55.9694 28.861 59.9764 28.439 60.5814 28.256 61.1494 28.061 61.7014 27.863 61.8804 27.798 62.0564 27.731 62.2314 27.665M25.3711 27.0625C25.3921 27.0675 25.4161 27.0725 25.4371 27.0765 25.4161 27.0725 25.3921 27.0675 25.3711 27.0625"/>
    <path d="M28.0527 27.5693C28.1287 27.5833 28.2057 27.5943 28.2817 27.6083 28.2057 27.5943 28.1287 27.5833 28.0527 27.5693M30.877 28.0107C31.038 28.0317 31.202 28.0537 31.364 28.0737 31.202 28.0537 31.038 28.0317 30.877 28.0107M36.9775 28.6875C37.3915 28.7215 37.8175 28.7475 38.2365 28.7775 37.8165 28.7475 37.3915 28.7215 36.9775 28.6875M43.6533 29.0537C44.8173 29.0847 45.9963 29.1027 47.1883 29.1027 45.9963 29.1027 44.8183 29.0847 43.6533 29.0537M33.8535 28.3848C34.1235 28.4148 34.4015 28.4408 34.6735 28.4688 34.4005 28.4408 34.1235 28.4148 33.8535 28.3848M40.2451 28.9121C40.8651 28.9461 41.5011 28.9681 42.1321 28.9921 41.5011 28.9681 40.8661 28.9461 40.2451 28.9121M65.0078 26.417C64.6398 26.616 64.2498 26.811 63.8358 27 64.2488 26.811 64.6418 26.616 65.0078 26.417M63.2852 27.2383C62.9462 27.3833 62.5982 27.5263 62.2312 27.6653 62.5982 27.5253 62.9472 27.3833 63.2852 27.2383M66.084 25.7656C65.953 25.8516 65.814 25.9366 65.676 26.0216 65.814 25.9366 65.954 25.8526 66.084 25.7656M66.9014 25.1689C66.8464 25.2119 66.7984 25.2569 66.7424 25.2999 66.7974 25.2569 66.8474 25.2129 66.9014 25.1689M59.9766 28.4395C60.5806 28.2555 61.1506 28.0615 61.7016 27.8635 61.1496 28.0615 60.5806 28.2555 59.9766 28.4395"/>
    <path d="M78.4199,24.3057 C78.0529,24.4567 77.6979,24.6127 77.3079,24.7587 L77.3079,27.5537 C79.0119,28.7017 79.9789,29.9667 79.9789,31.3027 C79.9789,36.4047 66.1639,40.5387 49.1229,40.5387 C43.5349,40.5387 38.3089,40.0877 33.7879,39.3107 C25.0309,38.9737 17.1909,37.7667 11.2909,35.9767 L11.2909,37.2127 C11.2909,43.5897 28.5589,48.7587 49.8589,48.7587 C71.1609,48.7587 88.4299,43.5897 88.4299,37.2127 L88.4299,32.0537 C88.4299,29.0687 84.6339,26.3527 78.4199,24.3057"/>
    <path d="M73.9932 25.8428C73.9892 25.8438 73.9852 25.8458 73.9802 25.8468L73.9812 25.8468C73.9852 25.8458 73.9892 25.8438 73.9932 25.8428M68.6309 23.0312C68.7609 22.6962 68.8419 22.3562 68.8479 22.0102 68.8419 22.3562 68.7659 22.6962 68.6309 23.0312M68.0439 24.0342C68.2879 23.7172 68.4809 23.3932 68.6139 23.0652 68.4779 23.3932 68.2879 23.7172 68.0439 24.0342M77.3076 24.7588C76.7906 24.9508 76.2506 25.1378 75.6956 25.3208 76.2526 25.1388 76.7906 24.9508 77.3076 24.7588M77.3076 24.7588C77.6986 24.6128 78.0526 24.4568 78.4196 24.3058 78.0596 24.1868 77.6836 24.0718 77.3076 23.9578L77.3076 24.7588z"/>
    <path d="M68.8477,22.0107 C68.8417,22.3567 68.7607,22.6967 68.6307,23.0317 C68.6257,23.0427 68.6187,23.0537 68.6147,23.0657 C68.4827,23.3937 68.2877,23.7167 68.0437,24.0337 C68.8907,24.2327 69.6967,24.4437 70.4687,24.6657 C70.7497,24.7457 71.0357,24.8237 71.3077,24.9067 C71.5897,24.9957 71.8647,25.0857 72.1347,25.1777 C72.7837,25.3927 73.4087,25.6127 73.9807,25.8467 C73.9857,25.8457 73.9897,25.8437 73.9937,25.8427 C74.5767,25.6737 75.1457,25.4997 75.6957,25.3207 C76.2507,25.1377 76.7907,24.9507 77.3077,24.7587 L77.3077,23.9577 C74.8057,23.1977 71.9677,22.5397 68.8477,22.0107"/>
    <path d="M71.3076 24.9082C71.5916 24.9952 71.8626 25.0872 72.1346 25.1782 71.8646 25.0862 71.5896 24.9962 71.3076 24.9082M70.4687 24.666C69.6967 24.443 68.8907 24.232 68.0437 24.034 68.8897 24.232 69.6917 24.445 70.4687 24.666"/>
    <polygon points="54.16 20.583 54.16 20.583 54.158 20.583"/>
    <polygon points="41.692 20.773 41.692 20.773 41.695 20.773"/>
    <path d="M50.7168,20.7852 C50.5198,20.7942 50.3238,20.8032 50.1248,20.8102 C50.3238,20.8032 50.5198,20.7942 50.7168,20.7852"/>
    <path d="M54.1602,20.583 L54.1582,20.583 C53.0352,20.671 51.8862,20.736 50.7172,20.785 C50.5192,20.794 50.3242,20.803 50.1252,20.811 C48.9192,20.854 47.6982,20.884 46.4522,20.884 C44.8342,20.884 43.2452,20.846 41.6952,20.773 L41.6932,20.773 C32.2452,21.385 24.1042,23.033 18.6312,25.302 C19.2362,25.502 19.8722,25.693 20.5242,25.88 C20.5852,25.896 20.6422,25.915 20.7032,25.932 C21.3892,26.125 22.0962,26.311 22.8242,26.489 C23.4752,26.171 24.1952,25.866 24.9662,25.575 C25.0432,25.546 25.1222,25.519 25.1992,25.49 C26.7322,24.924 28.4782,24.413 30.4112,23.97 C30.5532,23.937 30.6972,23.906 30.8412,23.874 C31.7852,23.665 32.7612,23.468 33.7842,23.291 C33.8032,23.288 33.8202,23.284 33.8392,23.281 C34.8652,23.105 35.9342,22.951 37.0302,22.811 C37.2542,22.782 37.4792,22.755 37.7062,22.728 C38.7762,22.6 39.8672,22.484 40.9922,22.393 C41.0272,22.39 41.0602,22.386 41.0962,22.383 C42.2362,22.29 43.4102,22.225 44.6002,22.172 C44.8862,22.159 45.1722,22.148 45.4592,22.138 C46.6632,22.095 47.8812,22.065 49.1232,22.065 C50.2482,22.065 51.3502,22.09 52.4422,22.126 C52.7902,22.137 53.1322,22.151 53.4752,22.166 C54.2442,22.199 55.0012,22.241 55.7492,22.291 C56.1042,22.314 56.4642,22.334 56.8142,22.361 C57.7072,22.431 58.5812,22.514 59.4392,22.606 C60.0172,22.668 60.5772,22.739 61.1392,22.812 C61.4492,22.852 61.7582,22.893 62.0632,22.936 C64.2042,23.233 66.2042,23.603 68.0442,24.034 C68.2882,23.717 68.4772,23.394 68.6142,23.065 C68.6182,23.054 68.6262,23.043 68.6312,23.031 C68.7652,22.696 68.8422,22.356 68.8482,22.011 C64.4202,21.259 59.4572,20.76 54.1602,20.583"/>
    <path d="M20.7031 25.9316C20.6421 25.9146 20.5851 25.8966 20.5241 25.8796 20.5851 25.8966 20.6421 25.9146 20.7031 25.9316M46.4521 20.8838C44.8341 20.8838 43.2451 20.8458 41.6951 20.7738 43.2451 20.8458 44.8341 20.8838 46.4521 20.8838M50.125 20.8105C48.921 20.8555 47.698 20.8835 46.452 20.8835 47.698 20.8835 48.919 20.8535 50.125 20.8105M54.1582 20.583C53.0352 20.671 51.8842 20.735 50.7172 20.785 51.8862 20.736 53.0352 20.671 54.1582 20.583M68.6309 23.0312C68.6259 23.0432 68.6179 23.0522 68.6139 23.0652 68.6179 23.0522 68.6259 23.0432 68.6309 23.0312M37.7061 22.7275C38.7751 22.5995 39.8671 22.4845 40.9921 22.3925 39.8671 22.4845 38.7761 22.5995 37.7061 22.7275M45.459 22.1377C46.663 22.0947 47.881 22.0657 49.123 22.0657 47.881 22.0657 46.663 22.0947 45.459 22.1377M52.4424 22.126C52.7894 22.137 53.1324 22.151 53.4754 22.166 53.1304 22.151 52.7904 22.137 52.4424 22.126M41.0947 22.3828C42.2367 22.2898 43.4107 22.2248 44.6007 22.1718 43.4097 22.2248 42.2367 22.2898 41.0947 22.3828M55.749 22.291C56.103 22.315 56.465 22.334 56.814 22.361 56.464 22.334 56.103 22.314 55.749 22.291M59.4395 22.6064C60.0155 22.6684 60.5795 22.7394 61.1385 22.8114 60.5775 22.7394 60.0175 22.6684 59.4395 22.6064M25.1992 25.4902C26.7312 24.9242 28.4802 24.4142 30.4112 23.9692 28.4782 24.4132 26.7322 24.9242 25.1992 25.4902M68.0439 24.0342C66.2039 23.6022 64.2039 23.2332 62.0639 22.9352 64.1969 23.2352 66.2059 23.6022 68.0439 24.0342M30.8408 23.874C31.7848 23.665 32.7618 23.468 33.7838 23.291 32.7608 23.468 31.7848 23.665 30.8408 23.874M33.8389 23.2812C34.8639 23.1052 35.9359 22.9512 37.0299 22.8102 35.9349 22.9512 34.8649 23.1052 33.8389 23.2812M22.8242 26.4893C23.4752 26.1713 24.1952 25.8663 24.9662 25.5753 24.1952 25.8663 23.4752 26.1713 22.8242 26.4893M73.9932 25.8428C73.9892 25.8438 73.9852 25.8458 73.9812 25.8468 75.2812 26.3758 76.4042 26.9468 77.3072 27.5538L77.3072 24.7588C76.7912 24.9508 76.2532 25.1388 75.6952 25.3208 75.1472 25.4998 74.5772 25.6738 73.9932 25.8428"/>
    <path d="M73.9932 25.8428C74.5772 25.6738 75.1472 25.4998 75.6952 25.3208 75.1452 25.4998 74.5772 25.6738 73.9932 25.8428M18.2676 31.3027C18.2676 30.5927 18.5596 29.9057 19.0656 29.2417 17.2176 28.8117 15.5296 28.3237 14.0526 27.7797 12.2886 29.1027 11.2906 30.5417 11.2906 32.0537L11.2906 35.9767C17.1906 37.7667 25.0316 38.9737 33.7886 39.3107 24.5226 37.7167 18.2676 34.7317 18.2676 31.3027"/>
    <path d="M14.0527,27.7793 C15.5297,28.3233 17.2177,28.8113 19.0657,29.2423 C17.2187,28.8113 15.5297,28.3233 14.0527,27.7793"/>
  </g>
</svg>
