<svg xmlns="http://www.w3.org/2000/svg" width="72" height="70" viewBox="0 0 72 70">
  <g fill="#606060" fill-rule="evenodd">
    <path d="M41.1455,10.1255 L9.3955,10.1255 L16.3955,6.1255 L48.1455,6.1255 L41.1455,10.1255 Z M28.7705,0.0265 C13.1675,0.0265 0.5205,3.8325 0.5205,8.5265 L0.5205,9.1155 C1.3315,12.5565 12.6845,16.2245 28.7295,16.2245 C45.3825,16.2245 56.9885,12.2715 56.9885,8.7245 L57.0205,8.7245 L57.0205,8.5265 C57.0205,3.8325 44.3735,0.0265 28.7705,0.0265 L28.7705,0.0265 Z"/>
    <path d="M28.1973,41.1157 L34.0583,55.6037 L28.1543,50.7067 L22.2363,55.6037 L28.1763,41.1257 L13.6803,46.9907 L18.5773,41.0867 L13.6803,35.1667 L28.1803,41.1167 L28.1823,41.1117 L22.3203,26.6217 L28.2253,31.5187 L34.1443,26.6217 L28.1973,41.1157 Z M42.7113,47.0607 L28.2033,41.1067 L42.7113,35.2377 L37.8133,41.1397 L42.7113,47.0607 Z M0.5203,12.4017 L0.5203,60.5267 C0.5203,65.2207 13.1683,69.0267 28.7703,69.0267 C44.3733,69.0267 57.0203,65.2207 57.0203,60.5267 L57.0203,12.3357 C52.3193,16.1827 40.2423,18.2237 28.7293,18.2237 C17.2833,18.2237 5.2793,16.2057 0.5203,12.4017 L0.5203,12.4017 Z"/>
    <path d="M67.4639,13.6216 L56.0059,13.6216 C53.7969,13.6216 52.0059,15.4126 52.0059,17.6216 L52.0059,18.5246 C52.5909,17.8916 53.4209,17.4876 54.3519,17.4876 L63.1179,17.4876 C64.8859,17.4876 66.3179,18.9196 66.3179,20.6866 L66.3179,45.2136 C66.3179,46.9806 64.8859,48.4136 63.1179,48.4136 L54.3519,48.4136 C53.4209,48.4136 52.5909,48.0096 52.0059,47.3746 L52.0059,48.2786 C52.0059,50.4886 53.7969,52.2786 56.0059,52.2786 L67.4639,52.2786 C69.6729,52.2786 71.4639,50.4886 71.4639,48.2786 L71.4639,17.6216 C71.4639,15.4126 69.6729,13.6216 67.4639,13.6216"/>
  </g>
</svg>
