<svg xmlns="http://www.w3.org/2000/svg" width="65" height="125" viewBox="0 0 65 125">
  <g fill="#606060" fill-rule="evenodd">
    <path d="M42.5234 32.9688C43.1504 33.2538 44.2914 32.6848 45.6684 31.4168L45.6684 29.2468C43.6644 29.0308 42.0554 28.3068 40.7754 27.2988 40.9104 29.7948 41.4394 32.4768 42.5234 32.9688M45.6685 16.2705C42.2775 15.9525 39.3415 14.7845 37.2185 13.6635 37.8795 15.8655 39.8675 19.7485 45.6685 20.2525L45.6685 16.2705zM45.6685 22.6709C42.8915 22.4639 40.7985 21.6179 39.2245 20.4899 39.9135 22.9269 41.5965 26.2339 45.6685 26.8149L45.6685 22.6709zM38.834 6.8848L45.668 6.8848 45.668 4.0308C45.668 3.2978 46.263 2.7028 46.995 2.7028 47.728 2.7028 48.322 3.2978 48.322 4.0308L48.322 6.8848 55.438 6.8848C59.4 6.8848 62.345 9.9388 63.981 12.1958L63.981.2908 30.291.2908 30.291 12.1958C31.927 9.9388 34.872 6.8848 38.834 6.8848"/>
    <path d="M45.6685 9.2969L38.8345 9.2969C37.7935 9.2969 36.8285 9.6099 35.9565 10.0949 37.4695 11.1929 41.0735 13.4429 45.6685 13.9029L45.6685 9.2969zM55.438 9.2969L48.322 9.2969 48.322 13.9559C51.373 13.7669 54.725 12.6799 58.117 9.9939 57.297 9.5679 56.4 9.2969 55.438 9.2969M48.3223 16.335L48.3223 20.158C50.0823 19.882 53.1363 19.126 55.0003 17.099 55.8203 16.207 56.3163 15.168 56.5123 13.96 53.6813 15.53 50.9073 16.213 48.3223 16.335M55.334 20.0068C52.949 21.7378 49.999 22.3698 48.322 22.5978L48.322 26.6288C49.911 26.2358 52.411 25.3398 53.964 23.4098 54.74 22.4458 55.192 21.3048 55.334 20.0068"/>
    <path d="M63.7651,15.6221 C63.7461,15.5841 62.5751,13.2721 60.6231,11.4551 C60.2481,11.7681 59.8731,12.0611 59.4981,12.3401 C59.5661,14.3181 59.1151,16.0641 58.1591,17.5531 C58.1791,17.6211 58.1961,17.6911 58.2041,17.7641 C58.5251,20.5741 57.8901,22.9871 56.3151,24.9351 C56.2841,24.9761 56.2511,25.0111 56.2191,25.0491 C56.9401,30.8621 56.2091,34.2561 53.9781,35.4081 C53.4421,35.6851 52.8741,35.8021 52.3001,35.8021 C51.0821,35.8021 49.8371,35.2821 48.8051,34.6841 L48.8051,36.1931 C48.8051,36.9261 48.2101,37.5201 47.4781,37.5201 C46.7451,37.5201 46.1511,36.9261 46.1511,36.1931 L46.1511,34.4811 C44.6011,35.4821 43.2121,35.7121 42.0071,35.1641 C38.5851,33.6081 38.7651,26.3551 38.8351,24.9171 C38.8401,24.8141 38.8621,24.7171 38.8911,24.6221 C37.4921,22.3771 36.9111,19.7881 36.8251,17.9581 C36.8181,17.8051 36.8421,17.6571 36.8881,17.5191 C35.2391,14.9691 34.9831,12.4281 34.9791,12.3771 C34.9681,12.2531 34.9821,12.1331 35.0071,12.0181 C34.7771,11.8541 34.5891,11.7151 34.4451,11.6051 C32.5911,13.3961 31.4911,15.5841 31.4731,15.6211 C31.3251,15.9201 31.0661,16.1251 30.7731,16.2251 L30.7731,26.3481 C31.7821,27.1711 32.6711,28.1871 33.3751,29.3681 C35.2301,32.4781 35.4021,36.0881 33.8391,39.0411 C33.3781,40.1141 32.7161,41.0701 31.9021,41.8811 C31.7971,41.9851 31.6871,42.0851 31.5781,42.1841 L35.4601,42.1841 L49.3421,42.1841 C49.3891,41.7971 49.4291,41.4041 49.4601,41.0161 C49.5261,39.2361 50.8431,36.6351 54.2451,36.6351 L54.3451,36.6361 C54.3681,36.6351 54.3971,36.6351 54.4331,36.6351 C56.6291,36.6351 58.8781,37.9461 58.9731,40.8741 C58.9841,41.0271 59.0131,41.4981 59.0101,42.1841 L64.4641,42.1841 L64.4641,16.2251 C64.1711,16.1251 63.9131,15.9211 63.7651,15.6221"/>
    <path d="M48.3223 31.7842C49.6533 32.7962 51.4753 33.7392 52.3893 33.2652 52.7803 33.0622 53.9083 32.0302 53.5143 27.0132 51.6443 28.2502 49.5973 28.8392 48.3223 29.1072L48.3223 31.7842zM19.6855 41.9434C22.6105 43.7574 26.6215 43.7154 29.4975 41.8734 29.9545 41.5804 30.3825 41.2434 30.7725 40.8594 31.4695 40.1754 32.0475 39.3484 32.4535 38.3794 34.2775 35.0024 33.2105 31.0584 30.7725 28.4484 28.6545 26.1794 25.5015 24.9174 22.3065 25.9134 16.6895 27.2324 13.5975 34.5884 17.0915 39.3314 17.7545 40.4354 18.6535 41.3034 19.6855 41.9434"/>
    <path d="M54.3633,38.1699 C51.0663,38.0969 50.9933,41.1009 50.9933,41.1009 C50.9643,41.4619 50.9283,41.8249 50.8873,42.1839 C50.6133,44.5959 50.1133,46.8159 50.1133,46.8159 C48.1353,53.0429 34.5083,43.4449 34.5083,43.4449 L34.1633,43.4369 C33.3823,43.4259 35.1563,43.4289 34.3753,43.4249 C32.8833,43.4169 31.3913,43.4089 29.9003,43.4049 C28.3363,44.3079 26.4913,44.8159 24.5283,44.8159 L24.5273,44.8159 C22.6133,44.8159 20.8213,44.3479 19.2883,43.4939 C18.8093,43.5049 18.3303,43.5109 17.8523,43.5239 C13.2613,43.5659 9.0863,46.7249 7.8093,51.1419 C5.3743,58.8889 3.3103,66.7559 0.9293,74.5139 C0.4953,76.2399 -0.4137,78.4889 1.0903,79.9569 C2.7033,82.0159 6.5113,81.4079 7.3653,78.9129 C9.8643,71.3359 11.6513,63.5369 14.1703,55.9899 C14.5293,55.7789 15.5773,55.1879 15.5773,55.1879 L15.6103,91.9059 C15.6103,91.9059 15.5773,109.5539 15.7053,119.9059 C15.5903,122.2229 17.6123,124.6299 20.0673,124.1599 C22.3283,124.3349 23.7793,121.8419 23.6833,119.8199 C23.7793,109.5109 23.6833,97.1539 23.7123,86.8579 C24.2983,86.8449 26.9763,86.8329 27.5533,86.8329 C27.6353,97.1209 27.4233,109.4539 27.6483,119.7379 C27.4883,121.6409 28.9793,122.8829 30.1273,124.1599 C30.9823,124.1599 32.6803,124.1839 33.5233,124.1839 C35.0243,122.7309 35.9683,120.8039 35.8183,118.6759 C35.8623,108.7459 35.8293,91.9579 35.8293,91.9579 L35.8183,52.1329 L35.9003,52.2369 C39.7833,55.8269 47.2563,55.4609 47.2563,55.4609 C56.5723,55.3409 57.4563,45.6599 57.4733,42.1839 C57.4773,41.4229 57.4403,40.9539 57.4403,40.9539 C57.3673,38.0239 54.3633,38.1699 54.3633,38.1699"/>
  </g>
</svg>
