<svg xmlns="http://www.w3.org/2000/svg" width="85" height="79" viewBox="0 0 85 79">
  <path fill="#606060" fill-rule="evenodd" d="M58.9043,68.0249 L58.9043,56.7249 L64.4563,66.0869 L65.5193,68.0249 L58.9043,68.0249 Z M46.5143,36.2079 L46.1343,36.2079 L45.6603,36.2079 L44.0903,36.2079 C46.5933,35.7569 48.8603,34.6939 50.7143,33.1949 L50.7143,36.4899 L50.7143,68.0249 L49.7793,68.0249 L49.7793,36.4899 C48.7543,36.3119 47.6703,36.2079 46.5143,36.2079 L46.5143,36.2079 Z M32.1283,68.0249 L32.1283,36.7519 L32.1283,33.2689 C33.9653,34.7309 36.2003,35.7649 38.6643,36.2079 L38.4333,36.2079 L38.0993,36.2079 L37.5793,36.2079 C35.9423,36.2079 34.4413,36.4069 33.0623,36.7519 L33.0623,68.0249 L32.1283,68.0249 Z M18.6973,68.0249 L19.1413,67.1599 L24.8843,57.4759 L24.8843,68.0249 L18.6973,68.0249 Z M27.4293,10.7979 L27.4293,20.3479 C27.2223,21.2499 27.1083,22.1839 27.1083,23.1439 C27.1083,24.1039 27.2223,25.0389 27.4293,25.9409 L27.4293,38.4329 C27.0393,38.6299 26.6703,38.8419 26.3053,39.0559 C22.8943,41.0639 20.5873,43.7609 19.1413,45.9379 C17.7473,48.0359 17.1453,49.6449 17.1453,49.6449 L10.8533,60.2539 L10.8533,10.7979 L27.4293,10.7979 Z M32.1283,13.0199 L32.1283,10.7979 L36.0603,10.7979 C34.6173,11.3399 33.2933,12.0929 32.1283,13.0199 L32.1283,13.0199 Z M50.7143,10.7979 L50.7143,13.0929 C49.5273,12.1339 48.1743,11.3539 46.6943,10.7979 L50.7143,10.7979 Z M73.5003,60.4559 L67.0893,49.6449 C67.0893,49.6449 66.3153,47.5519 64.4573,45.0179 C62.7163,42.6459 60.0073,39.9009 56.0973,38.1109 C55.8683,38.0059 55.6503,37.8919 55.4123,37.7939 L55.4123,25.4829 C55.5573,24.7229 55.6463,23.9439 55.6463,23.1439 C55.6463,22.3439 55.5573,21.5659 55.4123,20.8049 L55.4123,10.7979 L73.5003,10.7979 L73.5003,60.4559 Z M84.1653,0.0139 L73.5003,0.0139 L0.0693,0.0139 L0.0693,0.3639 L0.0693,10.7979 L0.0693,68.0249 L0.0693,77.7489 L0.0693,78.8099 L0.2823,78.8099 L12.2313,78.8099 L25.7853,78.8099 L58.4493,78.8099 L72.0033,78.8099 L83.9523,78.8099 L84.1653,78.8099 L84.1653,77.3999 L84.2843,77.3999 L84.2843,0.0139 L84.1653,0.0139 Z"/>
</svg>
