<svg xmlns="http://www.w3.org/2000/svg" width="77" height="62" viewBox="0 0 77 62">
  <path fill="#606060" fill-rule="evenodd" d="M51.917,39.624 C51.917,40.109 51.523,40.504 51.037,40.504 L43.444,40.504 L43.444,48.097 C43.444,48.583 43.049,48.978 42.563,48.978 L33.76,48.978 C33.274,48.978 32.88,48.583 32.88,48.097 L32.88,40.504 L25.287,40.504 C24.801,40.504 24.407,40.109 24.407,39.624 L24.407,30.82 C24.407,30.334 24.801,29.94 25.287,29.94 L32.88,29.94 L32.88,22.348 C32.88,21.861 33.274,21.467 33.76,21.467 L42.563,21.467 C43.049,21.467 43.444,21.861 43.444,22.348 L43.444,29.94 L51.037,29.94 C51.523,29.94 51.917,30.334 51.917,30.82 L51.917,39.624 Z M24.759,6.285 C24.759,5.767 25.153,5.346 25.639,5.346 L50.684,5.346 C51.17,5.346 51.564,5.767 51.564,6.285 L51.564,12.476 C51.564,12.994 51.17,13.415 50.684,13.415 L25.639,13.415 C25.153,13.415 24.759,12.994 24.759,12.476 L24.759,6.285 Z M71.202,2.937 C66.434,2.512 58.915,1.575 58.915,1.575 C58.915,1.575 57.71,0.13 55.782,0.13 L51.566,0.13 L51.566,0.899 L24.757,0.899 L24.757,0.13 L20.541,0.13 C18.614,0.13 17.409,1.575 17.409,1.575 C17.409,1.575 9.846,2.566 5.122,2.937 C0.062,3.335 0.062,7.219 0.062,7.219 L0.062,58.723 C0.062,60.182 1.244,61.363 2.703,61.363 L37.527,61.363 L38.796,61.363 L73.621,61.363 C75.079,61.363 76.262,60.182 76.262,58.723 L76.262,7.219 C76.262,7.219 76.262,3.39 71.202,2.937 L71.202,2.937 Z"/>
</svg>
