<svg xmlns="http://www.w3.org/2000/svg" width="168" height="67" viewBox="0 0 168 67">
  <g fill="none" fill-rule="evenodd">
    <path fill="#606060" d="M134.7324 27.5381L126.4344 29.0871C125.6574 29.2321 124.9104 28.7211 124.7654 27.9441 124.6204 27.1671 125.1314 26.4191 125.9094 26.2741L134.2074 24.7251C134.9844 24.5801 135.7314 25.0921 135.8764 25.8691 136.0214 26.6451 135.5094 27.3931 134.7324 27.5381L134.7324 27.5381zM115.4574 36.3911L122.5874 33.0951 120.2774 36.1741 122.8774 39.0231 115.4574 36.3911zM115.6674 41.2061L112.8194 43.8051 115.4454 36.4011 108.3194 39.6951 110.6304 36.6161 108.0314 33.7671 115.4464 36.3971 115.4474 36.3941 112.1554 29.2711 115.2354 31.5831 118.0844 28.9841 115.4554 36.3961 118.7474 43.5171 115.6674 41.2061zM101.4754 36.4111C99.9104 36.4111 98.6414 35.3421 98.6414 34.0231 98.6414 32.7041 99.9104 31.6341 101.4754 31.6341 103.0404 31.6341 104.3084 32.7041 104.3084 34.0231 104.3084 35.3421 103.0404 36.4111 101.4754 36.4111L101.4754 36.4111zM86.4754 38.8001C84.9104 38.8001 83.6414 37.7301 83.6414 36.4111 83.6414 35.0921 84.9104 34.0231 86.4754 34.0231 88.0404 34.0231 89.3084 35.0921 89.3084 36.4111 89.3084 37.7301 88.0404 38.8001 86.4754 38.8001L86.4754 38.8001zM70.4754 41.1881C68.9104 41.1881 67.6414 40.1191 67.6414 38.8001 67.6414 37.4801 68.9104 36.4111 70.4754 36.4111 72.0404 36.4111 73.3084 37.4801 73.3084 38.8001 73.3084 40.1191 72.0404 41.1881 70.4754 41.1881L70.4754 41.1881zM53.9754 41.1881C52.4104 41.1881 51.1414 40.1191 51.1414 38.8001 51.1414 37.4801 52.4104 36.4111 53.9754 36.4111 55.5404 36.4111 56.8084 37.4801 56.8084 38.8001 56.8084 40.1191 55.5404 41.1881 53.9754 41.1881L53.9754 41.1881zM37.8084 41.1881C36.2444 41.1881 34.9754 40.1191 34.9754 38.8001 34.9754 37.4801 36.2444 36.4111 37.8084 36.4111 39.3734 36.4111 40.6414 37.4801 40.6414 38.8001 40.6414 40.1191 39.3734 41.1881 37.8084 41.1881L37.8084 41.1881zM21.3084 38.8001C19.7444 38.8001 18.4754 37.7301 18.4754 36.4111 18.4754 35.0921 19.7444 34.0231 21.3084 34.0231 22.8734 34.0231 24.1414 35.0921 24.1414 36.4111 24.1414 37.7301 22.8734 38.8001 21.3084 38.8001L21.3084 38.8001zM20.1384 7.5211L25.4524 8.3911 26.3534 8.3911 26.3534 13.8371 19.6364 13.0611 20.1384 7.5211zM31.2184 8.8041C33.9034 8.8041 36.2154 8.5711 38.4334 8.9241 39.2634 9.0571 40.4424 10.5691 40.4244 11.4311 40.4074 12.2711 39.1544 13.6661 38.2894 13.7981 36.0584 14.1361 33.7424 13.9111 31.2184 13.9111L31.2184 8.8041zM44.3214 9.3911C47.0144 9.0461 49.8374 9.0851 52.5024 9.5941 53.1714 9.7221 53.4184 12.0641 54.0084 13.8371L43.2254 13.8371C43.6324 12.0691 43.8144 9.4551 44.3214 9.3911L44.3214 9.3911zM121.8654 20.9741C123.9934 20.0491 125.6424 19.3321 127.2914 18.6151 127.2104 18.1421 127.1284 17.6681 127.0464 17.1941 125.5234 17.1941 123.9924 17.0941 122.4774 17.2101 102.9274 18.7091 83.3474 19.9151 63.8504 21.9271 56.3504 22.7011 49.0064 25.2011 41.6734 27.2151 40.0964 27.6471 38.8754 29.3751 36.5904 31.2401 58.3564 32.6131 78.4334 31.0531 98.2784 26.3631 73.8734 34.3711 48.7944 33.1721 23.7494 31.9121 19.6714 31.7061 15.6174 30.3621 11.6394 29.2321 10.3594 28.8691 9.3634 27.5051 8.7744 27.0301 13.6344 28.2021 18.5694 29.6931 23.6134 30.5051 27.1134 31.0681 32.0104 32.2031 34.1164 30.4611 40.6444 25.0631 48.1524 23.1961 55.9434 21.3331 57.1734 21.0381 58.9104 17.5391 58.7054 17.3481 53.6224 12.5971 56.5864 9.6351 61.0864 6.4011 46.4834 4.2731 32.3334-.2439 17.3064 3.1431 17.7044 3.4111 17.4614 13.5961 17.2434 14.1001 15.0414 19.2061 12.4454 16.7491 8.4124 17.2341 7.1124 19.6571 6.2654 23.4661 4.6464 23.8291-.0896 24.8921.1704 28.2241.7054 31.0861 1.7884 36.8731 3.6354 42.5171 5.5644 49.6941 14.4774 42.6221 21.7674 44.8001 28.8834 49.6161 32.5064 52.0681 36.2814 52.1441 40.2694 50.4851 43.0234 49.3401 45.8224 48.0031 48.7204 47.5891 51.3014 47.2211 54.7434 47.0631 56.5994 48.4391 64.4814 54.2831 72.5744 54.0491 81.1324 50.7111 85.0804 49.1721 88.7424 49.3891 92.5084 51.7391 96.8784 54.4651 101.7004 57.2691 107.0104 55.1581 115.6324 51.7311 123.7344 51.4911 131.6564 56.8591 133.8604 58.3531 135.4144 57.4321 136.0914 54.9291 136.9574 51.7311 138.1014 48.5831 138.6574 45.3341 140.1224 36.7661 141.3334 28.1541 142.8294 18.3511 135.0754 19.3211 128.7004 20.1191 121.8654 20.9741L121.8654 20.9741zM158.7871 28.4302C158.5741 29.1912 157.7841 29.6352 157.0231 29.4222L148.8941 27.1462C148.1331 26.9332 147.6891 26.1432 147.9021 25.3822 148.1151 24.6212 148.9051 24.1772 149.6661 24.3902L157.7951 26.6662C158.5561 26.8792 159.0001 27.6692 158.7871 28.4302M167.4741 30.3542C164.7331 25.5002 150.7411 17.5422 144.5361 18.4882 142.2351 30.7252 139.9321 44.9722 137.4871 57.9752 140.9761 56.9242 144.0481 55.9152 147.1641 55.0782 152.8131 53.5632 157.8751 54.2302 161.6481 59.1892 162.4661 57.8782 163.7301 56.6542 164.0081 55.2372 165.4411 47.9232 166.6461 40.5652 167.8461 33.2082 167.9961 32.2902 167.9141 31.1352 167.4741 30.3542"/>
    <path fill="#000" d="M161.7969,59.376 C161.7479,59.31 161.6969,59.253 161.6489,59.189 C161.6439,59.197 161.6379,59.204 161.6329,59.212 L161.7969,59.376 Z"/>
    <path fill="#000" d="M161.6328,59.2119 L161.6448,59.2849 C161.6948,59.3179 161.7478,59.3459 161.7998,59.3789 L161.7968,59.3759 C161.7968,59.3769 161.7978,59.3769 161.7978,59.3779 L161.6328,59.2119 Z"/>
    <path fill="#606060" d="M142.8906,58.2383 C137.9146,60.3453 133.2576,59.5413 128.6616,56.6883 C123.9446,53.7603 118.6746,52.6843 113.4096,54.9923 C105.9056,58.2823 98.9296,57.7103 92.0796,53.3193 C88.5606,51.0633 84.9016,50.3973 80.8046,52.3813 C73.0276,56.1463 65.6006,55.2863 58.0336,50.9603 C55.2006,49.3403 50.5266,48.5373 47.7106,49.7423 C39.2556,53.3603 31.4916,53.9163 23.7686,48.4423 C23.5056,48.2553 23.1266,48.2383 22.8476,48.0683 C17.2986,44.6693 12.2156,47.2173 7.3246,49.6153 C6.2226,50.1553 5.9976,52.4843 5.3696,53.9893 C5.7596,54.2693 6.1496,54.5483 6.5386,54.8283 C12.1186,51.0113 18.6206,49.6453 24.0166,52.9313 C32.2286,57.9323 39.9116,57.0163 48.3186,54.4893 C51.0206,53.6773 55.1446,53.6563 57.1586,55.1903 C64.7866,61.0013 72.7116,60.3243 80.8336,57.4943 C85.4926,55.8703 89.8526,56.1273 93.7206,58.7083 C100.2406,63.0583 106.7986,62.9383 113.6176,59.9883 C118.9356,57.6883 123.8436,58.1693 128.7796,61.2483 C133.8466,64.4093 139.4886,65.0793 145.0846,62.9523 C151.1386,60.6523 156.8776,58.7713 161.2586,66.8433 L162.5856,65.2703 C162.2726,63.2753 161.9576,61.2803 161.6446,59.2853 C155.6046,55.4623 149.3676,55.4953 142.8906,58.2383"/>
    <path fill="#000" d="M161.6328,59.2119 L161.7978,59.3779 C161.7978,59.3769 161.7968,59.3769 161.7968,59.3759 L161.6328,59.2119 Z"/>
    <path fill="#606060" d="M140.9834,8.3486 L137.7614,6.5896 L141.2874,5.5986 L139.9974,6.8456 L140.9834,8.3486 Z M137.5044,8.8216 L136.0014,9.8076 L137.7554,6.5936 L134.2324,7.5836 L135.5234,6.3366 L134.5374,4.8336 L137.7554,6.5916 L137.7554,6.5906 L136.7674,3.0696 L138.0144,4.3606 L139.5164,3.3736 L137.7604,6.5916 L138.7504,10.1126 L137.5044,8.8216 Z M143.2504,0.6896 L142.6654,0.6896 L125.0824,5.0296 L141.5594,13.7006 L143.2504,0.6896 Z"/>
    <polygon fill="#FFF" points="137.757 6.591 137.757 6.592 137.758 6.592"/>
    <polygon fill="#FFF" points="137.759 6.593 137.758 6.593 137.758 6.595 137.761 6.592 137.759 6.587 137.757 6.591 137.758 6.593"/>
    <polygon fill="#FFF" points="137.758 6.592 137.757 6.592 137.756 6.593"/>
    <polygon fill="#FFF" points="137.758 6.592 137.758 6.592 137.759 6.592"/>
    <path fill="#606060" d="M146.3145,0.6392 L145.7205,0.5582 C145.5175,0.5312 145.3285,0.6752 145.3005,0.8792 L143.2115,16.2752 C143.1845,16.4782 143.3285,16.6682 143.5325,16.6952 L144.1265,16.7762 C144.3295,16.8042 144.5185,16.6602 144.5455,16.4562 L146.6345,1.0592 C146.6625,0.8562 146.5185,0.6672 146.3145,0.6392"/>
  </g>
</svg>
