<svg xmlns="http://www.w3.org/2000/svg" width="129" height="75" viewBox="0 0 129 75">
  <g fill="#606060" fill-rule="evenodd">
    <path d="M65.125 33.0005C64.931 33.0955 64.633 33.1445 64.583 33.2815 64.301 34.0635 63.595 34.5085 63.166 35.1625 62.433 36.2775 61.678 37.3665 60.625 38.2145 60.556 38.2715 60.494 38.3975 60.504 38.4835 60.588 39.2115 59.984 39.5725 59.637 40.0455 58.854 41.1175 57.979 42.1225 57.178 43.1815 56.647 43.8815 56.204 44.6485 55.67 45.3475 55.413 45.6855 55.017 45.9145 54.726 46.2315 54.555 46.4175 54.522 46.7525 54.332 46.8905 53.856 47.2355 53.201 47.2855 52.965 48.0125 52.802 48.5175 52.375 48.9375 52.05 49.4185 53.088 49.9375 54.173 50.0775 55.049 50.7105 54.753 50.7805 54.491 50.7565 54.242 50.6845 53.625 50.5045 53.016 50.2965 52.399 50.1175 52.286 50.0845 52.141 50.1105 52.028 50.1545 51.988 50.1705 51.961 50.3805 51.995 50.4015 52.582 50.7895 52.586 51.2795 52.228 51.8035 53.304 52.4575 54.304 53.1325 55.364 53.6935 56.787 54.4475 58.244 55.1395 59.708 55.8095 61.363 56.5665 63.039 57.2795 64.712 57.9935 66.032 58.5575 67.367 59.0865 68.687 59.6505 68.924 59.7515 69.121 59.9475 69.342 60.1045 69.349 59.9955 69.368 59.7945 69.37 59.5935 69.385 58.2435 69.421 56.8925 69.398 55.5425 69.387 54.8765 69.576 54.3405 69.967 53.7985 72.965 49.6415 75.936 45.4635 78.915 41.2925 80.335 39.3045 81.755 37.3145 83.224 35.2585 82.602 35.0615 82.04 34.8755 81.474 34.7045 80.07 34.2835 78.675 33.8335 77.258 33.4625 75.978 33.1275 74.677 32.8655 73.378 32.6025 71.638 32.2485 69.955 31.5755 68.13 31.6625 67.87 31.6745 67.601 31.5065 67.336 31.4225L67.083 31.4225C66.914 31.4655 66.746 31.5315 66.574 31.5455 65.679 31.6215 65.131 32.1735 65.125 33.0005M126.7251 58.9185C121.6541 57.2765 116.5661 55.6835 111.5171 53.9775 106.5301 52.2935 101.4621 50.9815 96.2501 50.2455 94.3061 49.9715 92.4821 49.3615 90.7611 48.4315 90.2341 48.1465 90.2321 47.9595 90.6501 47.5305 90.9271 47.2455 91.2211 46.9605 91.4321 46.6275 92.3561 45.1685 93.2561 43.6925 94.1561 42.2165 94.2621 42.0435 94.3631 41.8365 94.3761 41.6395 94.4431 40.6725 94.4841 39.7025 94.5201 38.7335 94.5281 38.5415 94.4731 38.3475 94.4471 38.1535 94.3841 38.1315 94.3211 38.1095 94.2591 38.0865 92.2321 40.3475 90.8231 43.0885 88.8631 45.4035 88.2691 44.9235 87.5721 44.9265 87.1981 45.4865 86.5721 46.4235 85.9701 47.3985 85.5281 48.4315 85.0341 49.5865 84.5451 50.6295 83.4191 51.3765 81.3991 52.7175 79.4801 54.2095 77.5341 55.6585 77.3251 55.8145 77.0931 56.0975 77.0791 56.3345 76.9531 58.4195 76.8721 60.5075 76.7831 62.5955 76.7791 62.7005 76.8211 62.8075 76.8571 62.9955 77.2171 62.5755 77.4951 62.2075 77.8171 61.8835 80.1391 59.5485 82.4501 57.2035 84.8131 54.9105 85.3761 54.3625 85.9051 53.5015 86.9621 53.9595 87.0241 53.9865 87.1211 53.9195 87.2041 53.9135 88.0311 53.8525 88.9261 53.5645 89.6741 53.7805 91.6331 54.3465 93.6041 54.9765 95.4331 55.8655 98.6711 57.4395 101.8701 59.0705 105.3131 60.1805 108.9381 61.3485 112.5281 62.6245 116.1411 63.8305 118.3121 64.5545 120.5001 65.2315 122.6771 65.9395 123.4741 66.1985 124.2611 66.4865 125.0531 66.7615L125.8131 66.7615C126.4411 66.2845 126.7541 65.6305 126.9791 64.8875 127.4451 63.3485 127.9711 61.8295 128.4731 60.3015L128.4731 60.0475C128.0551 59.4165 127.4091 59.1395 126.7251 58.9185"/>
    <path d="M88.3423 35.6147C87.4613 35.2187 86.6183 34.8417 85.6813 34.4207 80.9553 41.0427 76.2523 47.6307 71.4973 54.2947 72.3703 54.6367 73.1753 54.8987 73.9293 55.2667 74.5163 55.5537 74.8113 55.4017 75.1583 54.8917 78.3823 50.1467 81.6313 45.4187 84.8733 40.6847 86.0163 39.0157 87.1583 37.3447 88.3423 35.6147M89.4082 36.7256C89.3712 36.7076 89.3332 36.6906 89.2962 36.6736 85.2782 42.5246 81.2602 48.3746 77.2412 54.2246 79.3702 52.8616 81.4012 51.4246 83.4252 49.9776 83.5422 49.8936 83.6342 49.7436 83.6872 49.6036 84.0182 48.7426 84.2822 47.8506 84.6672 47.0156 85.2112 45.8346 85.9142 44.7676 87.1952 44.2256 87.3392 44.1646 87.4282 43.8986 87.4822 43.7106 87.7512 42.7806 88.0002 41.8436 88.2572 40.9096 88.6402 39.5146 89.0242 38.1206 89.4082 36.7256M74.1616 56.1357C73.1706 55.7337 72.1616 55.3727 71.1146 54.9837 71.0496 55.2177 70.9636 55.3937 70.9586 55.5727 70.9106 57.2607 70.8446 58.9487 70.8526 60.6367 70.8556 61.3147 70.9186 62.0917 71.6616 62.4117 72.4186 62.7377 73.2346 62.9287 74.0916 63.1997 74.2006 60.9277 74.3096 58.7787 74.3966 56.6287 74.4036 56.4617 74.2896 56.1877 74.1616 56.1357M89.4155 38.9497C88.8675 40.8287 88.3185 42.7087 87.7185 44.7627 88.5635 43.8227 89.4045 43.1437 89.3285 41.8587 89.2715 40.9037 89.4605 39.9327 89.5405 38.9697 89.4985 38.9627 89.4575 38.9567 89.4155 38.9497M7.9365 29.1245C7.5755 28.0345 7.2145 26.9445 6.8535 25.8545 6.7915 25.8675 6.7285 25.8795 6.6665 25.8925 6.8525 27.9165 7.0385 29.9415 7.2245 31.9655L6.9865 32.0615C6.3135 31.4365 5.6415 30.8115 4.9685 30.1865L4.9685 22.5835C5.4665 23.0055 6.1325 23.3355 6.4235 23.8705 6.8365 24.6285 6.9735 25.5385 7.2275 26.3825L7.6345 26.3215C7.6345 26.1175 7.6625 25.9085 7.6275 25.7105 7.5835 25.4635 7.4345 25.2285 7.4235 24.9845 7.3615 23.4695 6.5085 22.5495 4.9685 22.3725L4.9685 4.4205 8.9815 4.4205C8.7425 4.6585 8.5365 4.9485 8.2565 5.1205 8.0095 5.2715 7.6825 5.2935 7.3905 5.3725 7.4135 5.4635 7.4365 5.5545 7.4595 5.6455 7.7645 5.6645 8.1095 5.7865 8.3685 5.6855 9.9415 5.0725 11.5635 5.2665 13.1845 5.2615 13.4735 5.2605 13.7615 4.7145 14.0505 4.4205L15.7395 4.4205C15.9585 4.8025 16.1785 5.1845 16.4045 5.5695 16.2355 6.1725 16.0865 6.8075 15.3185 6.0275 15.2195 5.9275 14.9795 5.9135 14.8165 5.9375 12.9235 6.2095 11.0255 6.4555 9.1475 6.8125 8.7335 6.8905 8.3965 7.3755 8.0245 7.6725 8.0645 7.7795 8.1045 7.8865 8.1445 7.9935 9.7895 7.5985 11.3745 7.5695 12.8595 8.6585 12.0985 9.0335 11.3485 9.3765 10.6245 9.7695 9.8995 10.1615 8.9165 10.2495 8.5915 11.2665 9.7645 11.4675 10.8065 11.6465 11.8395 11.8255L11.8395 12.3825C12.3925 12.1105 12.9045 11.8585 13.3515 11.6385 13.4985 12.1785 13.6495 12.7305 13.7375 13.0535 14.3385 12.5595 14.8535 12.1345 15.4315 11.6595 15.5045 11.0365 15.5985 10.2455 15.7015 9.3725 15.9045 9.6055 16.0725 9.7975 16.2405 9.9905L16.4905 9.8385C16.2855 9.4605 16.0795 9.0835 15.8515 8.6645 16.1865 8.7025 16.5025 8.7385 16.9575 8.7905 17.0175 8.3095 17.0785 7.8125 17.1395 7.3155 17.0165 7.2915 16.8945 7.2665 16.7715 7.2425 16.5835 7.5545 16.3955 7.8665 16.2485 8.1105 15.8725 8.0195 15.5635 7.9455 15.1425 7.8435 16.0105 7.8045 15.4515 6.0485 17.0125 6.9415 16.7095 6.2855 16.5435 5.9245 16.3785 5.5645 17.1915 5.5475 16.9415 6.2675 17.1725 6.6665 17.3785 7.0225 17.7285 7.2955 18.0145 7.6055 18.1975 7.3625 18.3705 7.1105 18.5695 6.8805 18.6495 6.7875 18.7865 6.6855 18.8965 6.6865 19.4955 6.6895 20.1825 6.5605 20.2365 7.3555 20.4955 6.9505 20.7725 6.5175 21.0715 6.0515 21.9765 7.0275 22.1135 7.0035 22.7355 5.9045 22.4705 5.9615 22.1965 6.0205 22.0135 6.0605 22.0675 5.6915 22.1545 5.4395 22.1255 5.2025 22.0935 4.9355 21.9565 4.6805 21.8645 4.4205L23.1315 4.4205C23.2365 4.6575 23.3415 4.8955 23.4525 5.1455 23.5595 4.9995 23.6475 4.8775 23.8975 4.5365 23.7345 6.2805 23.4705 7.6295 22.4605 8.8515 21.5945 9.8985 21.0685 11.2215 20.3155 12.3735 19.9035 13.0045 19.3185 13.5205 18.8415 14.1135 18.6965 14.2935 18.6525 14.5545 18.5615 14.7775 18.8235 14.8105 19.0855 14.8435 19.1845 14.8555 19.0965 15.2205 18.9815 15.6965 18.8665 16.1665 18.4085 16.1405 17.7605 15.9265 17.5375 16.1455 17.2495 16.4295 17.3015 17.0585 17.2075 17.5375 17.0475 17.7545 16.9055 17.9855 16.7275 18.1845 15.8735 19.1355 14.9955 20.0635 14.1555 21.0255 13.2025 22.1175 13.7505 23.3525 13.8935 24.5355 13.9665 25.1475 14.1305 25.7495 14.2965 26.5625 13.3295 24.8915 12.4085 23.4465 11.6415 21.9245 11.1395 20.9295 10.7865 19.9225 9.0935 20.4965 9.2485 18.8255 9.3805 17.3865 9.5135 15.9475 8.8565 18.7875 7.7105 21.5405 7.9585 24.6015 8.8035 23.4705 8.0975 21.8235 9.5015 20.7405 10.3045 22.0205 11.0585 23.2185 11.8075 24.4205 11.8575 24.5025 11.9215 24.6555 11.8855 24.7015 10.9865 25.8515 11.9015 26.6225 12.4305 27.4925 12.5465 27.6855 12.4745 27.9915 12.4895 28.2455 12.4885 28.2465 12.5205 28.2355 12.5205 28.2355 10.9555 28.3055 10.5435 26.7625 9.2835 25.8195 9.2295 26.9555 9.1865 27.8495 9.1415 28.7875 8.7455 28.9035 8.3305 29.0255 7.9155 29.1465L7.9365 29.1245zM21.4966 16.5303C23.1806 16.1473 22.0846 14.6943 22.6886 14.0013 22.5606 13.9473 22.4336 13.8933 22.3066 13.8393 22.0616 14.6553 21.8156 15.4703 21.4966 16.5303M29.4846 11.8533C30.2296 11.5933 30.6836 11.4363 31.1376 11.2783 31.2196 11.3693 31.3016 11.4603 31.3836 11.5513L31.3836 10.3013C30.7516 10.4113 30.2526 10.4973 29.7526 10.5843 29.7706 10.6643 29.7886 10.7443 29.8066 10.8233 29.9636 10.7673 30.1206 10.7113 30.4486 10.5943 30.0956 11.0563 29.8736 11.3453 29.4846 11.8533M37.9296 9.2593C37.2676 9.3873 36.7576 9.4863 35.9886 9.6343 36.3666 9.7703 36.5036 9.8193 36.6986 9.8883 36.4726 10.1673 36.2676 10.4223 36.0616 10.6763L36.3106 10.8933C36.5416 10.6273 36.7726 10.3603 36.9876 10.1133 37.0776 10.2873 37.2006 10.5253 37.3226 10.7633 37.4266 10.7653 37.5306 10.7673 37.6336 10.7693 37.7246 10.3053 37.8156 9.8413 37.9296 9.2593M37.2006 15.4133C37.0846 15.3983 36.9696 15.3833 36.8546 15.3683 36.7586 16.2043 36.6636 17.0393 36.5466 18.0583 37.1596 17.8703 37.5506 17.7513 38.2296 17.5423 36.7176 17.1083 37.5986 16.0473 37.2006 15.4133M33.9956 9.8163C33.4466 9.9453 32.9296 10.0663 32.4136 10.1873 32.4356 10.2583 32.4586 10.3273 32.4816 10.3983 32.6636 10.4253 32.8456 10.4513 33.0266 10.4783 33.0526 10.5423 33.0776 10.6063 33.1026 10.6703 32.7996 10.7913 32.4966 10.9133 32.1936 11.0353 32.3026 11.1453 32.4116 11.2553 32.5206 11.3653 33.4506 11.3223 34.4016 11.3023 33.9956 9.8163M43.8986 16.1793C44.3226 15.5113 44.3326 15.2973 43.8126 15.1793 44.1726 14.9403 44.4806 14.7353 45.0076 14.3843L43.4526 14.3843C43.3616 15.2973 43.2786 16.1373 43.1926 17.0063 43.5686 16.9573 43.8166 16.9553 44.0446 16.8863 44.2646 16.8203 44.4626 16.6843 44.6706 16.5783 44.4376 16.4583 44.2046 16.3373 43.8986 16.1793M32.4146 16.0693C32.4146 16.9613 32.4136 17.6933 32.4166 18.4263 32.4166 18.4553 32.4486 18.4853 32.5116 18.5933 32.9136 18.4793 33.3326 18.3603 33.7526 18.2413 33.7416 18.1543 33.7306 18.0663 33.7196 17.9783 33.4756 17.9203 33.2306 17.8623 32.7286 17.7433 33.2216 17.4293 33.4886 17.2593 33.8626 17.0223 33.5076 16.8993 33.2846 16.8223 33.0116 16.7273 33.3886 16.4623 33.6766 16.2593 33.9646 16.0563 33.9216 15.9613 33.8786 15.8653 33.8356 15.7703 33.3886 15.8643 32.9406 15.9583 32.4146 16.0693M40.1036 17.5013C40.0786 17.4353 40.0536 17.3683 40.0286 17.3023 40.3136 16.9783 40.6576 16.6863 40.8696 16.3193 41.0756 15.9613 41.2056 15.5313 41.2406 15.1223 41.2486 15.0183 40.7406 14.7323 40.5256 14.7803 40.2596 14.8413 39.8206 15.2243 39.8566 15.3583 40.0546 16.0793 39.2086 16.8653 40.0026 17.5173 40.0206 17.5313 40.0696 17.5073 40.1036 17.5013M31.7536 12.9993C31.5796 12.6343 31.4596 12.3813 31.3036 12.0533 29.9726 12.6623 30.3816 13.9513 30.2936 15.2933 30.8036 15.1503 31.1886 15.0423 31.5736 14.9333 31.3706 14.7343 31.1656 14.5343 30.9606 14.3333 31.1926 14.1443 31.4316 13.9483 31.7646 13.6763 31.3806 13.5283 31.1646 13.4453 30.6976 13.2653 31.2356 13.1303 31.5046 13.0623 31.7536 12.9993M38.5216 15.8303C39.3876 15.5623 39.3876 15.5623 39.2746 14.3593 37.7636 15.1013 38.0806 16.4203 38.1776 17.8063 38.6376 17.6743 39.0286 17.5613 39.4196 17.4493 39.4116 17.3683 39.4026 17.2883 39.3946 17.2073 39.1466 17.1293 38.8986 17.0503 38.5776 16.9493 38.9356 16.6653 39.2016 16.4543 39.5686 16.1623 39.1876 16.0423 38.9816 15.9763 38.5216 15.8303M43.2816 13.7533C43.5886 13.3873 43.8116 13.1233 44.0806 12.8033 44.3086 12.9983 44.5116 13.1723 44.9486 13.5463 44.8256 12.4253 44.7326 11.5853 44.6396 10.7443 43.7636 10.8383 43.1896 12.0953 43.2816 13.7533M25.5156 15.3883C25.4266 15.3813 25.3386 15.3733 25.2496 15.3653L25.2496 14.4393 25.2496 13.4713C24.6976 13.7863 24.3176 15.1773 24.6596 15.6763 24.8056 15.8873 25.3416 16.0093 25.6146 15.9183 26.3876 15.6593 26.5726 14.4013 25.9506 13.0773 25.7796 13.9863 25.6476 14.6873 25.5156 15.3883M30.7766 16.1663C30.6736 17.1843 30.5946 17.9673 30.5146 18.7493 30.6006 18.8203 30.6866 18.8903 30.7736 18.9613 31.2256 18.6543 31.8776 18.4403 32.0786 18.0143 32.3006 17.5413 32.2026 16.8473 32.0416 16.3103 31.9966 16.1563 31.2516 16.2113 30.7766 16.1663M42.8846 17.0903C42.9346 16.5553 42.9846 16.1083 43.0146 15.6583 43.0336 15.3723 43.1396 14.9523 42.9976 14.8263 42.7806 14.6323 42.3436 14.5133 42.0746 14.5983 41.8326 14.6753 41.5676 15.0553 41.5346 15.3283 41.4556 15.9733 41.5086 16.6343 41.5086 17.4053 42.0606 17.2793 42.5176 17.1743 42.8846 17.0903M24.5196 14.5153C24.3406 14.2593 24.1126 13.9323 23.8846 13.6053 23.5606 13.8443 23.1446 14.0243 22.9406 14.3403 22.7486 14.6373 22.6996 15.0883 22.7416 15.4533 22.7726 15.7303 23.0326 16.1833 23.2156 16.1963 23.5336 16.2183 23.9736 16.0423 24.1706 15.7963 24.3846 15.5293 24.3786 15.0873 24.5196 14.5153M39.4536 8.7743C39.1576 9.3823 39.0116 9.6833 38.8286 10.0593 38.7846 9.7273 38.7506 9.4703 38.7166 9.2133 38.6816 9.2153 38.6446 9.2173 38.6096 9.2193 38.5546 9.6413 38.4986 10.0643 38.4396 10.5193 39.1806 10.3353 39.8606 10.1673 40.6326 9.9753 40.6476 9.8603 40.6856 9.5493 40.7416 9.1053 40.8736 9.5293 40.9616 9.8103 41.1016 10.2583 41.3426 9.8813 41.4866 9.6543 41.6396 9.4133 41.7006 9.6153 41.7536 9.7923 41.8586 10.1363 41.9156 9.7263 41.9486 9.4943 41.9766 9.2983 42.1366 9.5063 42.2926 9.7093 42.4486 9.9113 42.5486 9.5563 42.6496 9.2003 42.8376 8.5343 42.9446 9.1723 42.9986 9.4953 43.0806 9.9833 43.1866 9.6753 43.2296 9.5493 43.3516 9.1953 43.4086 9.5133 43.4386 9.6823 43.4686 9.8513 43.5566 9.7863 43.6446 9.7213 43.7326 9.6553 43.6646 9.2693 43.5976 8.8823 43.5306 8.4953 42.7216 8.6913 41.9126 8.8883 41.0566 9.0953 40.9476 9.0663 40.7286 8.9663 40.5066 8.9573 40.3106 8.9493 40.0186 8.9803 39.9336 9.1063 39.7936 9.3133 39.7856 9.6103 39.6866 10.0103 39.6086 9.5923 39.5596 9.3373 39.4536 8.7743M38.4506 11.7643C37.8976 11.3543 37.3426 11.5713 37.1666 12.0693 36.9516 12.6803 36.8276 13.4583 37.0226 14.0453 37.2576 14.7493 37.8876 14.1403 38.3476 14.0823 39.6196 14.4333 39.0226 13.3393 39.2596 12.8713 39.5226 13.2733 39.7726 13.6553 40.0236 14.0383 40.1216 14.0023 40.2196 13.9663 40.3176 13.9293L40.3176 11.3913 40.1256 11.3623C40.0506 11.6753 39.9756 11.9883 39.8416 12.5483 39.7046 12.0753 39.7056 11.7803 39.5596 11.6523 39.3486 11.4653 39.0376 11.3633 38.7526 11.3063 38.6846 11.2923 38.5536 11.6033 38.4506 11.7643M42.3156 12.9193C42.4016 13.1183 42.4876 13.3193 42.5726 13.5183 42.7086 13.4443 42.9476 13.3863 42.9636 13.2913 43.0736 12.6383 43.1656 11.9783 43.1916 11.3183 43.1976 11.1733 42.9116 11.0173 42.7236 10.8303 42.5546 11.6513 42.4206 12.3013 42.2866 12.9513 42.3996 11.0483 42.3996 11.0483 40.7546 11.2663 40.7156 12.1283 40.6746 13.0153 40.6186 14.2363 41.3306 13.6833 41.8216 13.3023 42.3156 12.9193M33.5576 12.4213L32.0736 12.4213C31.9766 13.3443 31.8946 14.1163 31.7876 15.1393 32.3996 14.9373 32.8776 14.7793 33.3556 14.6213 33.5326 14.7323 33.7106 14.8433 33.7566 14.8723 34.0626 13.8373 34.3466 12.8813 34.6296 11.9253 34.5166 12.8753 34.4026 13.8253 34.2886 14.7763 34.4196 14.7983 34.5516 14.8203 34.6836 14.8423 34.8126 14.4223 34.9436 14.0013 35.0906 13.5243 35.1526 13.9103 35.2066 14.2483 35.2976 14.8143 35.6136 14.3983 35.7906 14.1633 35.8886 14.0353 36.0626 14.1563 36.2256 14.2703 36.3896 14.3843 36.4746 14.2243 36.6256 14.0683 36.6326 13.9053 36.6596 13.2223 36.6436 12.5373 36.6436 11.7823 36.0046 11.8353 35.3036 11.8933 34.5976 11.9573 34.2506 12.1123 33.9036 12.2663 33.5576 12.4213M35.6036 17.7503C36.8296 17.5623 35.7526 16.5203 36.2146 16.0303 36.2366 16.0083 35.9226 15.6653 35.7606 15.4763 35.7476 15.4623 35.6956 15.4813 35.6616 15.4853 35.5006 15.5183 35.3236 15.5183 35.1836 15.5913 34.8226 15.7793 34.3766 15.9303 34.1736 16.2363 34.0816 16.3733 34.4796 16.8433 34.6626 17.1573 34.7536 17.3133 34.8606 17.4583 35.0086 17.6803 34.5666 17.6063 34.2476 17.5513 33.7516 17.4673 34.4126 18.7153 35.0156 18.0963 35.6036 17.7503M29.9846 12.3283C29.6206 11.9603 29.2656 11.5833 28.8896 11.2273 28.5686 10.9233 28.2556 10.4633 27.8806 10.3963 27.3226 10.2973 27.1526 10.0173 26.8396 9.6113 26.5126 9.1873 25.7686 9.0833 25.0586 8.7753 24.9876 7.4793 24.9046 5.9503 24.8216 4.4203L49.7426 4.4203 49.7426 9.7003C49.0686 9.8053 48.3936 9.9103 47.8976 9.9883 48.2736 10.4593 48.7106 11.0093 49.1476 11.5583 48.4706 11.0473 48.2166 11.7073 47.8406 12.0303 47.7156 11.7103 47.5916 11.3893 47.4156 10.9373 47.4886 10.8933 47.7886 10.7123 48.1726 10.4803 46.6346 10.1163 46.5486 10.2003 46.5436 11.5933 46.5416 12.0933 46.4126 12.5913 46.3416 13.0903 46.3366 12.9203 46.3586 12.6083 46.3216 12.6013 45.3936 12.4213 45.8176 11.6943 45.7456 11.1843 45.7166 10.9793 45.7856 10.7603 45.8096 10.5483 45.7106 10.5303 45.6126 10.5123 45.5146 10.4943 44.9626 11.2653 45.1206 12.1913 45.1146 13.1443 45.5596 13.1163 45.9626 13.0913 46.3656 13.0653 46.8576 12.9993 47.3506 12.9333 47.8426 12.8663L49.7426 12.8683 49.7426 13.2903C48.2176 13.5853 46.6926 13.8793 45.0646 14.1933 45.0016 14.8173 44.8676 15.4743 44.9026 16.1213 44.9176 16.3863 45.3666 16.8823 45.5016 16.8453 46.2486 16.6413 46.9606 16.3063 47.7196 16.0023 47.7666 16.6783 48.2566 16.7003 48.9126 16.4793 49.1636 16.3953 49.4646 16.4613 49.7426 16.4583L49.7426 20.4713C48.6326 20.0653 48.6326 20.0653 48.8606 19.0243 47.3066 18.8863 45.4926 20.0683 44.1926 18.1593 44.1046 18.4053 44.0136 18.6593 43.8286 19.1733 43.6636 18.7133 43.5776 18.4703 43.4756 18.1853 43.3716 18.1803 43.2306 18.1473 43.1006 18.1713 42.7246 18.2413 42.2716 18.5143 41.9916 18.3893 40.0976 17.5443 38.2146 18.0763 36.3296 18.3283 34.3676 18.5893 32.4096 18.8773 30.3716 19.1643 30.2386 18.1693 30.1066 17.1823 29.9656 16.1283 30.9486 15.9633 31.9606 15.7943 32.9746 15.6243 32.9596 15.4983 32.9446 15.3723 32.9296 15.2463 29.0606 15.5933 25.2316 16.3553 21.3336 16.7513 21.2036 15.7433 21.0786 14.7893 20.9416 13.7333 22.4816 13.5163 24.0266 13.3173 25.5656 13.0773 27.0416 12.8483 28.5116 12.5773 29.9836 12.3253 29.8096 12.7653 29.6356 13.2053 29.4806 13.5963 29.2216 13.3473 28.9906 13.1263 28.7606 12.9053 28.6436 13.1953 28.5056 13.4783 28.4156 13.7773 28.2766 14.2433 28.1716 14.7183 28.0516 15.1903 28.0826 14.8273 28.1816 14.4533 28.1256 14.1043 28.0696 13.7563 27.8586 13.4323 27.7156 13.0973 27.3746 13.2893 26.8216 13.4143 26.7366 13.6843 26.5326 14.3423 26.5466 15.0683 26.4736 15.7653L26.8126 15.8633C26.9686 15.5633 27.1236 15.2623 27.2226 15.0723 27.4296 15.2253 27.6776 15.4093 27.9256 15.5933 27.9686 15.4573 28.0116 15.3213 28.0546 15.1883 28.2526 15.2953 28.4516 15.3983 28.6496 15.5023 28.7456 15.1053 28.8416 14.7073 28.9506 14.2563 29.0476 14.4403 29.1136 14.5973 29.2076 14.7343 29.3596 14.9553 29.5306 15.1633 29.6926 15.3763 29.8106 15.1473 30.0226 14.9203 30.0296 14.6873 30.0536 13.9023 30.0046 13.1153 29.9846 12.3283M45.5186 67.7803C45.8516 67.0453 46.1876 66.3113 46.5126 65.5723 46.5656 65.4513 46.5916 65.3043 46.5816 65.1733 46.4816 63.8443 46.3716 62.5173 46.5006 61.1613 46.5426 61.3533 46.5856 61.5463 46.6616 61.8913 46.7596 61.5483 46.8136 61.3613 46.8226 61.3293 47.0066 61.4333 47.1996 61.5433 47.3926 61.6523L47.3926 60.8293 46.4296 60.8293C45.7006 55.7723 44.6426 50.8293 44.9266 45.7323 45.1226 46.5833 45.3186 47.4333 45.5156 48.2833 45.6276 48.2883 45.7406 48.2943 45.8536 48.2993 45.1406 44.3083 47.0286 41.0033 48.2466 37.5203 48.3686 37.5563 48.4906 37.5923 48.6126 37.6273 47.7506 40.0443 46.3766 42.4193 46.1726 44.8903 45.9726 47.3183 45.6166 49.9223 46.2146 52.3973 46.3146 52.4063 46.4146 52.4163 46.5146 52.4263L49.7426 47.7163 49.7426 48.3493C49.1136 49.2253 49.1006 50.2623 48.8736 51.2643 48.5926 52.5073 48.4536 52.5073 49.7426 52.3633L49.7426 65.2453C49.2996 65.1963 48.8556 65.1453 48.2646 65.0783L48.2646 67.7803 45.5186 67.7803zM6.6582 67.7803C6.5172 66.5383 6.4082 65.2913 6.2282 64.0543 5.9522 62.1613 6.5512 60.4303 6.9722 58.6233 7.5092 56.3183 7.6542 53.9193 7.9102 51.5553 8.0022 50.7093 7.9252 49.8443 8.0542 48.9963 8.0542 51.2753 8.1652 53.5613 8.0232 55.8323 7.8792 58.1393 7.2802 60.3713 6.6632 62.6163 6.2852 63.9963 6.8452 65.6343 6.9872 67.1563 7.0072 67.3653 7.0492 67.5723 7.0802 67.7803L6.6582 67.7803z"/>
    <path d="M48.2642 67.7803L48.2642 65.0783C48.8562 65.1453 49.2992 65.1963 49.7432 65.2453L49.7432 67.7803 48.2642 67.7803zM4.9683 22.3721C6.5093 22.5491 7.3623 23.4701 7.4243 24.9841 7.4343 25.2281 7.5843 25.4641 7.6273 25.7111 7.6623 25.9091 7.6353 26.1171 7.6353 26.3211L7.2273 26.3831C6.9733 25.5381 6.8363 24.6291 6.4243 23.8711 6.1333 23.3361 5.4673 23.0051 4.9683 22.5831L4.9683 22.3721zM49.7427 52.3628C48.4537 52.5068 48.5927 52.5078 48.8737 51.2648 49.0997 50.2628 49.1137 49.2258 49.7427 48.3498L49.7427 52.3628zM47.8403 12.0308C48.2163 11.7068 48.4703 11.0468 49.1423 11.5578 49.3393 11.5018 49.5403 11.4458 49.7423 11.3898L49.7423 12.8678 47.8423 12.8668C47.8413 12.5878 47.8413 12.3098 47.8403 12.0308"/>
    <path d="M49.7427 11.3901C49.5407 11.4461 49.3387 11.5011 49.1417 11.5571 48.7107 11.0091 48.2737 10.4591 47.8977 9.9881 48.3937 9.9111 49.0687 9.8051 49.7427 9.7001L49.7427 11.3901zM17.519 33.3228C17.398 33.3348 17.277 33.3458 17.156 33.3568L17.156 35.8638C17.277 35.8618 17.398 35.8588 17.519 35.8568L17.519 33.3228zM19.65 27.3738C19.872 27.0078 20.078 26.6658 20.285 26.3248 20.239 26.2518 20.193 26.1798 20.147 26.1068 19.629 26.2848 19.111 26.4628 18.293 26.7428 18.616 26.1478 18.898 25.7168 19.089 25.2478 19.231 24.8958 19.327 24.4878 19.289 24.1208 19.277 24.0078 18.756 23.9478 18.687 23.9268 18.572 23.1088 18.413 22.2768 18.352 21.4368 18.316 20.9548 18.439 20.4608 18.49 19.9718 18.643 19.9248 18.794 19.8768 18.947 19.8298 19.755 20.7208 20.516 21.6608 21.382 22.4918 22.566 23.6298 23.812 24.7048 25.069 25.7628 25.488 26.1158 25.902 26.0838 26.296 25.5398 27.387 24.0338 28.548 22.5788 29.682 21.1038 29.755 21.1538 29.828 21.2048 29.9 21.2548 28.638 23.2518 27.401 25.2658 26.101 27.2378 25.555 28.0658 24.86 28.7948 24.258 29.5888 23.784 30.2138 23.165 30.1858 22.472 30.1488 20.069 30.0188 19.983 30.0928 20.081 32.4768 20.118 33.3678 20.394 34.2478 20.462 35.1408 20.49 35.5088 20.256 35.8968 20.142 36.2758 19.811 35.9848 19.332 35.7538 19.184 35.3888 18.957 34.8308 18.958 34.1798 18.757 33.5618 18.658 34.3138 18.674 35.1068 18.422 35.8028 18.225 36.3518 17.725 37.1488 17.307 37.1818 16.512 37.2468 16.372 36.3788 16.151 35.6928 15.781 34.5458 16.117 33.5228 16.572 32.5298 16.727 32.1918 17.286 31.7028 17.454 31.7738 17.846 31.9388 18.121 32.3938 18.424 32.7478 18.5 32.8358 18.506 32.9838 18.544 33.1038 18.637 33.1028 18.73 33.1018 18.823 33.1018 18.877 32.2358 18.932 31.3698 18.987 30.4768 18.162 30.6268 17.436 30.7578 16.513 30.9248 16.921 29.3278 18.072 29.2418 19.12 29.1058 20.189 28.9678 21.276 28.9558 22.465 28.8818 22.455 28.2838 22.496 27.8418 21.626 28.1788 20.717 28.5318 20.16 28.1608 20.214 27.2878 20.007 27.3198 19.815 27.3488 19.65 27.3738L19.65 27.3738zM35.9956 28.5205C36.1276 28.5455 36.2606 28.5715 36.3926 28.5965 36.5576 28.2075 36.8466 27.8145 36.8346 27.4305 36.8286 27.2385 36.2746 27.0635 35.9686 26.8805 35.8856 26.9565 35.8026 27.0325 35.7196 27.1075 35.8106 27.5785 35.9036 28.0495 35.9956 28.5205M33.2356 32.5175C33.1626 31.7545 33.0896 30.9905 33.0166 30.2275L32.6646 30.2625C32.4696 31.0505 32.1316 31.8485 33.2356 32.5175M33.7046 29.1145C33.9086 30.0405 34.2056 30.9585 34.2776 31.8955 34.3196 32.4415 34.0896 33.0615 33.8246 33.5655 33.4396 34.2975 32.7986 34.3275 32.2496 33.6595 31.8866 33.2175 31.6466 32.6735 31.3126 32.1095 31.0456 32.1705 30.7136 32.2465 30.2576 32.3505 30.2576 32.7475 30.3276 33.1755 30.2356 33.5665 30.1646 33.8725 29.8936 34.1315 29.7116 34.4115 29.4386 34.1775 29.0036 33.9915 28.9176 33.7025 28.2866 31.5645 30.0746 28.0895 32.1706 27.2265 33.1476 26.8245 33.9106 27.0845 34.5986 27.9615 34.4036 26.9645 34.7596 26.3255 35.6466 26.0675 36.4926 25.8215 37.2876 26.0525 37.8156 26.7325 38.4046 27.4935 38.1406 28.2485 37.6286 28.7295 37.8046 29.5955 38.0346 30.3145 38.0816 31.0465 38.1966 32.8215 38.7496 33.1395 40.2966 32.2605 40.5046 32.1425 40.8066 32.1895 41.0646 32.1605 41.0746 32.4485 41.1836 32.7815 41.0766 33.0155 40.6326 33.9735 39.7676 34.0295 38.8486 33.9825 37.9036 33.9345 37.3506 33.4165 37.1236 32.5695 36.9636 31.9685 36.9616 31.3265 36.8496 30.7095 36.7976 30.4225 36.6526 30.1535 36.4816 29.6955 36.1816 31.2455 35.9486 32.5415 35.6496 33.8235 35.6226 33.9355 35.1636 33.9475 34.8416 34.0205 34.4616 32.1155 35.8526 30.2955 34.7396 28.2145 34.7946 29.3215 34.5466 29.7825 33.6856 29.1375 32.9676 28.1045 32.5296 27.9805 31.7516 28.8275 31.1706 29.4605 30.7896 30.2765 30.2826 31.0695 31.0906 31.3375 31.4626 31.3085 31.6026 30.5705 31.8856 29.0825 32.2236 28.8835 33.7046 29.1145M32.0347 49.7246C33.0537 48.2986 32.7577 47.0056 31.3907 46.8046 31.6017 47.7626 31.7957 48.6416 32.0347 49.7246M35.9757 49.7286C36.1137 50.4736 36.3647 51.2166 36.3677 51.9616 36.3727 53.5046 35.4367 54.1076 34.0207 53.5806 31.7007 52.7186 29.6337 49.1486 30.1937 46.7976 30.3257 46.2456 30.8647 45.7906 31.2167 45.2906L31.4757 45.2056C33.4777 44.8446 34.2847 47.5926 33.7137 49.2946 33.5387 49.8126 33.2217 50.2836 32.8837 50.9446 33.4517 51.3596 34.0917 51.8276 34.7327 52.2946 34.8377 52.2226 34.9427 52.1506 35.0477 52.0786 34.9197 51.6066 34.8197 51.1256 34.6547 50.6686 34.5377 50.3456 34.2507 50.0676 34.1957 49.7436 34.1517 49.4846 34.2637 49.0646 34.4527 48.9416 34.6307 48.8256 35.0267 48.9486 35.2787 49.0686 35.5187 49.1836 35.6967 49.4296 35.9017 49.6176 35.9307 49.6516 35.9547 49.6896 35.9757 49.7286"/>
    <path d="M24.4736 51.3584C24.4926 48.9264 26.2676 46.9064 28.3396 47.1444 28.7276 47.1894 29.0716 47.6254 29.4346 47.8794 29.0746 48.0954 28.7256 48.4704 28.3516 48.4994 26.7506 48.6214 25.8326 50.0054 26.2746 51.7564 27.0256 54.7324 29.7756 55.7334 32.2926 53.9824 32.5766 53.7844 33.0376 53.8424 33.4166 53.7824 33.3836 54.1934 33.4806 54.6814 33.2926 55.0024 32.6226 56.1504 31.1336 56.6144 29.7436 56.4084 27.6366 56.0954 25.9666 55.1914 25.0166 53.2324 24.7366 52.6554 24.6496 51.9854 24.4736 51.3584M37.1514 43.7046C37.0574 43.7896 36.9694 43.9146 36.8504 43.9706 36.4524 44.1556 36.0434 44.3156 35.6384 44.4846 35.6404 44.0086 35.4924 43.4646 35.6704 43.0676 36.1954 41.8986 38.3434 40.8316 39.6534 40.9696 40.6064 41.0706 40.9954 41.8676 40.9574 43.3716 41.1964 42.9876 41.4014 42.5746 41.6874 42.2286 41.9214 41.9446 42.2504 41.7396 42.5374 41.4986 42.6744 41.8486 42.9264 42.1976 42.9274 42.5466 42.9284 43.3906 41.7924 44.5656 40.9344 44.7066 40.5694 44.7666 40.1984 44.7956 39.7644 44.8476 40.0094 45.7976 40.9174 46.6176 40.1734 47.8456 38.6214 46.8116 38.5904 44.7276 37.1514 43.7046M41.4956 30.9912C40.8556 31.2322 40.2006 31.7042 39.5886 31.6542 38.7896 31.5882 38.1886 30.1112 38.2746 28.9502 38.4026 27.2052 39.2286 26.3002 40.5116 26.6942 40.9196 26.8192 41.3296 27.5082 41.4036 27.9912 41.4816 28.5002 41.2136 29.1382 40.3506 28.8162 40.2816 28.4532 40.2076 28.0712 40.1166 27.5922 39.0916 28.7792 39.0996 29.6162 40.0496 30.6222 40.5586 30.5252 40.5136 28.5842 41.5686 30.2652 41.9476 29.2882 42.3496 28.2672 43.5566 28.6092 43.9406 28.7192 44.3236 29.4832 44.3736 29.9822 44.4736 30.9592 43.6956 31.7142 42.6296 31.9302 42.5156 32.0422 42.4016 32.1532 42.2876 32.2652 42.6076 32.4282 42.9306 32.7162 43.2466 32.7092 43.4646 32.7052 43.6616 32.2772 43.8926 32.0662 44.0546 31.9192 44.2596 31.8212 44.4456 31.7002 44.5796 31.9152 44.8086 32.1202 44.8306 32.3452 44.9086 33.1382 44.1976 33.8752 43.3616 33.9392 42.5616 34.0002 41.6686 33.1812 41.5616 32.2512 41.5046 31.7472 41.5076 31.2372 41.4956 30.9912M21.5952 48.2251C22.1382 49.0541 22.7212 49.8591 23.2072 50.7201 23.4202 51.0971 23.4362 51.5861 23.5412 52.0241 23.1042 52.0051 22.5252 52.1611 22.2542 51.9391 20.3502 50.3811 18.5072 48.7481 16.6532 47.1291 16.5022 46.9961 16.3202 46.7881 16.3202 46.6161 16.3202 46.1701 16.4132 45.7251 16.4692 45.2791 16.8092 45.4561 17.2272 45.5611 17.4732 45.8261 18.0142 46.4101 18.4652 47.0761 18.9582 47.7041 19.2142 48.0311 19.4812 48.3481 19.8222 48.5991 19.8222 46.9271 17.9912 45.4191 19.6332 43.6251 20.2162 45.0421 20.7452 46.3261 21.2742 47.6091 21.3812 47.8151 21.4882 48.0201 21.5952 48.2251M12.9619 35.043C12.9619 36.308 12.9959 37.261 12.9409 38.209 12.9239 38.49 12.6579 38.758 12.5059 39.032 12.2619 38.793 11.8509 38.582 11.8019 38.308 11.4609 36.359 11.7999 34.496 12.7539 32.767 12.8949 32.51 13.2809 32.389 13.5529 32.206 13.7139 32.495 13.9699 32.77 14.0159 33.076 14.1129 33.723 14.1009 34.387 14.3489 35.013 14.5399 33.791 14.7149 32.566 14.9329 31.349 14.9849 31.055 15.1339 30.751 15.3209 30.517 15.4439 30.363 15.7419 30.223 15.9129 30.267 16.0849 30.311 16.2349 30.573 16.3209 30.772 16.3849 30.918 16.3849 31.138 16.3219 31.288 15.5609 33.126 15.7759 35.064 15.6839 36.975 15.6689 37.298 15.4209 37.887 15.3089 37.881 14.8869 37.856 14.3009 37.757 14.0979 37.463 13.6589 36.828 13.4179 36.055 12.9619 35.043M37.1201 39.2378C38.1801 39.0238 39.0351 37.9608 39.0231 36.9338 39.0111 35.8238 38.1671 35.6958 37.3161 35.4598 37.2481 36.7628 37.1841 37.9918 37.1201 39.2378M36.0821 35.9468C35.7711 35.9078 35.6281 35.9188 35.5111 35.8698 35.2541 35.7638 35.0101 35.6278 34.7611 35.5038 34.8991 35.2408 34.9721 34.8868 35.1871 34.7298 36.2061 33.9878 38.5571 33.9828 39.5421 34.8298 39.9781 35.2048 40.3831 35.9248 40.3601 36.4698 40.2751 38.4578 38.8531 40.5848 37.0291 41.0748 36.0701 41.3328 35.7621 41.0068 35.8561 40.0208 35.9851 38.6758 36.0111 37.3218 36.0821 35.9468"/>
    <path d="M35.9756 49.729C35.9546 49.689 35.9306 49.652 35.9016 49.618 35.1486 48.344 34.4196 47.056 33.6316 45.804 33.3296 45.324 32.8416 44.877 33.4226 44.366 34.0066 43.851 34.5756 44.185 34.9266 44.718 35.6566 45.824 36.3166 46.975 37.0016 48.109 37.1886 48.419 37.3636 48.736 37.5436 49.05 37.6556 49.007 37.7676 48.963 37.8786 48.92 37.6726 48.299 37.5136 47.657 37.2476 47.062 37.0076 46.524 36.6006 46.059 36.3736 45.517 36.2866 45.307 36.4186 44.904 36.5906 44.722 36.6976 44.61 37.1246 44.664 37.3116 44.788 38.4386 45.54 39.4996 48.555 39.1196 49.814 38.8176 50.812 37.6296 51.16 36.8426 50.481 36.5536 50.231 36.2646 49.979 35.9756 49.729M41.9502 37.167C42.0492 37.24 42.1472 37.312 42.2452 37.385 43.0092 37.209 43.6102 36.836 43.7502 35.968 43.7722 35.831 43.7022 35.607 43.5982 35.539 43.4902 35.467 43.2082 35.468 43.1422 35.55 42.7232 36.072 42.3432 36.625 41.9502 37.167M41.4742 38.311C41.7562 38.953 41.8432 39.418 42.1222 39.667 42.2462 39.779 42.7562 39.446 43.0962 39.332 43.4462 39.214 43.8032 39.118 44.1572 39.013 44.0572 39.427 44.0892 39.975 43.8322 40.23 43.1902 40.864 42.4342 41.482 41.4182 41.006 40.3182 40.491 40.2902 39.318 40.3702 38.455 40.4942 37.106 40.8892 35.737 42.1152 34.809 42.9802 34.153 43.8142 34.05 44.5982 34.677 45.3852 35.305 45.0872 36.061 44.7762 36.754 44.2022 38.035 43.2132 38.684 41.4742 38.311M26.7427 36.8735C26.9957 38.3885 27.2917 39.7895 27.4377 41.2055 27.4997 41.8005 26.7957 41.9575 26.2007 41.5415 25.5097 41.0595 24.8057 40.5945 24.1087 40.1225 24.2347 39.9855 24.3617 39.8475 24.4887 39.7105 24.3747 40.3585 24.3157 41.0235 24.1247 41.6475 24.0337 41.9465 23.6917 42.1675 23.4627 42.4235 23.2957 42.1285 22.9967 41.8385 22.9847 41.5375 22.9297 40.1165 23.0957 38.6855 22.3657 37.3465 22.2317 37.1015 22.5057 36.6335 22.5917 36.2695 22.9927 36.3825 23.5487 36.3685 23.7647 36.6325 24.5237 37.5625 25.1647 38.5885 25.8837 39.6245 26.3367 38.7235 24.9097 37.5795 26.7427 36.8735M20.8096 39.6763C20.7306 39.0693 20.6636 38.5603 20.5986 38.0513 20.3146 38.1243 19.8706 38.1143 19.7816 38.2873 19.5666 38.7043 19.5186 39.2073 19.3736 39.8003 19.9836 39.7473 20.2876 39.7213 20.8096 39.6763M19.4676 40.9343C19.8806 41.3153 20.1696 41.7833 20.4386 41.7733 20.7336 41.7613 21.0176 41.3133 21.2956 41.0453 21.6626 40.6903 22.0196 40.3243 22.3806 39.9643 22.4066 40.4793 22.5226 41.0103 22.4376 41.5073 22.2566 42.5723 21.4906 43.0933 20.4756 43.2183 19.5326 43.3333 19.1226 42.5833 18.7366 41.9353 17.8246 40.4033 18.3096 37.8353 19.6196 37.0003 20.3676 36.5243 21.0186 36.6713 21.4806 37.4223 22.3546 38.8433 21.6866 40.1793 19.4676 40.9343"/>
    <path d="M29.0688 41.7549C28.4178 41.8799 28.0888 41.6099 28.0208 40.9499 27.8998 39.7759 27.7478 38.6069 27.6188 37.4339 27.5338 36.6659 27.2548 36.2479 26.3888 36.6069 26.0108 36.7629 25.5808 36.8769 25.1798 36.8649 24.8538 36.8549 24.5348 36.6279 24.2128 36.4979 24.4518 36.2379 24.6468 35.8379 24.9388 35.7459 25.8268 35.4669 26.7448 35.2609 27.6648 35.1159 28.4528 34.9909 29.2598 34.9509 30.0588 34.9459 30.5358 34.9429 31.0138 35.0809 31.5748 35.1679 31.3048 37.0539 29.6368 35.8199 29.0328 36.3169L29.0328 41.7929 29.0688 41.7549zM21.4756 32.8906C21.7046 32.9226 21.9346 32.9546 22.1646 32.9876L22.3566 31.6776C22.1406 31.6596 21.7486 31.5876 21.7356 31.6296 21.6126 32.0396 21.5536 32.4676 21.4756 32.8906L21.4756 32.8906zM26.8986 33.3686C27.0596 33.2986 27.2166 33.1836 27.3826 33.1706 27.6846 33.1466 27.9926 33.1826 28.2976 33.1936 28.1936 33.4936 28.1676 33.8606 27.9736 34.0806 27.1056 35.0666 24.8296 35.4296 23.5016 34.8276 22.9676 34.5866 22.4496 34.3096 21.9176 34.0456 21.9746 34.6256 22.0296 35.1926 22.0836 35.7606 21.9936 35.8306 21.9036 35.9016 21.8126 35.9726 21.5536 35.7626 21.1056 35.5816 21.0666 35.3366 20.8736 34.1146 20.6726 32.8716 20.7046 31.6426 20.7266 30.7826 21.7006 30.3976 22.6726 30.6746 23.3186 30.8586 23.6956 31.7756 23.3966 32.4986 23.2816 32.7766 23.0946 33.0256 22.9426 33.2856 24.4136 34.3686 25.6056 34.3796 26.8016 33.3376L26.8986 33.3686zM14.6567 42.7959C14.9537 41.3099 15.1937 39.9689 15.5157 38.6479 15.5667 38.4409 15.9897 38.3229 16.4287 38.0449 16.4737 38.6459 16.5367 39.0419 16.5257 39.4349 16.4777 40.9799 16.4237 42.5249 16.3327 44.0679 16.3117 44.4139 16.2097 44.8229 15.9897 45.0589 15.8937 45.1619 15.3487 44.9809 15.1107 44.7959 13.7677 43.7589 12.8697 42.3929 12.4667 40.7539 12.3787 40.3939 12.5997 39.6729 12.8617 39.5669 13.4497 39.3269 13.4657 39.9359 13.6157 40.3629 13.9007 41.1719 14.2857 41.9449 14.6567 42.7959M28.2983 50.0933C27.8753 51.3963 28.3713 52.4053 29.5243 52.8483 29.7083 52.9193 29.9413 52.8653 30.1513 52.8703 30.1553 52.6153 30.2683 52.2733 30.1453 52.1223 29.5873 51.4403 28.9633 50.8113 28.2983 50.0933M31.3543 52.9173C31.3433 53.9833 30.9103 54.3513 29.8343 54.2463 28.1373 54.0803 26.8113 52.1323 26.8143 50.9473 26.8163 50.3403 27.1723 49.4943 27.6453 49.2003 28.0513 48.9463 28.9163 49.1843 29.4613 49.4483 30.3773 49.8913 31.3633 51.8853 31.3543 52.9173M29.0937 45.5327C29.2237 45.8267 29.3547 46.1207 29.5087 46.4677 28.2087 46.9127 27.6297 45.9297 26.7377 45.3737 26.7957 45.7687 26.9217 46.0917 26.8597 46.3717 26.8047 46.6167 26.5747 46.9007 26.3487 47.0007 26.2337 47.0507 25.8387 46.7717 25.7727 46.5737 25.5017 45.7587 25.1927 44.9257 25.1277 44.0817 25.0887 43.5777 25.3407 42.8707 25.7157 42.5707 26.0457 42.3067 26.9067 42.2687 27.2057 42.5197 27.5637 42.8207 27.7557 43.5567 27.6947 44.0657 27.5877 44.9687 28.0967 45.1037 28.7307 45.2327 28.8517 45.3327 28.9727 45.4327 29.0937 45.5327"/>
    <path d="M29.0937 45.5327C28.9727 45.4327 28.8517 45.3327 28.7307 45.2327 28.2237 44.0137 28.2817 42.8497 29.0687 41.7557L29.0327 41.7927C29.5737 41.7737 30.1147 41.7557 30.6547 41.7387L30.6357 41.7217C31.2087 43.0957 31.0797 43.6337 30.0937 44.4217 30.3837 44.3047 30.7007 44.2307 30.9567 44.0627 31.4807 43.7207 31.9477 43.2887 32.4847 42.9717 32.7247 42.8307 33.0747 42.8767 33.3747 42.8367 33.2807 43.2017 33.2947 43.6697 33.0687 43.9117 32.6067 44.4067 32.0137 44.7817 31.4757 45.2057L31.2167 45.2907C30.5087 45.3707 29.8017 45.4517 29.0937 45.5327M26.8984 33.3682L26.8014 33.3372C26.5684 33.3912 26.3384 33.4792 26.1034 33.4922 25.3594 33.5312 24.4914 33.8222 24.0284 32.9752 23.5654 32.1302 23.6074 31.1492 24.2104 30.4322 24.5394 30.0402 25.2914 29.8422 25.8404 29.8622 26.1324 29.8732 26.6894 30.6162 26.6144 30.8902 26.4834 31.3722 25.9744 31.7622 25.5934 32.1622 25.4914 32.2692 25.2834 32.2742 25.1864 32.5702 25.5654 32.4512 25.9444 32.3322 26.3234 32.2102 26.7484 32.0732 27.1734 31.9332 27.5984 31.7942 27.4344 32.1982 27.2744 32.6042 27.1044 33.0062 27.0504 33.1332 26.9674 33.2472 26.8984 33.3682M24.1968 44.0718C24.5848 45.0448 25.0008 45.9618 25.2998 46.9158 25.3848 47.1908 25.1348 47.5708 25.0398 47.9028 24.7818 47.7088 24.4298 47.5678 24.2868 47.3108 23.8848 46.5908 23.5318 45.8358 23.2288 45.0678 22.9118 44.2698 22.3788 44.2288 21.7268 44.5478 21.2278 44.7918 20.7218 44.9178 20.5368 44.2798 20.4838 44.0958 20.9488 43.6078 21.2588 43.5038 22.0678 43.2308 22.9158 43.0468 23.7618 42.9258 24.0748 42.8818 24.4278 43.1148 24.7618 43.2218 24.5678 43.5138 24.3728 43.8068 24.1968 44.0718M41.0415 58.8911C40.7855 58.4921 40.3905 58.1201 40.3055 57.6871 40.1785 57.0471 40.2725 56.3631 40.2725 55.5511L42.1535 55.5511 44.0395 55.5511C44.4705 57.1581 44.1205 58.9581 43.0055 59.3251 42.8025 58.7991 42.5985 58.2731 42.3705 57.6861 42.8915 57.8751 43.3145 58.0301 43.7235 58.1791 43.6335 57.7421 43.5595 57.3821 43.4715 56.9581 43.1415 57.0751 42.7785 57.2031 42.3385 57.3581 42.5605 56.8471 42.7435 56.4241 42.9275 56.0011 42.8785 55.8551 42.8295 55.7091 42.7805 55.5631 42.3995 56.9181 41.8995 56.0011 41.3985 55.9311 41.6085 56.3971 41.7765 56.7681 42.0335 57.3381 41.4325 57.1071 41.0685 56.9671 40.6555 56.8081 40.7915 57.5421 40.9165 58.2171 41.0415 58.8911"/>
    <path d="M22.9106 48.416C23.0846 48.329 23.2586 48.243 23.4326 48.156 23.0436 47.463 22.6556 46.77 22.2656 46.078 22.1386 46.141 22.0106 46.203 21.8836 46.266 22.2256 46.982 22.5686 47.699 22.9106 48.416M21.5956 48.225C21.4886 48.02 21.3806 47.815 21.2736 47.609 21.2036 47.095 21.0606 46.577 21.0896 46.069 21.1086 45.74 21.3026 45.276 21.5576 45.146 21.8276 45.009 22.3206 45.093 22.6136 45.26 23.4956 45.762 24.2216 47.93 23.9116 48.926 23.7416 49.473 22.9506 49.595 22.4586 49.133 22.1546 48.848 21.8816 48.529 21.5956 48.225M17.8403 38.8818L17.8403 44.4238C17.4893 44.1318 16.9853 43.9228 16.9033 43.6058 16.5233 42.1188 16.3193 40.6108 17.1963 39.1858 17.2753 39.0578 17.1673 38.8298 17.2013 38.6598 17.2663 38.3368 17.3723 38.0208 17.4623 37.7018 17.6713 37.7758 18.0493 37.8348 18.0583 37.9268 18.0843 38.2188 17.9933 38.5298 17.9033 38.8198 17.8713 38.9218 17.7123 38.9828 17.8403 38.8818M34.0015 38.4189C33.7225 38.5079 33.4465 38.5959 33.0815 38.7119 33.2175 38.3429 33.3135 38.0849 33.4115 37.8199 33.0055 37.8579 32.6855 37.8889 32.3645 37.9189 32.4555 38.1309 32.5435 38.3369 32.6835 38.6649 32.3065 38.5599 32.0595 38.4919 31.7955 38.4189 31.8135 38.7899 31.8295 39.0969 31.8445 39.4099 32.1495 39.3009 32.4455 39.1949 32.8125 39.0639 32.6445 39.4079 32.5255 39.6499 32.3915 39.9239 32.7625 39.8959 33.0865 39.8709 33.4355 39.8449 33.3375 39.6029 33.2415 39.3659 33.1105 39.0439 33.4605 39.1279 33.7415 39.1959 34.0015 39.2579L34.0015 38.4189zM31.5125 37.4439L34.2375 37.4439C34.3915 38.4509 34.5435 39.4939 33.5875 40.2389 33.3165 40.4499 32.7105 40.5719 32.4645 40.4139 31.4335 39.7519 31.2585 38.7109 31.5125 37.4439L31.5125 37.4439zM41.0415 58.8911C40.9165 58.2171 40.7915 57.5421 40.6555 56.8081 41.0685 56.9671 41.4325 57.1071 42.0335 57.3381 41.7765 56.7681 41.6085 56.3971 41.3985 55.9311 41.8995 56.0011 42.3995 56.9181 42.7805 55.5631 42.8295 55.7091 42.8785 55.8551 42.9275 56.0011 42.7435 56.4241 42.5605 56.8471 42.3385 57.3581 42.7785 57.2031 43.1415 57.0751 43.4715 56.9581 43.5595 57.3821 43.6335 57.7421 43.7235 58.1791 43.3145 58.0301 42.8915 57.8751 42.3705 57.6861 42.5985 58.2731 42.8025 58.7991 43.0055 59.3251L41.0415 58.8911zM7.9155 29.147C8.0615 29.221 8.3295 29.288 8.3345 29.371 8.4625 31.543 8.5655 33.717 8.6665 35.891 8.6695 35.963 8.6105 36.039 8.3805 36.107L7.9365 29.124 7.9155 29.147zM17.207 17.5376C17.301 17.0586 17.249 16.4296 17.537 16.1456 17.76 15.9266 18.408 16.1406 18.867 16.1666 18.313 16.6276 17.76 17.0826 17.207 17.5376M30.6548 41.7383C31.9828 41.5613 33.3108 41.3843 34.9218 41.1703 34.6108 41.5383 34.4508 41.8883 34.2948 41.8863 33.0758 41.8703 31.8578 41.7873 30.6378 41.7233 30.6358 41.7223 30.6548 41.7383 30.6548 41.7383M8.4331 42.7612L8.4331 37.4122C8.4861 37.4132 8.5381 37.4142 8.5911 37.4152L8.5911 42.7322C8.5381 42.7412 8.4861 42.7512 8.4331 42.7612M12.521 28.2358L12.489 28.2458C12.553 28.3608 12.617 28.4778 12.681 28.5948 12.633 28.6068 12.586 28.6188 12.538 28.6318 12.532 28.4998 12.527 28.3678 12.521 28.2358M47.8403 12.0308C47.8413 12.3098 47.8413 12.5878 47.8423 12.8668 47.3503 12.9328 46.8583 12.9998 46.3653 13.0658L46.3413 13.0908C46.4123 12.5918 46.5423 12.0928 46.5433 11.5938 46.5483 10.1998 46.6343 10.1168 48.1723 10.4798 47.7883 10.7128 47.4883 10.8938 47.4153 10.9378 47.5913 11.3898 47.7153 11.7098 47.8403 12.0308M35.604 17.75C35.335 17.245 35.067 16.74 34.815 16.265 35.551 16.687 35.602 16.098 35.65 15.488 35.695 15.481 35.748 15.462 35.76 15.477 35.923 15.666 36.236 16.008 36.215 16.03 35.752 16.52 36.829 17.563 35.604 17.75M33.7051 29.1143C32.2231 28.8833 31.8851 29.0823 31.6021 30.5713 31.4621 31.3083 31.0911 31.3373 30.2821 31.0703 30.7891 30.2773 31.1701 29.4603 31.7511 28.8273 32.5291 27.9803 32.9671 28.1043 33.6851 29.1373L33.7051 29.1143z"/>
    <path d="M3.167,71.595 L51.98,71.595 L51.98,2.878 L3.167,2.878 L3.167,71.595 Z M0.323,74.438 L54.823,74.438 L54.823,0.034 L0.323,0.034 L0.323,74.438 Z"/>
  </g>
</svg>
