<svg xmlns="http://www.w3.org/2000/svg" width="111" height="61" viewBox="0 0 111 61">
  <g fill="#606060" fill-rule="evenodd">
    <path d="M71.5684 3.3096C50.0774 3.3096 32.6544 5.2716 32.6544 7.6906L32.6544 9.9486C32.6544 10.6746 34.2374 11.3596 37.0204 11.9636L37.0204 48.9156C37.0204 49.3476 38.2194 49.6976 39.7004 49.6976 41.1804 49.6976 42.3814 49.3476 42.3814 48.9156L42.3814 12.8436C45.8954 13.2926 50.2104 13.6596 55.0794 13.9156L55.0794 59.4316C55.0794 59.9136 56.4164 60.3006 58.0644 60.3006 59.7144 60.3006 61.0504 59.9136 61.0504 59.4316L61.0504 14.1656C64.3974 14.2716 67.9224 14.3306 71.5684 14.3306 74.0014 14.3306 76.3764 14.3026 78.6834 14.2546L78.6834 45.9636C78.6834 46.3946 79.8834 46.7446 81.3634 46.7446 82.8434 46.7446 84.0444 46.3946 84.0444 45.9636L84.0444 14.0976C90.7944 13.8406 96.7134 13.3806 101.2284 12.7826L101.2284 56.1416C101.2284 56.6226 102.5654 57.0106 104.2144 57.0106 105.8634 57.0106 107.2004 56.6226 107.2004 56.1416L107.2004 11.7096C109.3044 11.1696 110.4834 10.5746 110.4834 9.9486L110.4834 7.6906C110.4834 5.2716 93.0604 3.3096 71.5684 3.3096M14.8428 21.8701C13.7918 21.8701 12.7688 21.8911 11.7798 21.9281L11.7798 2.4171C11.7798 1.3171 10.8798.4171 9.7798.4171L2.1898.4171C1.0888.4171.1898 1.3171.1898 2.4171L.1898 24.4241C.1898 24.4311.1918 24.4361.1918 24.4431.1918 24.4451.1898 24.4481.1898 24.4501L.1898 25.9951C.1898 26.3401.5808 26.6691 1.2798 26.9701L1.2798 51.9961C1.2798 52.3951 1.6078 52.7231 2.0068 52.7231 2.4058 52.7231 2.7338 52.3951 2.7338 51.9961L2.7338 27.4471C3.7348 27.7051 4.9968 27.9291 6.4488 28.1081L6.4488 54.8041C6.4488 55.2031 6.7768 55.5301 7.1758 55.5301 7.5758 55.5301 7.9038 55.2031 7.9038 54.8041L7.9038 28.2671C9.9688 28.4641 12.3318 28.5751 14.8428 28.5751 17.2318 28.5751 19.4798 28.4731 21.4718 28.2941L21.4718 51.0261C21.4718 51.4271 21.7988 51.7541 22.1978 51.7541 22.5988 51.7541 22.9258 51.4271 22.9258 51.0261L22.9258 28.1461C24.6868 27.9401 26.1708 27.6691 27.2868 27.3521L27.2868 55.1881C27.2868 55.5881 27.6138 55.9151 28.0138 55.9151 28.4128 55.9151 28.7398 55.5881 28.7398 55.1881L28.7398 26.8091C29.2248 26.5531 29.4968 26.2801 29.4968 25.9951L29.4968 24.4501C29.4968 23.0251 22.9368 21.8701 14.8428 21.8701"/>
  </g>
</svg>
