<svg xmlns="http://www.w3.org/2000/svg" width="109" height="73" viewBox="0 0 109 73">
  <g fill="#606060" fill-rule="evenodd">
    <path d="M40.8794 6.1357L49.1444 6.1357C50.7094 6.1357 51.9774 4.8667 51.9774 3.3027 51.9774 1.7377 50.7094.4687 49.1444.4687L40.8794.4687C39.3154.4687 38.0464 1.7377 38.0464 3.3027 38.0464 4.8667 39.3154 6.1357 40.8794 6.1357M27.9409 67.2168C24.5499 67.2168 21.8009 64.4688 21.8009 61.0778 21.8009 57.6878 24.5499 54.9388 27.9409 54.9388 31.3319 54.9388 34.0799 57.6878 34.0799 61.0778 34.0799 64.4688 31.3319 67.2168 27.9409 67.2168M27.9409 50.0068C21.8359 50.0068 16.8699 54.9728 16.8699 61.0778 16.8699 67.1828 21.8359 72.1488 27.9409 72.1488 34.0459 72.1488 39.0119 67.1828 39.0119 61.0778 39.0119 54.9728 34.0459 50.0068 27.9409 50.0068M83.2964 67.2168C79.9054 67.2168 77.1564 64.4688 77.1564 61.0778 77.1564 57.6878 79.9054 54.9388 83.2964 54.9388 86.6874 54.9388 89.4354 57.6878 89.4354 61.0778 89.4354 64.4688 86.6874 67.2168 83.2964 67.2168M83.2964 50.0068C77.1914 50.0068 72.2254 54.9728 72.2254 61.0778 72.2254 67.1828 77.1914 72.1488 83.2964 72.1488 89.4004 72.1488 94.3674 67.1828 94.3674 61.0778 94.3674 54.9728 89.4004 50.0068 83.2964 50.0068"/>
    <path d="M80.2676,28.6152 C80.2626,32.2172 76.4846,38.5532 70.9276,39.8192 C65.3816,38.5442 61.5866,32.2612 61.5856,28.6312 C61.5846,24.2092 61.5856,18.3082 61.5856,18.3082 L80.2716,18.3082 C80.2716,18.3082 80.2736,24.2462 80.2676,28.6152 L80.2676,28.6152 Z M42.7506,31.3402 C42.7506,34.1832 39.1316,34.7012 39.1316,34.7012 L23.1046,34.7012 C15.8676,34.7012 20.7786,29.0132 20.7786,29.0132 L26.4656,22.5522 C28.5336,19.9672 32.4106,19.9672 32.4106,19.9672 L39.1316,19.9672 C41.7166,19.9672 42.7506,22.0342 42.7506,22.0342 L42.7506,31.3402 Z M102.2026,7.9362 L48.2636,7.9362 L40.0326,7.9362 L36.1786,7.9362 C36.1786,7.9362 34.4826,7.8362 32.1526,10.0842 C32.1526,10.0842 -0.3224,38.8122 0.4826,49.8052 C0.4826,53.3632 3.3666,61.0782 6.9246,61.0782 L14.4546,61.0782 C14.4546,53.6402 20.5036,47.5912 27.9406,47.5912 C35.3776,47.5912 41.4276,53.6402 41.4276,61.0782 L69.8096,61.0782 C69.8096,53.6402 75.8596,47.5912 83.2966,47.5912 C90.7326,47.5912 96.7826,53.6402 96.7826,61.0782 L102.2026,61.0782 C105.7606,61.0782 108.6436,58.1932 108.6436,54.6362 L108.6436,14.3782 C108.6436,10.8202 105.7606,7.9362 102.2026,7.9362 L102.2026,7.9362 Z"/>
    <path d="M77.4058,30.5781 L70.9278,27.9201 L77.4058,25.2991 L75.2188,27.9341 L77.4058,30.5781 Z M70.9058,32.2061 L68.2638,34.3921 L70.9168,27.9291 L64.4438,30.5471 L66.6308,27.9111 L64.4438,25.2671 L70.9178,27.9251 L70.9188,27.9221 L68.3018,21.4521 L70.9378,23.6391 L73.5808,21.4521 L70.9258,27.9241 L73.5428,34.3921 L70.9058,32.2061 Z M62.5978,19.4741 C62.5978,19.4741 62.5968,24.7341 62.5978,28.6781 C62.5988,31.9171 65.9828,37.5151 70.9268,38.6541 C75.8828,37.5261 79.2528,31.8751 79.2568,28.6641 C79.2618,24.7671 79.2598,19.4741 79.2598,19.4741 L62.5978,19.4741 Z"/>
  </g>
</svg>
