<svg xmlns="http://www.w3.org/2000/svg" width="73" height="72" viewBox="0 0 73 72">
  <g fill="#606060" fill-rule="evenodd">
    <path d="M25.6973 20.0854L20.3293 20.0854 20.3293 25.4544C20.3293 26.6894 19.3273 27.6904 18.0923 27.6904 16.8563 27.6904 15.8543 26.6894 15.8543 25.4544L15.8543 20.0854 10.4863 20.0854C9.2513 20.0854 8.2503 19.0844 8.2503 17.8484 8.2503 16.6134 9.2513 15.6114 10.4863 15.6114L15.8543 15.6114 15.8543 10.2434C15.8543 9.0074 16.8563 8.0064 18.0923 8.0064 19.3273 8.0064 20.3293 9.0074 20.3293 10.2434L20.3293 15.6114 25.6973 15.6114C26.9323 15.6114 27.9333 16.6134 27.9333 17.8484 27.9333 19.0844 26.9323 20.0854 25.6973 20.0854M32.8433.6294L3.3423.6294C1.9773.6294.8723 1.7344.8723 3.0974L.8723 32.5994C.8723 33.9624 1.9773 35.0674 3.3423 35.0674L32.8433 35.0674C34.2063 35.0674 35.3113 33.9624 35.3113 32.5994L35.3113 3.0974C35.3113 1.7344 34.2063.6294 32.8433.6294M62.6846 20.0854L47.4746 20.0854C46.2396 20.0854 45.2376 19.0844 45.2376 17.8484 45.2376 16.6134 46.2396 15.6114 47.4746 15.6114L62.6846 15.6114C63.9196 15.6114 64.9216 16.6134 64.9216 17.8484 64.9216 19.0844 63.9196 20.0854 62.6846 20.0854M69.8306.6294L40.3296.6294C38.9656.6294 37.8606 1.7344 37.8606 3.0974L37.8606 32.5994C37.8606 33.9624 38.9656 35.0674 40.3296 35.0674L69.8306 35.0674C71.1946 35.0674 72.2986 33.9624 72.2986 32.5994L72.2986 3.0974C72.2986 1.7344 71.1946.6294 69.8306.6294M25.6973 56.7607L10.4863 56.7607C9.2513 56.7607 8.2503 55.7597 8.2503 54.5237 8.2503 53.2887 9.2513 52.2867 10.4863 52.2867L25.6973 52.2867C26.9323 52.2867 27.9333 53.2887 27.9333 54.5237 27.9333 55.7597 26.9323 56.7607 25.6973 56.7607M18.0923 64.2457C16.7223 64.2457 15.6123 63.1357 15.6123 61.7667 15.6123 60.3977 16.7223 59.2867 18.0923 59.2867 19.4613 59.2867 20.5713 60.3977 20.5713 61.7667 20.5713 63.1357 19.4613 64.2457 18.0923 64.2457M18.0923 44.1637C19.4613 44.1637 20.5713 45.2737 20.5713 46.6427 20.5713 48.0117 19.4613 49.1217 18.0923 49.1217 16.7223 49.1217 15.6123 48.0117 15.6123 46.6427 15.6123 45.2737 16.7223 44.1637 18.0923 44.1637M32.8433 36.9857L3.3423 36.9857C1.9773 36.9857.8723 38.0907.8723 39.4537L.8723 68.9557C.8723 70.3187 1.9773 71.4247 3.3423 71.4247L32.8433 71.4247C34.2063 71.4247 35.3113 70.3187 35.3113 68.9557L35.3113 39.4537C35.3113 38.0907 34.2063 36.9857 32.8433 36.9857M62.6846 52.3481L47.4746 52.3481C46.2396 52.3481 45.2376 51.3471 45.2376 50.1111 45.2376 48.8761 46.2396 47.8741 47.4746 47.8741L62.6846 47.8741C63.9196 47.8741 64.9216 48.8761 64.9216 50.1111 64.9216 51.3471 63.9196 52.3481 62.6846 52.3481M62.6846 60.5351L47.4746 60.5351C46.2396 60.5351 45.2376 59.5341 45.2376 58.2981 45.2376 57.0631 46.2396 56.0611 47.4746 56.0611L62.6846 56.0611C63.9196 56.0611 64.9216 57.0631 64.9216 58.2981 64.9216 59.5341 63.9196 60.5351 62.6846 60.5351M69.8306 36.9851L40.3296 36.9851C38.9656 36.9851 37.8606 38.0901 37.8606 39.4531L37.8606 68.9551C37.8606 70.3191 38.9656 71.4241 40.3296 71.4241L69.8306 71.4241C71.1946 71.4241 72.2986 70.3191 72.2986 68.9551L72.2986 39.4531C72.2986 38.0901 71.1946 36.9851 69.8306 36.9851"/>
  </g>
</svg>
