<svg xmlns="http://www.w3.org/2000/svg" width="151" height="63" viewBox="0 0 151 63">
  <g fill="#606060" fill-rule="evenodd">
    <path d="M139.5088,52.1133 C137.0998,49.4473 125.3128,39.8093 121.9558,36.8193 C118.1028,33.3893 113.9778,32.7773 110.0568,32.4223 C106.3878,32.0883 21.4698,25.6113 10.5408,25.1263 C9.9828,25.1013 9.8038,23.6333 5.8978,24.0083 C6.0608,23.3753 6.3518,22.8293 6.8628,22.6323 C6.8628,22.6323 6.0528,20.8733 4.2168,20.9953 C2.3808,21.1183 1.2798,21.4853 1.2798,21.4853 C1.8918,21.8523 2.9918,23.1993 2.9918,24.0553 C2.9918,24.9123 3.2378,26.5033 3.2378,26.7473 C3.2378,26.9903 5.9298,27.2363 5.8078,26.7473 C5.8038,26.7333 5.7998,26.6953 5.7958,26.6753 C8.2018,26.4543 8.3878,28.2583 9.3168,28.2583 C10.2948,28.2583 106.1338,35.2753 109.9658,35.6223 C113.4298,35.9373 116.2798,36.5483 119.2568,39.1993 C122.4958,42.0833 133.3318,57.1473 136.4538,59.5363 C139.5708,61.9243 141.9108,62.5713 143.1658,61.8253 C144.6828,60.9233 142.1588,55.0413 139.5088,52.1133"/>
    <path d="M147.3994,20.9956 C145.5644,20.8736 144.7524,22.6316 144.7524,22.6316 C145.2644,22.8296 145.5564,23.3746 145.7174,24.0086 C141.8114,23.6336 141.6334,25.1016 141.0754,25.1266 C130.1484,25.6106 45.2274,32.0886 41.5594,32.4216 C37.6374,32.7766 33.7534,33.7406 29.9014,37.1716 C26.5454,40.1606 14.7604,49.8016 12.3484,52.4656 C9.6984,55.3946 7.1754,61.2756 8.6924,62.1786 C9.9474,62.9246 12.2854,62.2776 15.4064,59.8886 C18.5254,57.4996 29.3644,42.4356 32.6014,39.5526 C35.5794,36.8996 38.1884,35.9376 41.6494,35.6226 C45.4814,35.2756 141.3214,28.2576 142.3004,28.2576 C143.2284,28.2576 143.4144,26.4536 145.8214,26.6746 C145.8174,26.6956 145.8124,26.7326 145.8094,26.7476 C145.6854,27.2366 148.3784,26.9906 148.3784,26.7476 C148.3784,26.5026 148.6244,24.9126 148.6244,24.0556 C148.6244,23.1996 149.7244,21.8526 150.3364,21.4856 C150.3364,21.4856 149.2354,21.1186 147.3994,20.9956"/>
    <path d="M86.8574,23.2964 C86.8574,23.2964 84.9074,23.4954 84.3364,23.5294 C83.1434,23.6024 82.7484,24.9614 82.8164,26.0734 C83.0234,29.5504 85.0064,34.5714 87.6154,35.9664 C88.5164,36.4484 89.9074,36.6004 90.5054,35.3714 C91.1044,34.1524 90.1214,32.0804 89.2734,28.1254 C88.7874,25.8704 88.8474,26.0164 88.6634,25.4764 C88.2164,24.1554 87.7484,23.1624 86.8574,23.2964"/>
    <path d="M86.8809 23.5264C86.8779 23.5264 84.9329 23.7254 84.3509 23.7604 83.4419 23.7974 83.0449 24.8084 83.0379 25.8324 83.0379 25.9084 83.0419 25.9824 83.0469 26.0584 83.2349 29.4674 85.2519 34.4684 87.7249 35.7594 88.0849 35.9544 88.5329 36.0874 88.9529 36.0874 89.5079 36.0814 89.9889 35.8794 90.2969 35.2694 90.4059 35.0484 90.4539 34.7874 90.4539 34.4614 90.4619 33.2614 89.7139 31.2914 89.0459 28.1724 88.5559 25.9084 88.6219 26.0734 88.4429 25.5504 88.0319 24.2974 87.5719 23.4744 87.0149 23.5134 86.9719 23.5134 86.9339 23.5174 86.9039 23.5224L86.8579 23.2954 86.8809 23.5264zM88.9529 36.5514C88.4359 36.5514 87.9259 36.3934 87.5059 36.1704 84.7629 34.6734 82.8129 29.6324 82.5829 26.0894 82.5769 26.0014 82.5749 25.9144 82.5749 25.8324 82.5689 24.7364 83.0119 23.3954 84.3229 23.2974 84.8559 23.2654 86.6589 23.0834 86.8219 23.0674 86.8929 23.0514 86.9589 23.0504 87.0149 23.0504 88.0339 23.0894 88.4539 24.1734 88.8819 25.4014 89.0709 25.9564 89.0149 25.8304 89.4989 28.0774 90.1549 31.1734 90.9109 33.0934 90.9179 34.4614 90.9199 34.8324 90.8599 35.1704 90.7139 35.4724 90.3399 36.2454 89.6399 36.5514 88.9719 36.5514L88.9529 36.5514zM63.9365 22.9473C63.9365 22.9473 66.7005 23.2413 67.1595 23.5843 68.0835 24.2753 68.2315 25.4473 68.1345 26.6123 67.8105 30.5023 65.5495 34.5153 62.1215 36.0323 61.1865 36.4453 60.0255 36.1423 59.5375 35.1213 58.9535 33.8933 60.4845 32.5793 61.4255 28.6463 61.9635 26.4033 62.1655 24.5603 62.2135 23.9893 62.2595 23.4213 63.0495 22.7933 63.9365 22.9473"/>
    <path d="M62.4453,24.0083 C62.3943,24.5883 62.1913,26.4403 61.6513,28.6983 C60.8383,32.0533 59.6113,33.5863 59.6373,34.5413 C59.6373,34.7093 59.6713,34.8613 59.7463,35.0203 C60.0523,35.6603 60.6483,35.9733 61.2773,35.9773 C61.5303,35.9773 61.7873,35.9233 62.0273,35.8203 C65.3503,34.3553 67.5903,30.4103 67.9023,26.5933 C67.9183,26.3983 67.9273,26.2103 67.9273,26.0273 C67.9243,25.0963 67.7073,24.2813 67.0203,23.7703 C66.9073,23.6643 66.0683,23.4683 65.3403,23.3653 C64.5973,23.2503 63.9133,23.1763 63.9113,23.1763 L63.9363,22.9463 L63.8903,23.1743 C63.8153,23.1583 63.7403,23.1523 63.6623,23.1523 L63.6403,23.1523 C62.9893,23.1523 62.4533,23.6723 62.4453,24.0083 M59.3263,35.2193 C59.2223,35.0013 59.1743,34.7733 59.1743,34.5413 C59.2013,33.2683 60.4123,31.8983 61.1993,28.5913 C61.7333,26.3633 61.9343,24.5283 61.9803,23.9703 C62.0553,23.2913 62.7843,22.7013 63.6623,22.6883 C63.7613,22.6883 63.8683,22.6963 63.9813,22.7193 C64.2343,22.7553 66.6983,22.9923 67.2993,23.3963 C68.1493,24.0353 68.3923,25.0353 68.3913,26.0273 C68.3913,26.2263 68.3823,26.4263 68.3663,26.6303 C68.0323,30.5913 65.7483,34.6733 62.2153,36.2433 C61.9143,36.3753 61.5933,36.4393 61.2773,36.4403 C60.4933,36.4433 59.7113,36.0293 59.3263,35.2193"/>
    <path d="M144.8877,19.9438 C144.7547,18.8068 144.5427,17.6928 144.2107,16.6128 C145.5177,16.5678 146.7067,17.0898 147.0697,17.4498 C147.2927,17.6788 147.6067,18.4928 147.8057,19.2078 C146.9017,19.2168 145.8507,19.4858 144.8877,19.9438 M136.4407,35.4618 C130.3957,40.9018 121.0987,43.5938 111.5687,42.6628 C97.9527,41.3318 89.9097,32.4698 86.9257,24.7338 C87.9307,24.6438 88.9007,24.4678 89.1527,24.2098 C89.6367,23.7138 89.0547,22.8228 88.0737,22.6718 C87.7537,22.6218 87.0097,22.6718 86.2617,22.7528 C85.6907,20.7308 85.4797,18.8438 85.6337,17.2688 C85.6357,17.2528 85.6407,17.2348 85.6427,17.2158 C85.6817,17.1718 85.7267,17.1348 85.7607,17.0798 C86.0407,16.6418 86.0747,16.1768 85.9667,15.7518 C86.6147,13.7148 88.1277,11.6468 90.3797,9.7958 C95.1087,5.9078 108.3877,2.1458 119.6447,3.2458 C131.4747,4.4018 138.5397,9.1308 141.3787,15.3808 C141.3787,15.4178 141.3657,15.4498 141.3667,15.4868 C141.3917,15.6828 141.5167,15.9158 141.6847,16.1328 C142.4567,18.0958 142.8477,20.1938 142.8327,22.3758 C142.7927,27.1388 140.5257,31.7848 136.4407,35.4618 M65.5187,22.1418 C64.4287,22.0168 62.7967,21.9098 62.3247,21.9958 C61.3467,22.1718 60.7847,23.0748 61.2817,23.5578 C61.6357,23.9048 63.5317,24.0628 64.9417,24.0618 C62.1717,31.9458 54.0597,41.2928 40.0477,42.6628 C30.5187,43.5938 21.2187,40.9018 15.1757,35.4618 C11.0907,31.7848 8.8217,27.1388 8.7857,22.3758 C8.7687,20.2078 9.1267,18.1528 9.8467,16.2428 C10.0637,15.9958 10.2217,15.7168 10.2467,15.4868 C10.2547,15.4238 10.2347,15.3658 10.2317,15.3038 C12.9657,9.2968 19.7147,4.9378 31.4347,3.7918 C42.6937,2.6918 56.5057,5.9078 61.2367,9.7958 C63.4887,11.6468 65.0027,13.7148 65.6497,15.7518 C65.5397,16.1758 65.5747,16.6418 65.8547,17.0798 C65.8917,17.1388 65.9347,17.1768 65.9747,17.2238 C65.9757,17.2388 65.9807,17.2538 65.9827,17.2688 C66.1207,18.6838 65.9647,20.3508 65.5187,22.1418 M4.5467,17.4498 C4.9057,17.0918 6.0777,16.5738 7.3707,16.6108 C7.0517,17.6828 6.8457,18.7978 6.7217,19.9408 C5.7577,19.4848 4.7127,19.2168 3.8127,19.2078 C4.0107,18.4928 4.3227,17.6788 4.5467,17.4498 M150.0577,19.1428 C149.7847,17.8258 149.1027,16.3688 148.6267,15.8928 C147.6597,14.9278 145.0717,14.3198 143.2797,14.2558 C140.0647,7.4088 132.3687,2.2748 119.8607,1.0528 C109.8817,0.0768 95.4507,2.7758 88.9797,8.0938 C86.7677,9.9148 85.1937,11.9008 84.2877,13.9518 C82.1267,12.6798 78.6057,11.9038 75.8087,11.9038 C73.0107,11.9038 69.4887,12.6798 67.3257,13.9518 C66.4227,11.9008 64.8487,9.9148 62.6357,8.0938 C56.1657,2.7758 41.1987,0.6228 31.2217,1.5988 C18.7717,2.8148 11.3737,7.6178 8.2857,14.2578 C6.4967,14.3328 3.9467,14.9368 2.9897,15.8928 C2.5147,16.3688 1.8297,17.8258 1.5577,19.1428 C1.3777,20.0138 0.7417,20.7398 0.9997,21.2338 C1.6487,22.4648 2.7987,21.7798 3.3257,21.4408 C3.7347,21.2998 5.4687,21.5238 6.5817,22.3978 C6.6267,27.7858 9.1557,33.0058 13.7017,37.0998 C20.2947,43.0338 29.9737,45.8598 40.2627,44.8538 C48.8667,44.0128 56.5327,40.0738 61.8457,33.7678 C66.2457,28.5408 68.6707,22.1368 68.1747,17.0548 C68.1577,16.8858 68.1167,16.7158 68.0917,16.5468 C69.1597,15.9028 72.1337,15.1218 75.8087,15.1218 C79.6747,15.1218 82.6347,15.9638 83.5107,16.6158 C83.4917,16.7618 83.4547,16.9078 83.4407,17.0548 C83.2517,18.9838 83.4897,21.1028 84.0907,23.2758 C83.7517,23.7188 83.8037,24.6118 84.5707,24.7468 C85.6487,27.8368 87.4147,30.9698 89.7707,33.7678 C95.0837,40.0738 102.7477,44.0128 111.3527,44.8538 C121.6407,45.8598 131.3217,43.0338 137.9147,37.0998 C142.4607,33.0058 144.9897,27.7858 145.0337,22.3978 C146.1487,21.5238 147.8817,21.2998 148.2897,21.4408 C148.8197,21.7798 150.0527,22.6378 150.6587,21.2558 C150.8807,20.7448 150.2377,20.0138 150.0577,19.1428"/>
  </g>
</svg>
