<svg xmlns="http://www.w3.org/2000/svg" width="160" height="110" viewBox="0 0 160 110">
  <g fill="#606060" fill-rule="evenodd">
    <path d="M111.4961 49.2739C111.4771 49.2649 111.4601 49.2549 111.4421 49.2469L111.4681 49.2469 111.4961 49.2739zM158.1851 54.9569C155.3771 45.9479 149.4901 39.6629 140.8111 35.7459L138.4631 34.9259C133.3981 33.4109 128.4031 33.0779 123.3451 34.0999 118.2701 35.1249 113.7471 37.3019 109.7891 40.6209 105.6781 44.0679 101.7801 49.7559 101.3941 52.7529 106.1901 48.8049 113.7901 50.6009 115.2451 58.2139 118.9711 55.5719 121.6741 55.2059 124.9961 56.8949 128.1631 58.5029 129.0541 60.6959 127.8651 63.9549 124.1451 74.1549 115.7991 96.8269 112.0791 107.0269 111.8641 107.6179 111.6491 108.2079 111.4421 108.7739L113.9641 109.1739C114.0541 108.9289 114.2741 108.3229 114.4961 107.7169 118.2161 97.5169 126.5611 74.8449 130.2821 64.6449L132.4551 58.8519C134.9751 51.9419 137.4221 45.2319 139.8711 38.5189 144.4531 41.6919 147.4451 57.0329 144.8221 64.1149L143.5981 68.6359C146.0981 66.5239 148.8711 65.6279 152.0681 66.6819 155.3171 67.7529 156.9861 70.2019 157.7531 73.5929 159.9241 68.2499 160.0841 61.0469 158.1851 54.9569L158.1851 54.9569zM91.7817 57.4658C89.0777 54.5948 86.3567 51.7408 83.6747 48.8498 79.9397 44.8228 75.8397 41.2908 70.6567 39.2438 65.9597 37.3888 61.1037 37.4208 55.5707 38.0648 62.9257 43.6948 62.7887 49.9538 58.7447 56.6378 58.4457 56.6618 58.1477 56.6848 57.8487 56.7078 57.8487 55.1938 57.8287 53.6778 57.8527 52.1638 57.9127 48.3368 57.2527 44.7298 54.5257 41.8218 53.7057 40.9478 52.7617 40.1508 51.7567 39.4998 50.1367 38.4508 48.3447 39.1528 47.5837 40.9248 45.1637 46.5638 43.5817 52.4118 42.3087 58.4298 39.6327 71.0808 39.4117 83.8218 39.9837 96.6318 40.1407 100.1688 40.5607 103.6968 40.9327 107.2218 41.0857 108.6698 40.6507 109.2098 39.1237 109.1718 35.3817 109.0808 31.6347 109.1538 27.8887 109.1428 27.3847 109.1418 26.8797 109.0358 26.3397 108.9738 26.3507 83.7758 32.1787 60.3158 45.8037 38.8298 42.8947 37.6368 40.2707 38.5008 38.0127 40.0098 35.8587 41.4498 34.0737 43.4428 32.1207 45.1858 31.5167 45.7258 30.8957 46.2468 30.1557 46.8868 29.6867 41.3128 33.9807 36.6438 42.1717 34.0828 39.3577 32.3178 37.0487 30.6258 34.5327 29.3378 27.9167 25.9518 21.0157 26.2258 14.0457 28.1328 9.6137 29.3458 5.1707 30.5178.3417 31.8138.5737 31.0988.6017 30.5818.8667 30.2588 4.7497 25.5338 9.3007 21.8188 15.1827 19.6618 19.3097 18.1478 23.4307 17.5618 27.6927 18.0928 35.4117 19.0548 41.0947 23.1388 44.9027 29.8868 45.1587 30.3398 45.4577 30.7688 45.6987 31.2298 45.9067 31.6278 46.0607 32.0548 46.4197 32.4298 47.0417 30.0528 46.0207 27.8838 45.4307 25.7068 43.0737 16.9988 36.7827 11.8088 29.1487 7.9148 25.3577 5.9818 21.4967 4.1858 17.6557 2.0118 20.5927.2588 23.8727.8678 27.0047.8898 33.9027.9408 39.9017 3.4578 45.0487 8.0248 50.3227 12.7048 52.1687 18.9488 52.8667 26.1578 55.5987 22.3048 58.6067 19.5528 62.4917 17.8388 67.0767 15.8158 71.6937 15.1088 76.7487 16.1218 84.4657 17.6678 90.5067 21.6538 95.4597 27.5488 95.9707 28.1568 96.2337 28.9738 96.8287 30.1078 91.8927 28.6358 87.6127 27.2898 83.2907 26.0908 78.3727 24.7258 73.2787 24.3678 68.3007 25.1528 63.0547 25.9808 58.5547 28.7078 54.7167 32.5628 65.5947 27.7168 75.5057 28.6718 83.9367 37.4538 89.1967 42.9318 92.1547 49.5128 92.3477 57.1548 92.1587 57.2578 91.9697 57.3618 91.7817 57.4658"/>
  </g>
</svg>
