<svg xmlns="http://www.w3.org/2000/svg" width="88" height="69" viewBox="0 0 88 69">
  <g fill="#606060" fill-rule="evenodd">
    <path d="M43.9336,62.1094 C32.0736,62.1094 22.4586,52.4944 22.4586,40.6334 C22.4586,28.7734 32.0736,19.1594 43.9336,19.1594 C55.7946,19.1594 65.4096,28.7734 65.4096,40.6334 C65.4096,52.4944 55.7946,62.1094 43.9336,62.1094 M83.0886,13.7554 L62.7496,13.7554 L55.0816,2.7314 C55.0816,2.7314 54.0386,0.1264 47.2646,0.1264 L43.9386,0.1264 L43.9306,0.1264 L40.6036,0.1264 C33.8286,0.1264 32.7866,2.7314 32.7866,2.7314 L25.1186,13.7554 L4.7796,13.7554 C2.5126,13.7554 0.6756,15.5914 0.6756,17.8574 L0.6756,64.3754 C0.6756,66.6414 2.5126,68.4784 4.7796,68.4784 L83.0886,68.4784 C85.3556,68.4784 87.1926,66.6414 87.1926,64.3754 L87.1926,17.8574 C87.1926,15.5914 85.3556,13.7554 83.0886,13.7554"/>
    <path d="M43.9336,23.0566 C34.2266,23.0566 26.3566,30.9256 26.3566,40.6336 C26.3566,50.3416 34.2266,58.2106 43.9336,58.2106 C53.6416,58.2106 61.5116,50.3416 61.5116,40.6336 C61.5116,30.9256 53.6416,23.0566 43.9336,23.0566"/>
  </g>
</svg>
