<svg xmlns="http://www.w3.org/2000/svg" width="147" height="100" viewBox="0 0 147 100">
  <g fill="#606060" fill-rule="evenodd">
    <path d="M93.665 44.5664L70.931 39.6724C70.525 39.5894 70.258 39.1654 70.334 38.7244 70.411 38.2844 70.802 37.9944 71.207 38.0774L93.796 42.9414C93.45 42.0544 94.937 40.5074 95.187 40.3104 97.491 39.2664 99.896 39.0264 102.33 39.0074L102.33.6434.118.6434.118 65.3814 102.33 65.3814 102.33 50.1164C100.487 50.0614 97.977 49.0984 96.81 48.6194 95.162 47.8174 93.611 46.2334 93.665 44.5664M125.0386 23.168C128.9286 26.666 136.0686 24.226 136.7366 18.945 137.9476 13.672 131.7666 8.978 126.9536 11.223 122.1406 12.891 121.1566 20.022 125.0386 23.168"/>
    <path d="M140.894 27.7881C135.281 26.7111 129.454 27.5211 123.769 27.3091 116.813 28.3961 114.447 35.9601 110.491 40.7621 107.678 41.3691 104.73 41.0391 101.829 41.0591L101.829 47.6741C105.723 47.7791 109.627 47.7321 113.508 47.5091 116.591 45.1891 117.936 41.2401 120.476 38.3781 120.427 57.0801 120.485 75.7881 120.446 94.4861 120.227 96.5571 121.321 99.3911 123.844 99.1161 126.172 99.4911 128.389 97.7091 128.352 95.3151 128.379 84.3011 128.344 73.2721 128.359 62.2601L130.558 62.2601C130.68 73.5421 130.451 84.8341 130.662 96.1061 130.433 98.3501 132.77 99.3721 134.7 99.1041 137.049 99.1041 138.475 96.6851 138.475 94.5421 138.501 75.9931 138.475 57.4371 138.482 38.8871 139.034 38.8961 140.127 38.9211 140.684 38.9341 140.782 45.7241 140.582 52.5131 140.765 59.2961 140.672 60.7691 141.573 62.2241 143.186 62.2511 145.43 62.9681 146.773 60.4101 146.756 58.5231 146.789 51.4841 146.747 44.4511 146.773 37.4121 146.682 33.5201 145.331 28.5991 140.894 27.7881M95.8765 42.0596C95.8465 42.3956 95.8005 42.7556 95.7565 43.1226L96.8715 43.3316C97.2095 43.3966 97.4325 43.7216 97.3695 44.0606 97.3055 44.3986 96.9795 44.6226 96.6415 44.5576L95.6465 44.3716C95.6025 45.6506 95.8555 46.8666 97.2285 47.4816 98.7585 47.5726 100.2935 47.6316 101.8285 47.6736L101.8285 41.0596C99.8005 41.0736 96.0965 41.4016 95.8765 42.0596"/>
    <path d="M95.6465,44.3701 L96.6415,44.5571 C96.9795,44.6211 97.3055,44.3981 97.3695,44.0601 C97.4325,43.7221 97.2095,43.3961 96.8715,43.3321 L95.7565,43.1231 C95.7065,43.5341 95.6615,43.9541 95.6465,44.3701"/>
  </g>
</svg>
