<svg xmlns="http://www.w3.org/2000/svg" width="89" height="89" viewBox="0 0 89 89">
  <g fill="#606060" fill-rule="evenodd" transform="translate(-1)">
    <path d="M43.9453 9.2837C44.4983 9.2837 44.9453 9.7307 44.9453 10.2837L44.9453 21.0587C44.9453 21.6117 44.4983 22.0587 43.9453 22.0587 43.3923 22.0587 42.9453 21.6117 42.9453 21.0587L42.9453 10.2837C42.9453 9.7307 43.3923 9.2837 43.9453 9.2837zM26.8652 16.0308C26.5112 15.6068 25.8842 15.5488 25.4572 15.9038 25.0332 16.2578 24.9752 16.8878 25.3302 17.3118L31.3302 24.5058C31.5272 24.7428 31.8112 24.8648 32.0972 24.8648 32.3242 24.8648 32.5512 24.7888 32.7382 24.6328 33.1622 24.2788 33.2192 23.6478 32.8652 23.2238L26.8652 16.0308zM62.3301 16.0308L56.3301 23.2238C55.9761 23.6478 56.0331 24.2788 56.4571 24.6328 56.6441 24.7888 56.8711 24.8648 57.0971 24.8648 57.3841 24.8648 57.6681 24.7428 57.8651 24.5058L63.8651 17.3118C64.2201 16.8878 64.1621 16.2578 63.7381 15.9038 63.3121 15.5488 62.6831 15.6068 62.3301 16.0308M19.2012 27.0581C18.7552 26.7321 18.1302 26.8301 17.8052 27.2771 17.4782 27.7231 17.5772 28.3481 18.0232 28.6731L23.3562 32.5621C23.5342 32.6921 23.7402 32.7541 23.9442 32.7541 24.2532 32.7541 24.5562 32.6121 24.7532 32.3431 25.0792 31.8971 24.9802 31.2721 24.5342 30.9471L19.2012 27.0581zM75.8818 28.8003C75.6878 28.2823 75.1108 28.0243 74.5938 28.2153L67.6538 30.8183C67.1388 31.0123 66.8768 31.5883 67.0688 32.1063 67.2208 32.5073 67.6028 32.7543 68.0068 32.7543 68.1238 32.7543 68.2418 32.7343 68.3588 32.6913L75.2968 30.0883C75.8138 29.8943 76.0748 29.3183 75.8818 28.8003"/>
    <path d="M59.5049,84.4399 C59.6569,81.7909 59.2829,75.2919 59.3399,69.6839 C63.9749,62.9929 70.2799,57.5579 74.4579,50.5589 C75.2879,47.9269 72.6039,46.3509 71.1459,44.6429 C67.3549,41.1809 63.7339,37.4439 59.4589,34.5719 C56.0339,33.2079 52.8309,35.4129 52.3829,38.8139 C50.4879,36.7879 47.7999,35.5149 44.8099,35.5149 C44.7829,35.5149 44.7589,35.5189 44.7329,35.5189 C44.7069,35.5189 44.6819,35.5149 44.6559,35.5149 C41.6649,35.5149 38.9769,36.7879 37.0829,38.8139 C36.6349,35.4129 33.4309,33.2079 30.0059,34.5719 C25.7299,37.4439 22.1089,41.1809 18.3199,44.6429 C16.8619,46.3509 14.1779,47.9269 15.0069,50.5589 C19.1859,57.5579 25.4899,62.9929 30.1259,69.6839 C30.1739,74.4389 29.8349,79.2369 29.7319,84.0359 C14.0899,77.8639 2.9879,62.6109 2.9879,44.8029 C2.9879,21.5519 21.9039,2.6359 45.1549,2.6359 C68.4049,2.6359 87.3209,21.5519 87.3209,44.8029 C87.3209,63.0159 75.7099,78.5559 59.5049,84.4399 M34.2799,45.8899 C34.2799,51.6149 38.9279,56.2589 44.6559,56.2589 C44.6819,56.2589 44.7069,56.2549 44.7329,56.2549 C44.7589,56.2549 44.7829,56.2589 44.8099,56.2589 C50.5369,56.2589 55.1849,51.6149 55.1849,45.8899 C55.1849,44.8789 55.0329,43.9059 54.7649,42.9829 C57.7449,45.3369 60.5359,47.8979 63.2969,50.4889 C60.6369,53.0969 58.6189,56.6359 55.1339,58.1989 C51.7099,58.5349 48.2159,58.4679 44.7329,58.4859 C41.2499,58.4679 37.7559,58.5349 34.3309,58.1989 C30.8459,56.6359 28.8279,53.0969 26.1689,50.4889 C28.9289,47.8979 31.7209,45.3369 34.7009,42.9829 C34.4319,43.9059 34.2799,44.8799 34.2799,45.8899 M45.1549,0.6359 C20.8019,0.6359 0.9879,20.4499 0.9879,44.8029 C0.9879,63.7229 12.9499,79.8979 29.7059,86.1749 C34.5179,87.9779 39.7219,88.9699 45.1549,88.9699 C49.0159,88.9699 52.7609,88.4689 56.3329,87.5339 C75.2909,82.5699 89.3209,65.2959 89.3209,44.8029 C89.3209,20.4499 69.5089,0.6359 45.1549,0.6359"/>
  </g>
</svg>
