<svg xmlns="http://www.w3.org/2000/svg" width="201" height="82" viewBox="0 0 201 82">
  <g fill="#606060" fill-rule="evenodd">
    <path d="M191.7402 47.5093C193.3342 48.9423 196.2602 47.9433 196.5332 45.7793 197.0292 43.6183 194.4972 41.6953 192.5242 42.6153 190.5532 43.2983 190.1492 46.2203 191.7402 47.5093M131.8262 66.9575L131.8262 68.8565C120.2992 70.5755 108.8332 72.2855 97.2132 74.0175L97.2132 36.6085 77.9962 36.6085 77.9962 38.8185C77.9952 50.7495 77.9622 62.6805 78.0302 74.6095 78.0402 76.3525 77.7142 77.0985 75.7602 77.2405 72.6222 77.4675 69.4842 77.9885 66.4072 78.6605 63.6992 79.2515 61.2532 78.3075 58.7612 77.7675 44.2572 74.6245 29.7762 71.3725 15.2892 68.1485 14.8772 68.0575 14.4842 67.8785 14.0442 67.7275L14.0442 41.0595C14.6802 41.0265 15.2742 40.9735 15.8692 40.9695 30.1592 40.8715 44.4502 40.7535 58.7402 40.7205 60.3282 40.7165 61.5722 40.2675 62.8322 39.3685 76.1472 29.8685 89.4882 20.4075 102.8222 10.9365 103.0722 10.7585 103.3342 10.5975 103.6982 10.3575 108.0932 13.8045 112.4792 17.2475 116.8702 20.6845 121.3662 24.2035 125.8492 27.7395 130.3772 31.2165 131.3922 31.9955 131.8672 32.8065 131.8592 34.1495 131.8002 45.0855 131.8262 56.0215 131.8262 66.9575M146.1332 35.2755C145.5142 34.5235 144.6382 33.9825 143.8682 33.3555 132.2782 23.9105 120.6952 14.4555 109.0732 5.0505 108.4102 4.5145 107.3742 4.0275 106.5872 4.1245 100.8712 4.8285 95.1772 5.7025 89.4722 6.4935 85.8202 7.0005 82.1602 7.4575 78.2782 7.9665 78.2782 6.0955 78.2672 4.4915 78.2822 2.8875 78.2932 1.5945 77.6572.8255 76.3842.8745 70.4402 1.1045 64.5002 1.4115 58.5572 1.6625 56.5842 1.7455 56.0752 2.8765 56.1342 4.6345 56.2052 6.7335 56.1512 8.8375 56.1512 11.0435 53.2442 11.4545 50.4932 11.8165 47.7502 12.2385 45.8082 12.5375 43.6892 12.5215 41.9822 13.3415 38.6522 14.9425 35.5472 17.0145 32.3652 18.9175 22.1642 25.0195 11.9722 31.1375 1.7702 37.2365.8242 37.8025-.3008 38.4845.3332 39.6295.7202 40.3295 1.9532 40.8665 2.8422 40.9225 5.4832 41.0895 8.1402 40.9825 10.9712 40.9825L10.9712 70.2285C11.3662 70.3335 11.5942 70.4035 11.8262 70.4555 26.8602 73.7955 41.8922 77.1435 56.9292 80.4655 59.4602 81.0245 62.0772 82.1035 64.5462 81.8575 71.4372 81.1685 78.2722 79.9065 85.1302 78.8785 93.9472 77.5575 102.7642 76.2435 111.5822 74.9255 119.2842 73.7745 126.9862 72.6245 134.9122 71.4395L134.9122 38.8325C135.5832 38.8035 136.0142 38.7715 136.4452 38.7675 139.2422 38.7435 142.0442 38.8115 144.8322 38.6475 145.6122 38.6025 146.6652 38.0475 147.0022 37.4135 147.2402 36.9645 146.6232 35.8715 146.1332 35.2755"/>
    <path d="M103.1978,61.3276 C106.4918,61.0506 109.6668,60.7846 112.8778,60.5146 L112.8778,52.8966 L103.1978,52.8966 L103.1978,61.3276 Z"/>
    <polygon points="103.2 49.262 112.855 49.262 112.855 41.471 103.2 41.471"/>
    <polygon points="116.591 48.96 125.361 48.96 125.361 41.416 116.591 41.416"/>
    <path d="M116.604 60.103C119.605 59.836 122.475 59.58 125.405 59.319L125.405 52.337 116.604 52.337 116.604 60.103zM173.4766 45.3354C173.8896 43.3524 171.8726 41.5384 169.9536 41.9474 167.9516 42.3774 166.7676 44.9824 168.1526 46.6284 169.5436 48.6644 173.3026 47.8954 173.4766 45.3354M177.6641 56.1533C176.9631 54.1913 176.6891 52.0483 175.6041 50.2433 174.7161 48.8403 172.8931 48.6353 171.3791 48.7413 169.5471 48.8523 167.3591 48.3083 165.8891 49.7203 164.6241 51.1563 164.4621 53.1673 163.8621 54.9153 163.3931 56.7743 162.5921 58.5833 162.4251 60.4943 162.4441 61.7343 164.4741 61.8033 164.7461 60.6733 165.5991 58.1853 166.1311 55.5873 166.9981 53.1023 167.1311 53.0163 167.3971 52.8403 167.5301 52.7523 166.4371 57.3873 165.1481 61.9803 164.0371 66.6153 165.2091 66.6343 166.3851 66.6383 167.5601 66.6303 167.6011 70.1353 167.5221 73.6423 167.5991 77.1473 167.7461 78.6883 170.1201 78.7303 170.2341 77.1523 170.3701 73.6503 170.2301 70.1393 170.2991 66.6343 170.5031 66.6273 170.9131 66.6153 171.1181 66.6123 171.1861 70.0023 171.1061 73.3963 171.1481 76.7883 171.0501 77.5683 171.6671 78.4113 172.5021 78.3453 173.3521 78.3753 173.8601 77.5073 173.8371 76.7373 173.9251 73.3723 173.7991 69.9963 173.8901 66.6243 175.0591 66.6383 176.2271 66.6303 177.3941 66.6243 176.1161 61.9053 174.5391 57.2633 173.4281 52.5043 173.7171 52.7763 174.0641 53.0273 174.1671 53.4363 174.9861 55.8303 175.5891 58.2953 176.4621 60.6653 176.8421 61.5183 177.8121 61.5563 178.5891 61.2873 178.9911 59.5083 178.0811 57.8403 177.6641 56.1533M156.1689 45.8164C157.1379 43.7484 154.7859 41.2994 152.6629 41.9704 150.6119 42.3834 149.7469 45.2124 151.1759 46.7254 152.4739 48.4424 155.5599 47.8984 156.1689 45.8164M159.2842 49.3271C157.8432 48.1121 155.8202 48.3761 154.0732 48.3461 152.0452 48.4311 149.9262 48.0621 147.9922 48.8291 146.7772 49.3041 146.1592 50.6341 146.1972 51.8831 146.1822 55.1671 146.1712 58.4541 146.2012 61.7391 146.1482 62.3061 146.5622 63.0421 147.2022 62.9841 148.2902 63.2371 148.7122 61.9071 148.7122 61.0581 148.7352 58.4661 148.6812 55.8761 148.7272 53.2851L149.4632 53.2851C149.5162 61.0991 149.4362 68.9161 149.5012 76.7281 149.4362 78.3271 151.4592 78.7641 152.5252 77.8871 152.8622 77.0551 152.9392 76.1401 152.9352 75.2541 152.9162 71.1581 152.9302 67.0651 152.9262 62.9691L153.6942 62.9691C153.7162 67.6611 153.6512 72.3651 153.7202 77.0581 153.8772 78.9901 157.1612 78.5651 156.9622 76.6901 157.0122 68.8821 156.9542 61.0641 156.9922 53.2501 157.2222 53.2471 157.6792 53.2401 157.9092 53.2361 157.9162 55.9601 157.8962 58.6841 157.9122 61.4131 157.8812 62.2181 158.4942 63.2101 159.4152 62.9841 160.1962 63.0151 160.4532 62.0461 160.4262 61.4131 160.4532 58.6041 160.4182 55.7961 160.4372 52.9911 160.4222 51.7111 160.3802 50.1931 159.2842 49.3271M198.2363 49.4019C195.9363 48.9609 193.5493 49.2929 191.2203 49.2059 188.3703 49.6519 187.4013 52.7499 185.7803 54.7169 184.6283 54.9659 183.4203 54.8309 182.2313 54.8389 181.4863 54.8389 180.8823 55.4489 180.8823 56.2019 180.8823 56.9539 181.4863 57.5639 182.2313 57.5639 182.2773 57.5639 182.3203 57.5549 182.3653 57.5499 183.9163 57.5889 185.4703 57.5709 187.0163 57.4819 188.2793 56.5319 188.8303 54.9139 189.8713 53.7409 189.8513 61.4029 189.8753 69.0689 189.8583 76.7289 189.7693 77.5769 190.2153 78.7379 191.2513 78.6259 192.2053 78.7789 193.1133 78.0489 193.0973 77.0689 193.1093 72.5559 193.0943 68.0369 193.1003 63.5259L194.0023 63.5259C194.0503 68.1479 193.9583 72.7739 194.0443 77.3929 193.9503 78.3119 194.9083 78.7309 195.6983 78.6209 196.6613 78.6209 197.2453 77.6299 197.2453 76.7519 197.2563 69.1519 197.2453 61.5499 197.2483 53.9489 197.4743 53.9529 197.9223 53.9639 198.1503 53.9679 198.1903 56.7499 198.1083 59.5319 198.1833 62.3109 198.1453 62.9149 198.5143 63.5109 199.1753 63.5219 200.0943 63.8159 200.6453 62.7679 200.6383 61.9949 200.6523 59.1099 200.6343 56.2289 200.6453 53.3449 200.6073 51.7509 200.0543 49.7349 198.2363 49.4019"/>
  </g>
</svg>
