<svg xmlns="http://www.w3.org/2000/svg" width="138" height="92" viewBox="0 0 138 92">
  <g fill="#606060" fill-rule="evenodd">
    <path d="M60.1543,37.6797 C65.7713,31.6447 72.8083,27.9087 80.7163,26.0597 C86.2483,24.7647 91.9593,24.2397 97.7573,23.3447 C97.2593,22.4687 96.7133,21.2727 95.9623,20.2217 C91.5573,14.0457 85.7403,9.5567 78.9003,6.4157 C63.5983,-0.6103 47.7763,-1.4623 31.6313,2.8647 C22.0323,5.4367 13.5313,9.9967 7.0043,17.6977 C-2.0277,28.3527 -2.0747,41.8267 6.8193,52.6057 C10.8083,57.4397 15.7473,61.1037 21.4063,63.6877 C23.5683,64.6737 24.5573,66.1547 25.1633,68.2417 C26.8403,74.0227 26.6993,79.6997 24.6333,85.4827 C27.3153,81.8307 30.3823,78.3947 32.5833,74.4727 C35.2763,69.6737 38.4373,68.3667 43.9503,69.5637 C48.7393,70.6027 53.9323,69.7807 59.3143,69.7807 C58.7613,68.9637 58.4993,68.5567 58.2173,68.1627 C50.9473,57.9977 51.6333,46.8357 60.1543,37.6797"/>
    <path d="M111.4951,58.8008 C108.8101,58.8008 106.6351,56.6248 106.6351,53.9408 C106.6351,51.2558 108.8101,49.0788 111.4951,49.0788 C114.1801,49.0788 116.3551,51.2558 116.3551,53.9408 C116.3551,56.6248 114.1801,58.8008 111.4951,58.8008 M96.4991,58.8008 C93.8141,58.8008 91.6391,56.6248 91.6391,53.9408 C91.6391,51.2558 93.8141,49.0788 96.4991,49.0788 C99.1831,49.0788 101.3591,51.2558 101.3591,53.9408 C101.3591,56.6248 99.1831,58.8008 96.4991,58.8008 M81.5031,58.8008 C78.8181,58.8008 76.6421,56.6248 76.6421,53.9408 C76.6421,51.2558 78.8181,49.0788 81.5031,49.0788 C84.1871,49.0788 86.3631,51.2558 86.3631,53.9408 C86.3631,56.6248 84.1871,58.8008 81.5031,58.8008 M132.6441,40.6398 C129.6081,37.0388 125.6851,33.8568 121.5641,31.5648 C110.6331,25.4818 98.7221,24.2478 86.4731,26.2418 C77.1621,27.7578 68.6701,31.1868 61.9051,37.9958 C56.1621,43.7798 53.3371,50.6528 55.2921,58.8848 C56.7451,65.0008 60.5191,69.6548 65.4921,73.2418 C77.5811,81.9628 91.1311,84.1668 105.5931,81.6228 C107.4361,81.2988 108.4931,81.6808 109.5041,83.2368 C111.4741,86.2678 113.6421,89.1688 115.3911,91.6438 C115.9401,88.0918 116.3311,84.3258 117.1951,80.6738 C117.4811,79.4638 118.7941,78.1598 119.9741,77.5598 C124.5571,75.2268 128.6821,72.3578 132.0461,68.4508 C139.3061,60.0228 139.8071,49.1338 132.6441,40.6398"/>
  </g>
</svg>
