<svg xmlns="http://www.w3.org/2000/svg" width="112" height="76" viewBox="0 0 112 76">
  <g fill="#606060" fill-rule="evenodd">
    <polygon points="22.323 39.794 8.449 34.632 8.449 54.702 28.199 63.202 28.199 31.202 28.155 31.183"/>
    <polygon points="29.949 31.616 29.949 63.202 49.699 54.702 49.699 34.529 35.726 39.794"/>
    <polygon points=".823 29.794 8.449 32.632 22.323 37.794 28.155 29.183 28.883 28.107 8.073 19.544"/>
    <polygon points="28.883 28.107 29.949 29.616 35.726 37.794 49.699 32.529 57.251 29.683 50.491 19.544"/>
    <polygon points="22.561 .865 .823 10.293 8.073 19.544 28.883 11.361"/>
    <polygon points="35.192 2.11 29.677 11.183 50.491 19.544 57.251 10.204"/>
    <polygon points="68.848 50.497 64.376 46.826 64.376 41.101 57.251 35.919 57.251 55.169 76.501 75.669 76.501 49.919 68.972 44.444"/>
    <polygon points="78.251 75.669 111.501 63.169 111.501 41.169 78.251 50.669"/>
    <polygon points="91.001 28.669 57.251 33.919 65.331 39.594 97.148 31.893"/>
    <polygon points="78.251 48.669 111.501 39.419 102.79 34.851 70.508 43.232"/>
  </g>
</svg>
